M48
; DRILL file {KiCad (6.0.4)} date Thu 24 Mar 2022 02:10:26 GMT
; FORMAT={-:-/ absolute / inch / decimal}
; #@! TF.CreationDate,2022-03-24T02:10:26+00:00
; #@! TF.GenerationSoftware,Kicad,Pcbnew,(6.0.4)
; #@! TF.FileFunction,NonPlated,1,2,NPTH
FMAT,2
INCH
; #@! TA.AperFunction,NonPlated,NPTH,ComponentDrill
T1C0.0669
; #@! TA.AperFunction,NonPlated,NPTH,ComponentDrill
T2C0.1201
; #@! TA.AperFunction,NonPlated,NPTH,ComponentDrill
T3C0.1575
%
G90
G05
T1
X0.9358Y-2.3228
X1.0296Y-4.5728
X1.0296Y-5.3228
X1.1233Y-3.0728
X1.217Y-3.8228
X1.3358Y-2.3228
X1.4296Y-4.5728
X1.4296Y-5.3228
X1.5233Y-3.0728
X1.617Y-3.8228
X1.6858Y-2.3228
X1.8733Y-4.5728
X1.967Y-5.3228
X2.0608Y-3.0728
X2.0858Y-2.3228
X2.2483Y-3.8228
X2.2733Y-4.5728
X2.367Y-5.3228
X2.4358Y-2.3228
X2.4608Y-3.0728
X2.6233Y-4.5728
X2.6483Y-3.8228
X2.8108Y-3.0728
X2.8358Y-2.3228
X2.9045Y-5.3228
X2.9983Y-3.8228
X3.0233Y-4.5728
X3.1858Y-2.3228
X3.2108Y-3.0728
X3.3045Y-5.3228
X3.3733Y-4.5728
X3.3983Y-3.8228
X3.5608Y-3.0728
X3.5858Y-2.3228
X3.7483Y-3.8228
X3.7733Y-4.5728
X3.9358Y-2.3228
X3.9608Y-3.0728
X4.1233Y-4.5728
X4.1483Y-3.8228
X4.3108Y-3.0728
X4.3358Y-2.3228
X4.4983Y-3.8228
X4.5233Y-4.5728
X4.6858Y-2.3228
X4.7108Y-3.0728
X4.8733Y-4.5728
X4.8983Y-3.8228
X5.0608Y-3.0728
X5.0858Y-2.3228
X5.2483Y-3.8228
X5.2733Y-4.5728
X5.4358Y-2.3228
X5.4608Y-3.0728
X5.6233Y-4.5728
X5.6483Y-3.8228
X5.7169Y-5.3228
X5.8108Y-3.0728
X5.8358Y-2.3228
X5.9983Y-3.8228
X6.0233Y-4.5728
X6.1169Y-5.3228
X6.1858Y-2.3228
X6.2108Y-3.0728
X6.3733Y-4.5728
X6.3983Y-3.8228
X6.5608Y-3.0728
X6.5858Y-2.3228
X6.7483Y-3.8228
X6.7733Y-4.5728
X6.9358Y-2.3228
X6.9608Y-3.0728
X7.1233Y-4.5728
X7.1483Y-3.8228
X7.3108Y-3.0728
X7.3358Y-2.3228
X7.4983Y-3.8228
X7.5233Y-4.5728
X7.6858Y-2.3228
X7.7108Y-3.0728
X7.8733Y-4.5728
X7.8983Y-3.8228
X8.0608Y-3.0728
X8.0858Y-2.3228
X8.2483Y-3.8228
X8.2733Y-4.5728
X8.4357Y-5.3228
X8.4358Y-2.3228
X8.4608Y-3.0728
X8.6233Y-4.5728
X8.6483Y-3.8228
X8.8108Y-3.0728
X8.8357Y-5.3228
X8.8358Y-2.3228
X8.9983Y-3.8228
X9.0233Y-4.5728
X9.1857Y-5.3228
X9.1858Y-2.3228
X9.2108Y-3.0728
X9.3733Y-4.5728
X9.3983Y-3.8228
X9.5608Y-3.0728
X9.5857Y-5.3228
X9.5858Y-2.3228
X9.7483Y-3.8228
X9.7733Y-4.5728
X9.9357Y-5.3228
X9.9358Y-2.3228
X9.9608Y-3.0728
X10.1483Y-3.8228
X10.3108Y-3.0728
X10.3357Y-5.3228
X10.3358Y-2.3228
X10.4046Y-4.5728
X10.4983Y-3.8228
X10.6857Y-5.3228
X10.7108Y-3.0728
X10.8046Y-4.5728
X10.8983Y-3.8228
X11.0608Y-2.3228
X11.0857Y-5.3228
X11.342Y-3.4478
X11.4357Y-5.3228
X11.4359Y-4.5728
X11.4608Y-2.3228
X11.742Y-3.4478
X11.8357Y-5.3228
X11.8359Y-4.5728
X12.1857Y-2.3228
X12.1857Y-3.0728
X12.1857Y-3.8228
X12.1857Y-4.5728
X12.1857Y-5.3228
X12.5857Y-2.3228
X12.5857Y-3.0728
X12.5857Y-3.8228
X12.5857Y-4.5728
X12.5857Y-5.3228
T2
X3.9484Y-5.0472
X7.8854Y-5.0472
X10.7923Y-2.0472
X11.2664Y-2.9793
X11.2664Y-3.9163
X11.7293Y-2.0472
T3
X1.1358Y-2.3228
X1.2296Y-4.5728
X1.2296Y-5.3228
X1.3233Y-3.0728
X1.417Y-3.8228
X1.8858Y-2.3228
X2.0733Y-4.5728
X2.167Y-5.3228
X2.2608Y-3.0728
X2.4483Y-3.8228
X2.6358Y-2.3228
X2.8233Y-4.5728
X3.0108Y-3.0728
X3.1045Y-5.3228
X3.1983Y-3.8228
X3.3858Y-2.3228
X3.5733Y-4.5728
X3.7608Y-3.0728
X3.9483Y-3.8228
X3.9484Y-5.6472
X4.1358Y-2.3228
X4.3233Y-4.5728
X4.5108Y-3.0728
X4.6983Y-3.8228
X4.8858Y-2.3228
X5.0733Y-4.5728
X5.2608Y-3.0728
X5.4483Y-3.8228
X5.6358Y-2.3228
X5.8233Y-4.5728
X5.9169Y-5.3228
X6.0108Y-3.0728
X6.1983Y-3.8228
X6.3858Y-2.3228
X6.5733Y-4.5728
X6.7608Y-3.0728
X6.9483Y-3.8228
X7.1358Y-2.3228
X7.3233Y-4.5728
X7.5108Y-3.0728
X7.6983Y-3.8228
X7.8854Y-5.6472
X7.8858Y-2.3228
X8.0733Y-4.5728
X8.2608Y-3.0728
X8.4483Y-3.8228
X8.6357Y-5.3228
X8.6358Y-2.3228
X8.8233Y-4.5728
X9.0108Y-3.0728
X9.1983Y-3.8228
X9.3857Y-5.3228
X9.3858Y-2.3228
X9.5733Y-4.5728
X9.7608Y-3.0728
X9.9483Y-3.8228
X10.1357Y-5.3228
X10.1358Y-2.3228
X10.5108Y-3.0728
X10.6046Y-4.5728
X10.6983Y-3.8228
X10.7923Y-2.6472
X10.8857Y-5.3228
X11.2608Y-2.3228
X11.542Y-3.4478
X11.6357Y-5.3228
X11.6359Y-4.5728
X11.7293Y-2.6472
X11.8664Y-2.9793
X11.8664Y-3.9163
X12.3857Y-2.3228
X12.3857Y-3.0728
X12.3857Y-3.8228
X12.3857Y-4.5728
X12.3857Y-5.3228
T0
M30
