%TF.GenerationSoftware,KiCad,Pcbnew,(6.0.4)*%
%TF.CreationDate,2022-03-24T02:10:14+00:00*%
%TF.ProjectId,kbd,6b62642e-6b69-4636-9164-5f7063625858,rev?*%
%TF.SameCoordinates,Original*%
%TF.FileFunction,Paste,Bot*%
%TF.FilePolarity,Positive*%
%FSLAX46Y46*%
G04 Gerber Fmt 4.6, Leading zero omitted, Abs format (unit mm)*
G04 Created by KiCad (PCBNEW (6.0.4)) date 2022-03-24 02:10:14*
%MOMM*%
%LPD*%
G01*
G04 APERTURE LIST*
G04 Aperture macros list*
%AMRoundRect*
0 Rectangle with rounded corners*
0 $1 Rounding radius*
0 $2 $3 $4 $5 $6 $7 $8 $9 X,Y pos of 4 corners*
0 Add a 4 corners polygon primitive as box body*
4,1,4,$2,$3,$4,$5,$6,$7,$8,$9,$2,$3,0*
0 Add four circle primitives for the rounded corners*
1,1,$1+$1,$2,$3*
1,1,$1+$1,$4,$5*
1,1,$1+$1,$6,$7*
1,1,$1+$1,$8,$9*
0 Add four rect primitives between the rounded corners*
20,1,$1+$1,$2,$3,$4,$5,0*
20,1,$1+$1,$4,$5,$6,$7,0*
20,1,$1+$1,$6,$7,$8,$9,0*
20,1,$1+$1,$8,$9,$2,$3,0*%
G04 Aperture macros list end*
%ADD10RoundRect,0.250000X0.350000X0.450000X-0.350000X0.450000X-0.350000X-0.450000X0.350000X-0.450000X0*%
%ADD11R,1.500000X0.450000*%
%ADD12RoundRect,0.250000X-0.450000X0.350000X-0.450000X-0.350000X0.450000X-0.350000X0.450000X0.350000X0*%
G04 APERTURE END LIST*
D10*
%TO.C,R5*%
X116750000Y-136000000D03*
X114750000Y-136000000D03*
%TD*%
D11*
%TO.C,D57*%
X240670000Y-64650000D03*
X240670000Y-63350000D03*
X243330000Y-64000000D03*
%TD*%
%TO.C,D59*%
X269170000Y-83150000D03*
X269170000Y-81850000D03*
X271830000Y-82500000D03*
%TD*%
%TO.C,D65*%
X317170000Y-64650000D03*
X317170000Y-63350000D03*
X319830000Y-64000000D03*
%TD*%
%TO.C,D61*%
X295670000Y-93150000D03*
X295670000Y-91850000D03*
X298330000Y-92500000D03*
%TD*%
%TO.C,D60*%
X274170000Y-102650000D03*
X274170000Y-101350000D03*
X276830000Y-102000000D03*
%TD*%
%TO.C,D33*%
X160170000Y-102650000D03*
X160170000Y-101350000D03*
X162830000Y-102000000D03*
%TD*%
%TO.C,D38*%
X193170000Y-83650000D03*
X193170000Y-82350000D03*
X195830000Y-83000000D03*
%TD*%
%TO.C,D55*%
X260000000Y-140800000D03*
X260000000Y-139500000D03*
X262660000Y-140150000D03*
%TD*%
%TO.C,D36*%
X164670000Y-64650000D03*
X164670000Y-63350000D03*
X167330000Y-64000000D03*
%TD*%
%TO.C,D13*%
X152670000Y-141150000D03*
X152670000Y-139850000D03*
X155330000Y-140500000D03*
%TD*%
%TO.C,D17*%
X83670000Y-102650000D03*
X83670000Y-101350000D03*
X86330000Y-102000000D03*
%TD*%
%TO.C,D51*%
X231170000Y-83650000D03*
X231170000Y-82350000D03*
X233830000Y-83000000D03*
%TD*%
%TO.C,D28*%
X169170000Y-121650000D03*
X169170000Y-120350000D03*
X171830000Y-121000000D03*
%TD*%
%TO.C,D67*%
X317170000Y-102650000D03*
X317170000Y-101350000D03*
X319830000Y-102000000D03*
%TD*%
%TO.C,D54*%
X271670000Y-121650000D03*
X271670000Y-120350000D03*
X274330000Y-121000000D03*
%TD*%
%TO.C,D56*%
X279170000Y-140650000D03*
X279170000Y-139350000D03*
X281830000Y-140000000D03*
%TD*%
%TO.C,D39*%
X198170000Y-102650000D03*
X198170000Y-101350000D03*
X200830000Y-102000000D03*
%TD*%
%TO.C,D63*%
X298170000Y-140650000D03*
X298170000Y-139350000D03*
X300830000Y-140000000D03*
%TD*%
%TO.C,D68*%
X317170000Y-121650000D03*
X317170000Y-120350000D03*
X319830000Y-121000000D03*
%TD*%
%TO.C,D31*%
X145670000Y-64650000D03*
X145670000Y-63350000D03*
X148330000Y-64000000D03*
%TD*%
%TO.C,D9*%
X60170000Y-83650000D03*
X60170000Y-82350000D03*
X62830000Y-83000000D03*
%TD*%
%TO.C,D35*%
X188670000Y-121650000D03*
X188670000Y-120350000D03*
X191330000Y-121000000D03*
%TD*%
%TO.C,D49*%
X241170000Y-140650000D03*
X241170000Y-139350000D03*
X243830000Y-140000000D03*
%TD*%
%TO.C,D7*%
X55170000Y-121650000D03*
X55170000Y-120350000D03*
X57830000Y-121000000D03*
%TD*%
%TO.C,D52*%
X250670000Y-83650000D03*
X250670000Y-82350000D03*
X253330000Y-83000000D03*
%TD*%
%TO.C,D34*%
X179170000Y-102650000D03*
X179170000Y-101350000D03*
X181830000Y-102000000D03*
%TD*%
%TO.C,D41*%
X226670000Y-121650000D03*
X226670000Y-120350000D03*
X229330000Y-121000000D03*
%TD*%
%TO.C,D24*%
X117170000Y-83650000D03*
X117170000Y-82350000D03*
X119830000Y-83000000D03*
%TD*%
%TO.C,D69*%
X317170000Y-140650000D03*
X317170000Y-139350000D03*
X319830000Y-140000000D03*
%TD*%
%TO.C,D26*%
X140670000Y-102650000D03*
X140670000Y-101350000D03*
X143330000Y-102000000D03*
%TD*%
%TO.C,D1*%
X31670000Y-64650000D03*
X31670000Y-63350000D03*
X34330000Y-64000000D03*
%TD*%
%TO.C,D21*%
X121670000Y-102650000D03*
X121670000Y-101350000D03*
X124330000Y-102000000D03*
%TD*%
%TO.C,D3*%
X40170000Y-102650000D03*
X40170000Y-101350000D03*
X42830000Y-102000000D03*
%TD*%
%TO.C,D47*%
X236170000Y-102650000D03*
X236170000Y-101350000D03*
X238830000Y-102000000D03*
%TD*%
%TO.C,D25*%
X136170000Y-83650000D03*
X136170000Y-82350000D03*
X138830000Y-83000000D03*
%TD*%
%TO.C,D14*%
X93500000Y-122000000D03*
X93500000Y-120700000D03*
X96160000Y-121350000D03*
%TD*%
%TO.C,D23*%
X98170000Y-83650000D03*
X98170000Y-82350000D03*
X100830000Y-83000000D03*
%TD*%
%TO.C,D8*%
X50170000Y-64650000D03*
X50170000Y-63350000D03*
X52830000Y-64000000D03*
%TD*%
%TO.C,D45*%
X212170000Y-83650000D03*
X212170000Y-82350000D03*
X214830000Y-83000000D03*
%TD*%
%TO.C,D44*%
X202670000Y-64650000D03*
X202670000Y-63350000D03*
X205330000Y-64000000D03*
%TD*%
D12*
%TO.C,R6*%
X32100000Y-100400000D03*
X32100000Y-102400000D03*
%TD*%
D11*
%TO.C,D30*%
X126670000Y-64650000D03*
X126670000Y-63350000D03*
X129330000Y-64000000D03*
%TD*%
%TO.C,D12*%
X81170000Y-140650000D03*
X81170000Y-139350000D03*
X83830000Y-140000000D03*
%TD*%
%TO.C,D11*%
X74170000Y-121650000D03*
X74170000Y-120350000D03*
X76830000Y-121000000D03*
%TD*%
%TO.C,D58*%
X260170000Y-64650000D03*
X260170000Y-63350000D03*
X262830000Y-64000000D03*
%TD*%
%TO.C,D10*%
X64670000Y-102650000D03*
X64670000Y-101350000D03*
X67330000Y-102000000D03*
%TD*%
%TO.C,D18*%
X102670000Y-102650000D03*
X102670000Y-101350000D03*
X105330000Y-102000000D03*
%TD*%
%TO.C,D20*%
X131720000Y-121650000D03*
X131720000Y-120350000D03*
X134380000Y-121000000D03*
%TD*%
%TO.C,D27*%
X150670000Y-121650000D03*
X150670000Y-120350000D03*
X153330000Y-121000000D03*
%TD*%
%TO.C,D19*%
X112170000Y-122150000D03*
X112170000Y-120850000D03*
X114830000Y-121500000D03*
%TD*%
%TO.C,D15*%
X69170000Y-64650000D03*
X69170000Y-63350000D03*
X71830000Y-64000000D03*
%TD*%
%TO.C,D29*%
X107670000Y-64650000D03*
X107670000Y-63350000D03*
X110330000Y-64000000D03*
%TD*%
%TO.C,D4*%
X33670000Y-121650000D03*
X33670000Y-120350000D03*
X36330000Y-121000000D03*
%TD*%
%TO.C,D2*%
X36170000Y-83650000D03*
X36170000Y-82350000D03*
X38830000Y-83000000D03*
%TD*%
%TO.C,D37*%
X174170000Y-83650000D03*
X174170000Y-82350000D03*
X176830000Y-83000000D03*
%TD*%
%TO.C,D53*%
X255170000Y-102650000D03*
X255170000Y-101350000D03*
X257830000Y-102000000D03*
%TD*%
%TO.C,D50*%
X222170000Y-64650000D03*
X222170000Y-63350000D03*
X224830000Y-64000000D03*
%TD*%
%TO.C,D22*%
X88670000Y-64650000D03*
X88670000Y-63350000D03*
X91330000Y-64000000D03*
%TD*%
%TO.C,D62*%
X298170000Y-121650000D03*
X298170000Y-120350000D03*
X300830000Y-121000000D03*
%TD*%
%TO.C,D43*%
X183670000Y-64650000D03*
X183670000Y-63350000D03*
X186330000Y-64000000D03*
%TD*%
%TO.C,D48*%
X245670000Y-121650000D03*
X245670000Y-120350000D03*
X248330000Y-121000000D03*
%TD*%
%TO.C,D64*%
X288670000Y-64650000D03*
X288670000Y-63350000D03*
X291330000Y-64000000D03*
%TD*%
%TO.C,D5*%
X33670000Y-140650000D03*
X33670000Y-139350000D03*
X36330000Y-140000000D03*
%TD*%
%TO.C,D66*%
X317170000Y-83650000D03*
X317170000Y-82350000D03*
X319830000Y-83000000D03*
%TD*%
%TO.C,D42*%
X221670000Y-140650000D03*
X221670000Y-139350000D03*
X224330000Y-140000000D03*
%TD*%
%TO.C,D16*%
X79170000Y-83650000D03*
X79170000Y-82350000D03*
X81830000Y-83000000D03*
%TD*%
%TO.C,D46*%
X217170000Y-102650000D03*
X217170000Y-101350000D03*
X219830000Y-102000000D03*
%TD*%
%TO.C,D32*%
X155170000Y-83650000D03*
X155170000Y-82350000D03*
X157830000Y-83000000D03*
%TD*%
%TO.C,D6*%
X57670000Y-140650000D03*
X57670000Y-139350000D03*
X60330000Y-140000000D03*
%TD*%
%TO.C,D40*%
X207670000Y-121650000D03*
X207670000Y-120350000D03*
X210330000Y-121000000D03*
%TD*%
M02*
