%TF.GenerationSoftware,KiCad,Pcbnew,(6.0.4)*%
%TF.CreationDate,2022-03-24T02:10:14+00:00*%
%TF.ProjectId,kbd,6b62642e-6b69-4636-9164-5f7063625858,rev?*%
%TF.SameCoordinates,Original*%
%TF.FileFunction,Legend,Top*%
%TF.FilePolarity,Positive*%
%FSLAX46Y46*%
G04 Gerber Fmt 4.6, Leading zero omitted, Abs format (unit mm)*
G04 Created by KiCad (PCBNEW (6.0.4)) date 2022-03-24 02:10:14*
%MOMM*%
%LPD*%
G01*
G04 APERTURE LIST*
%ADD10C,0.150000*%
%ADD11C,0.120000*%
G04 APERTURE END LIST*
D10*
%TO.C,SW26*%
X148479976Y-127730761D02*
X148622833Y-127778380D01*
X148860928Y-127778380D01*
X148956166Y-127730761D01*
X149003785Y-127683142D01*
X149051404Y-127587904D01*
X149051404Y-127492666D01*
X149003785Y-127397428D01*
X148956166Y-127349809D01*
X148860928Y-127302190D01*
X148670452Y-127254571D01*
X148575214Y-127206952D01*
X148527595Y-127159333D01*
X148479976Y-127064095D01*
X148479976Y-126968857D01*
X148527595Y-126873619D01*
X148575214Y-126826000D01*
X148670452Y-126778380D01*
X148908547Y-126778380D01*
X149051404Y-126826000D01*
X149384738Y-126778380D02*
X149622833Y-127778380D01*
X149813309Y-127064095D01*
X150003785Y-127778380D01*
X150241880Y-126778380D01*
X150575214Y-126873619D02*
X150622833Y-126826000D01*
X150718071Y-126778380D01*
X150956166Y-126778380D01*
X151051404Y-126826000D01*
X151099023Y-126873619D01*
X151146642Y-126968857D01*
X151146642Y-127064095D01*
X151099023Y-127206952D01*
X150527595Y-127778380D01*
X151146642Y-127778380D01*
X152003785Y-126778380D02*
X151813309Y-126778380D01*
X151718071Y-126826000D01*
X151670452Y-126873619D01*
X151575214Y-127016476D01*
X151527595Y-127206952D01*
X151527595Y-127587904D01*
X151575214Y-127683142D01*
X151622833Y-127730761D01*
X151718071Y-127778380D01*
X151908547Y-127778380D01*
X152003785Y-127730761D01*
X152051404Y-127683142D01*
X152099023Y-127587904D01*
X152099023Y-127349809D01*
X152051404Y-127254571D01*
X152003785Y-127206952D01*
X151908547Y-127159333D01*
X151718071Y-127159333D01*
X151622833Y-127206952D01*
X151575214Y-127254571D01*
X151527595Y-127349809D01*
%TO.C,SW51*%
X169915476Y-70580761D02*
X170058333Y-70628380D01*
X170296428Y-70628380D01*
X170391666Y-70580761D01*
X170439285Y-70533142D01*
X170486904Y-70437904D01*
X170486904Y-70342666D01*
X170439285Y-70247428D01*
X170391666Y-70199809D01*
X170296428Y-70152190D01*
X170105952Y-70104571D01*
X170010714Y-70056952D01*
X169963095Y-70009333D01*
X169915476Y-69914095D01*
X169915476Y-69818857D01*
X169963095Y-69723619D01*
X170010714Y-69676000D01*
X170105952Y-69628380D01*
X170344047Y-69628380D01*
X170486904Y-69676000D01*
X170820238Y-69628380D02*
X171058333Y-70628380D01*
X171248809Y-69914095D01*
X171439285Y-70628380D01*
X171677380Y-69628380D01*
X172534523Y-69628380D02*
X172058333Y-69628380D01*
X172010714Y-70104571D01*
X172058333Y-70056952D01*
X172153571Y-70009333D01*
X172391666Y-70009333D01*
X172486904Y-70056952D01*
X172534523Y-70104571D01*
X172582142Y-70199809D01*
X172582142Y-70437904D01*
X172534523Y-70533142D01*
X172486904Y-70580761D01*
X172391666Y-70628380D01*
X172153571Y-70628380D01*
X172058333Y-70580761D01*
X172010714Y-70533142D01*
X173534523Y-70628380D02*
X172963095Y-70628380D01*
X173248809Y-70628380D02*
X173248809Y-69628380D01*
X173153571Y-69771238D01*
X173058333Y-69866476D01*
X172963095Y-69914095D01*
%TO.C,U2*%
X108377380Y-114011904D02*
X109186904Y-114011904D01*
X109282142Y-113964285D01*
X109329761Y-113916666D01*
X109377380Y-113821428D01*
X109377380Y-113630952D01*
X109329761Y-113535714D01*
X109282142Y-113488095D01*
X109186904Y-113440476D01*
X108377380Y-113440476D01*
X108472619Y-113011904D02*
X108425000Y-112964285D01*
X108377380Y-112869047D01*
X108377380Y-112630952D01*
X108425000Y-112535714D01*
X108472619Y-112488095D01*
X108567857Y-112440476D01*
X108663095Y-112440476D01*
X108805952Y-112488095D01*
X109377380Y-113059523D01*
X109377380Y-112440476D01*
%TO.C,SW68*%
X312787976Y-127730761D02*
X312930833Y-127778380D01*
X313168928Y-127778380D01*
X313264166Y-127730761D01*
X313311785Y-127683142D01*
X313359404Y-127587904D01*
X313359404Y-127492666D01*
X313311785Y-127397428D01*
X313264166Y-127349809D01*
X313168928Y-127302190D01*
X312978452Y-127254571D01*
X312883214Y-127206952D01*
X312835595Y-127159333D01*
X312787976Y-127064095D01*
X312787976Y-126968857D01*
X312835595Y-126873619D01*
X312883214Y-126826000D01*
X312978452Y-126778380D01*
X313216547Y-126778380D01*
X313359404Y-126826000D01*
X313692738Y-126778380D02*
X313930833Y-127778380D01*
X314121309Y-127064095D01*
X314311785Y-127778380D01*
X314549880Y-126778380D01*
X315359404Y-126778380D02*
X315168928Y-126778380D01*
X315073690Y-126826000D01*
X315026071Y-126873619D01*
X314930833Y-127016476D01*
X314883214Y-127206952D01*
X314883214Y-127587904D01*
X314930833Y-127683142D01*
X314978452Y-127730761D01*
X315073690Y-127778380D01*
X315264166Y-127778380D01*
X315359404Y-127730761D01*
X315407023Y-127683142D01*
X315454642Y-127587904D01*
X315454642Y-127349809D01*
X315407023Y-127254571D01*
X315359404Y-127206952D01*
X315264166Y-127159333D01*
X315073690Y-127159333D01*
X314978452Y-127206952D01*
X314930833Y-127254571D01*
X314883214Y-127349809D01*
X316026071Y-127206952D02*
X315930833Y-127159333D01*
X315883214Y-127111714D01*
X315835595Y-127016476D01*
X315835595Y-126968857D01*
X315883214Y-126873619D01*
X315930833Y-126826000D01*
X316026071Y-126778380D01*
X316216547Y-126778380D01*
X316311785Y-126826000D01*
X316359404Y-126873619D01*
X316407023Y-126968857D01*
X316407023Y-127016476D01*
X316359404Y-127111714D01*
X316311785Y-127159333D01*
X316216547Y-127206952D01*
X316026071Y-127206952D01*
X315930833Y-127254571D01*
X315883214Y-127302190D01*
X315835595Y-127397428D01*
X315835595Y-127587904D01*
X315883214Y-127683142D01*
X315930833Y-127730761D01*
X316026071Y-127778380D01*
X316216547Y-127778380D01*
X316311785Y-127730761D01*
X316359404Y-127683142D01*
X316407023Y-127587904D01*
X316407023Y-127397428D01*
X316359404Y-127302190D01*
X316311785Y-127254571D01*
X316216547Y-127206952D01*
%TO.C,SW66*%
X212778076Y-89630761D02*
X212920933Y-89678380D01*
X213159028Y-89678380D01*
X213254266Y-89630761D01*
X213301885Y-89583142D01*
X213349504Y-89487904D01*
X213349504Y-89392666D01*
X213301885Y-89297428D01*
X213254266Y-89249809D01*
X213159028Y-89202190D01*
X212968552Y-89154571D01*
X212873314Y-89106952D01*
X212825695Y-89059333D01*
X212778076Y-88964095D01*
X212778076Y-88868857D01*
X212825695Y-88773619D01*
X212873314Y-88726000D01*
X212968552Y-88678380D01*
X213206647Y-88678380D01*
X213349504Y-88726000D01*
X213682838Y-88678380D02*
X213920933Y-89678380D01*
X214111409Y-88964095D01*
X214301885Y-89678380D01*
X214539980Y-88678380D01*
X215349504Y-88678380D02*
X215159028Y-88678380D01*
X215063790Y-88726000D01*
X215016171Y-88773619D01*
X214920933Y-88916476D01*
X214873314Y-89106952D01*
X214873314Y-89487904D01*
X214920933Y-89583142D01*
X214968552Y-89630761D01*
X215063790Y-89678380D01*
X215254266Y-89678380D01*
X215349504Y-89630761D01*
X215397123Y-89583142D01*
X215444742Y-89487904D01*
X215444742Y-89249809D01*
X215397123Y-89154571D01*
X215349504Y-89106952D01*
X215254266Y-89059333D01*
X215063790Y-89059333D01*
X214968552Y-89106952D01*
X214920933Y-89154571D01*
X214873314Y-89249809D01*
X216301885Y-88678380D02*
X216111409Y-88678380D01*
X216016171Y-88726000D01*
X215968552Y-88773619D01*
X215873314Y-88916476D01*
X215825695Y-89106952D01*
X215825695Y-89487904D01*
X215873314Y-89583142D01*
X215920933Y-89630761D01*
X216016171Y-89678380D01*
X216206647Y-89678380D01*
X216301885Y-89630761D01*
X216349504Y-89583142D01*
X216397123Y-89487904D01*
X216397123Y-89249809D01*
X216349504Y-89154571D01*
X216301885Y-89106952D01*
X216206647Y-89059333D01*
X216016171Y-89059333D01*
X215920933Y-89106952D01*
X215873314Y-89154571D01*
X215825695Y-89249809D01*
%TO.C,SW6*%
X218016666Y-51530761D02*
X218159523Y-51578380D01*
X218397619Y-51578380D01*
X218492857Y-51530761D01*
X218540476Y-51483142D01*
X218588095Y-51387904D01*
X218588095Y-51292666D01*
X218540476Y-51197428D01*
X218492857Y-51149809D01*
X218397619Y-51102190D01*
X218207142Y-51054571D01*
X218111904Y-51006952D01*
X218064285Y-50959333D01*
X218016666Y-50864095D01*
X218016666Y-50768857D01*
X218064285Y-50673619D01*
X218111904Y-50626000D01*
X218207142Y-50578380D01*
X218445238Y-50578380D01*
X218588095Y-50626000D01*
X218921428Y-50578380D02*
X219159523Y-51578380D01*
X219350000Y-50864095D01*
X219540476Y-51578380D01*
X219778571Y-50578380D01*
X220588095Y-50578380D02*
X220397619Y-50578380D01*
X220302380Y-50626000D01*
X220254761Y-50673619D01*
X220159523Y-50816476D01*
X220111904Y-51006952D01*
X220111904Y-51387904D01*
X220159523Y-51483142D01*
X220207142Y-51530761D01*
X220302380Y-51578380D01*
X220492857Y-51578380D01*
X220588095Y-51530761D01*
X220635714Y-51483142D01*
X220683333Y-51387904D01*
X220683333Y-51149809D01*
X220635714Y-51054571D01*
X220588095Y-51006952D01*
X220492857Y-50959333D01*
X220302380Y-50959333D01*
X220207142Y-51006952D01*
X220159523Y-51054571D01*
X220111904Y-51149809D01*
%TO.C,SW59*%
X193728076Y-89630761D02*
X193870933Y-89678380D01*
X194109028Y-89678380D01*
X194204266Y-89630761D01*
X194251885Y-89583142D01*
X194299504Y-89487904D01*
X194299504Y-89392666D01*
X194251885Y-89297428D01*
X194204266Y-89249809D01*
X194109028Y-89202190D01*
X193918552Y-89154571D01*
X193823314Y-89106952D01*
X193775695Y-89059333D01*
X193728076Y-88964095D01*
X193728076Y-88868857D01*
X193775695Y-88773619D01*
X193823314Y-88726000D01*
X193918552Y-88678380D01*
X194156647Y-88678380D01*
X194299504Y-88726000D01*
X194632838Y-88678380D02*
X194870933Y-89678380D01*
X195061409Y-88964095D01*
X195251885Y-89678380D01*
X195489980Y-88678380D01*
X196347123Y-88678380D02*
X195870933Y-88678380D01*
X195823314Y-89154571D01*
X195870933Y-89106952D01*
X195966171Y-89059333D01*
X196204266Y-89059333D01*
X196299504Y-89106952D01*
X196347123Y-89154571D01*
X196394742Y-89249809D01*
X196394742Y-89487904D01*
X196347123Y-89583142D01*
X196299504Y-89630761D01*
X196204266Y-89678380D01*
X195966171Y-89678380D01*
X195870933Y-89630761D01*
X195823314Y-89583142D01*
X196870933Y-89678380D02*
X197061409Y-89678380D01*
X197156647Y-89630761D01*
X197204266Y-89583142D01*
X197299504Y-89440285D01*
X197347123Y-89249809D01*
X197347123Y-88868857D01*
X197299504Y-88773619D01*
X197251885Y-88726000D01*
X197156647Y-88678380D01*
X196966171Y-88678380D01*
X196870933Y-88726000D01*
X196823314Y-88773619D01*
X196775695Y-88868857D01*
X196775695Y-89106952D01*
X196823314Y-89202190D01*
X196870933Y-89249809D01*
X196966171Y-89297428D01*
X197156647Y-89297428D01*
X197251885Y-89249809D01*
X197299504Y-89202190D01*
X197347123Y-89106952D01*
%TO.C,SW32*%
X108003076Y-108680761D02*
X108145933Y-108728380D01*
X108384028Y-108728380D01*
X108479266Y-108680761D01*
X108526885Y-108633142D01*
X108574504Y-108537904D01*
X108574504Y-108442666D01*
X108526885Y-108347428D01*
X108479266Y-108299809D01*
X108384028Y-108252190D01*
X108193552Y-108204571D01*
X108098314Y-108156952D01*
X108050695Y-108109333D01*
X108003076Y-108014095D01*
X108003076Y-107918857D01*
X108050695Y-107823619D01*
X108098314Y-107776000D01*
X108193552Y-107728380D01*
X108431647Y-107728380D01*
X108574504Y-107776000D01*
X108907838Y-107728380D02*
X109145933Y-108728380D01*
X109336409Y-108014095D01*
X109526885Y-108728380D01*
X109764980Y-107728380D01*
X110050695Y-107728380D02*
X110669742Y-107728380D01*
X110336409Y-108109333D01*
X110479266Y-108109333D01*
X110574504Y-108156952D01*
X110622123Y-108204571D01*
X110669742Y-108299809D01*
X110669742Y-108537904D01*
X110622123Y-108633142D01*
X110574504Y-108680761D01*
X110479266Y-108728380D01*
X110193552Y-108728380D01*
X110098314Y-108680761D01*
X110050695Y-108633142D01*
X111050695Y-107823619D02*
X111098314Y-107776000D01*
X111193552Y-107728380D01*
X111431647Y-107728380D01*
X111526885Y-107776000D01*
X111574504Y-107823619D01*
X111622123Y-107918857D01*
X111622123Y-108014095D01*
X111574504Y-108156952D01*
X111003076Y-108728380D01*
X111622123Y-108728380D01*
%TO.C,SW23*%
X93715476Y-70580761D02*
X93858333Y-70628380D01*
X94096428Y-70628380D01*
X94191666Y-70580761D01*
X94239285Y-70533142D01*
X94286904Y-70437904D01*
X94286904Y-70342666D01*
X94239285Y-70247428D01*
X94191666Y-70199809D01*
X94096428Y-70152190D01*
X93905952Y-70104571D01*
X93810714Y-70056952D01*
X93763095Y-70009333D01*
X93715476Y-69914095D01*
X93715476Y-69818857D01*
X93763095Y-69723619D01*
X93810714Y-69676000D01*
X93905952Y-69628380D01*
X94144047Y-69628380D01*
X94286904Y-69676000D01*
X94620238Y-69628380D02*
X94858333Y-70628380D01*
X95048809Y-69914095D01*
X95239285Y-70628380D01*
X95477380Y-69628380D01*
X95810714Y-69723619D02*
X95858333Y-69676000D01*
X95953571Y-69628380D01*
X96191666Y-69628380D01*
X96286904Y-69676000D01*
X96334523Y-69723619D01*
X96382142Y-69818857D01*
X96382142Y-69914095D01*
X96334523Y-70056952D01*
X95763095Y-70628380D01*
X96382142Y-70628380D01*
X96715476Y-69628380D02*
X97334523Y-69628380D01*
X97001190Y-70009333D01*
X97144047Y-70009333D01*
X97239285Y-70056952D01*
X97286904Y-70104571D01*
X97334523Y-70199809D01*
X97334523Y-70437904D01*
X97286904Y-70533142D01*
X97239285Y-70580761D01*
X97144047Y-70628380D01*
X96858333Y-70628380D01*
X96763095Y-70580761D01*
X96715476Y-70533142D01*
%TO.C,D71*%
X34778114Y-105202380D02*
X34778114Y-104202380D01*
X35016209Y-104202380D01*
X35159066Y-104250000D01*
X35254304Y-104345238D01*
X35301923Y-104440476D01*
X35349542Y-104630952D01*
X35349542Y-104773809D01*
X35301923Y-104964285D01*
X35254304Y-105059523D01*
X35159066Y-105154761D01*
X35016209Y-105202380D01*
X34778114Y-105202380D01*
X35682876Y-104202380D02*
X36349542Y-104202380D01*
X35920971Y-105202380D01*
X37254304Y-105202380D02*
X36682876Y-105202380D01*
X36968590Y-105202380D02*
X36968590Y-104202380D01*
X36873352Y-104345238D01*
X36778114Y-104440476D01*
X36682876Y-104488095D01*
%TO.C,SW8*%
X46566666Y-51530761D02*
X46709523Y-51578380D01*
X46947619Y-51578380D01*
X47042857Y-51530761D01*
X47090476Y-51483142D01*
X47138095Y-51387904D01*
X47138095Y-51292666D01*
X47090476Y-51197428D01*
X47042857Y-51149809D01*
X46947619Y-51102190D01*
X46757142Y-51054571D01*
X46661904Y-51006952D01*
X46614285Y-50959333D01*
X46566666Y-50864095D01*
X46566666Y-50768857D01*
X46614285Y-50673619D01*
X46661904Y-50626000D01*
X46757142Y-50578380D01*
X46995238Y-50578380D01*
X47138095Y-50626000D01*
X47471428Y-50578380D02*
X47709523Y-51578380D01*
X47900000Y-50864095D01*
X48090476Y-51578380D01*
X48328571Y-50578380D01*
X48852380Y-51006952D02*
X48757142Y-50959333D01*
X48709523Y-50911714D01*
X48661904Y-50816476D01*
X48661904Y-50768857D01*
X48709523Y-50673619D01*
X48757142Y-50626000D01*
X48852380Y-50578380D01*
X49042857Y-50578380D01*
X49138095Y-50626000D01*
X49185714Y-50673619D01*
X49233333Y-50768857D01*
X49233333Y-50816476D01*
X49185714Y-50911714D01*
X49138095Y-50959333D01*
X49042857Y-51006952D01*
X48852380Y-51006952D01*
X48757142Y-51054571D01*
X48709523Y-51102190D01*
X48661904Y-51197428D01*
X48661904Y-51387904D01*
X48709523Y-51483142D01*
X48757142Y-51530761D01*
X48852380Y-51578380D01*
X49042857Y-51578380D01*
X49138095Y-51530761D01*
X49185714Y-51483142D01*
X49233333Y-51387904D01*
X49233333Y-51197428D01*
X49185714Y-51102190D01*
X49138095Y-51054571D01*
X49042857Y-51006952D01*
%TO.C,SW53*%
X165153076Y-108680761D02*
X165295933Y-108728380D01*
X165534028Y-108728380D01*
X165629266Y-108680761D01*
X165676885Y-108633142D01*
X165724504Y-108537904D01*
X165724504Y-108442666D01*
X165676885Y-108347428D01*
X165629266Y-108299809D01*
X165534028Y-108252190D01*
X165343552Y-108204571D01*
X165248314Y-108156952D01*
X165200695Y-108109333D01*
X165153076Y-108014095D01*
X165153076Y-107918857D01*
X165200695Y-107823619D01*
X165248314Y-107776000D01*
X165343552Y-107728380D01*
X165581647Y-107728380D01*
X165724504Y-107776000D01*
X166057838Y-107728380D02*
X166295933Y-108728380D01*
X166486409Y-108014095D01*
X166676885Y-108728380D01*
X166914980Y-107728380D01*
X167772123Y-107728380D02*
X167295933Y-107728380D01*
X167248314Y-108204571D01*
X167295933Y-108156952D01*
X167391171Y-108109333D01*
X167629266Y-108109333D01*
X167724504Y-108156952D01*
X167772123Y-108204571D01*
X167819742Y-108299809D01*
X167819742Y-108537904D01*
X167772123Y-108633142D01*
X167724504Y-108680761D01*
X167629266Y-108728380D01*
X167391171Y-108728380D01*
X167295933Y-108680761D01*
X167248314Y-108633142D01*
X168153076Y-107728380D02*
X168772123Y-107728380D01*
X168438790Y-108109333D01*
X168581647Y-108109333D01*
X168676885Y-108156952D01*
X168724504Y-108204571D01*
X168772123Y-108299809D01*
X168772123Y-108537904D01*
X168724504Y-108633142D01*
X168676885Y-108680761D01*
X168581647Y-108728380D01*
X168295933Y-108728380D01*
X168200695Y-108680761D01*
X168153076Y-108633142D01*
%TO.C,Y1*%
X105273809Y-136976190D02*
X105273809Y-137452380D01*
X104940476Y-136452380D02*
X105273809Y-136976190D01*
X105607142Y-136452380D01*
X106464285Y-137452380D02*
X105892857Y-137452380D01*
X106178571Y-137452380D02*
X106178571Y-136452380D01*
X106083333Y-136595238D01*
X105988095Y-136690476D01*
X105892857Y-136738095D01*
%TO.C,R4*%
X121333333Y-49702380D02*
X121000000Y-49226190D01*
X120761904Y-49702380D02*
X120761904Y-48702380D01*
X121142857Y-48702380D01*
X121238095Y-48750000D01*
X121285714Y-48797619D01*
X121333333Y-48892857D01*
X121333333Y-49035714D01*
X121285714Y-49130952D01*
X121238095Y-49178571D01*
X121142857Y-49226190D01*
X120761904Y-49226190D01*
X122190476Y-49035714D02*
X122190476Y-49702380D01*
X121952380Y-48654761D02*
X121714285Y-49369047D01*
X122333333Y-49369047D01*
%TO.C,SW27*%
X222303076Y-108680761D02*
X222445933Y-108728380D01*
X222684028Y-108728380D01*
X222779266Y-108680761D01*
X222826885Y-108633142D01*
X222874504Y-108537904D01*
X222874504Y-108442666D01*
X222826885Y-108347428D01*
X222779266Y-108299809D01*
X222684028Y-108252190D01*
X222493552Y-108204571D01*
X222398314Y-108156952D01*
X222350695Y-108109333D01*
X222303076Y-108014095D01*
X222303076Y-107918857D01*
X222350695Y-107823619D01*
X222398314Y-107776000D01*
X222493552Y-107728380D01*
X222731647Y-107728380D01*
X222874504Y-107776000D01*
X223207838Y-107728380D02*
X223445933Y-108728380D01*
X223636409Y-108014095D01*
X223826885Y-108728380D01*
X224064980Y-107728380D01*
X224398314Y-107823619D02*
X224445933Y-107776000D01*
X224541171Y-107728380D01*
X224779266Y-107728380D01*
X224874504Y-107776000D01*
X224922123Y-107823619D01*
X224969742Y-107918857D01*
X224969742Y-108014095D01*
X224922123Y-108156952D01*
X224350695Y-108728380D01*
X224969742Y-108728380D01*
X225303076Y-107728380D02*
X225969742Y-107728380D01*
X225541171Y-108728380D01*
%TO.C,SW36*%
X122290476Y-51530761D02*
X122433333Y-51578380D01*
X122671428Y-51578380D01*
X122766666Y-51530761D01*
X122814285Y-51483142D01*
X122861904Y-51387904D01*
X122861904Y-51292666D01*
X122814285Y-51197428D01*
X122766666Y-51149809D01*
X122671428Y-51102190D01*
X122480952Y-51054571D01*
X122385714Y-51006952D01*
X122338095Y-50959333D01*
X122290476Y-50864095D01*
X122290476Y-50768857D01*
X122338095Y-50673619D01*
X122385714Y-50626000D01*
X122480952Y-50578380D01*
X122719047Y-50578380D01*
X122861904Y-50626000D01*
X123195238Y-50578380D02*
X123433333Y-51578380D01*
X123623809Y-50864095D01*
X123814285Y-51578380D01*
X124052380Y-50578380D01*
X124338095Y-50578380D02*
X124957142Y-50578380D01*
X124623809Y-50959333D01*
X124766666Y-50959333D01*
X124861904Y-51006952D01*
X124909523Y-51054571D01*
X124957142Y-51149809D01*
X124957142Y-51387904D01*
X124909523Y-51483142D01*
X124861904Y-51530761D01*
X124766666Y-51578380D01*
X124480952Y-51578380D01*
X124385714Y-51530761D01*
X124338095Y-51483142D01*
X125814285Y-50578380D02*
X125623809Y-50578380D01*
X125528571Y-50626000D01*
X125480952Y-50673619D01*
X125385714Y-50816476D01*
X125338095Y-51006952D01*
X125338095Y-51387904D01*
X125385714Y-51483142D01*
X125433333Y-51530761D01*
X125528571Y-51578380D01*
X125719047Y-51578380D01*
X125814285Y-51530761D01*
X125861904Y-51483142D01*
X125909523Y-51387904D01*
X125909523Y-51149809D01*
X125861904Y-51054571D01*
X125814285Y-51006952D01*
X125719047Y-50959333D01*
X125528571Y-50959333D01*
X125433333Y-51006952D01*
X125385714Y-51054571D01*
X125338095Y-51149809D01*
%TO.C,C1*%
X107333333Y-49607142D02*
X107285714Y-49654761D01*
X107142857Y-49702380D01*
X107047619Y-49702380D01*
X106904761Y-49654761D01*
X106809523Y-49559523D01*
X106761904Y-49464285D01*
X106714285Y-49273809D01*
X106714285Y-49130952D01*
X106761904Y-48940476D01*
X106809523Y-48845238D01*
X106904761Y-48750000D01*
X107047619Y-48702380D01*
X107142857Y-48702380D01*
X107285714Y-48750000D01*
X107333333Y-48797619D01*
X108285714Y-49702380D02*
X107714285Y-49702380D01*
X108000000Y-49702380D02*
X108000000Y-48702380D01*
X107904761Y-48845238D01*
X107809523Y-48940476D01*
X107714285Y-48988095D01*
%TO.C,SW47*%
X255637976Y-127730761D02*
X255780833Y-127778380D01*
X256018928Y-127778380D01*
X256114166Y-127730761D01*
X256161785Y-127683142D01*
X256209404Y-127587904D01*
X256209404Y-127492666D01*
X256161785Y-127397428D01*
X256114166Y-127349809D01*
X256018928Y-127302190D01*
X255828452Y-127254571D01*
X255733214Y-127206952D01*
X255685595Y-127159333D01*
X255637976Y-127064095D01*
X255637976Y-126968857D01*
X255685595Y-126873619D01*
X255733214Y-126826000D01*
X255828452Y-126778380D01*
X256066547Y-126778380D01*
X256209404Y-126826000D01*
X256542738Y-126778380D02*
X256780833Y-127778380D01*
X256971309Y-127064095D01*
X257161785Y-127778380D01*
X257399880Y-126778380D01*
X258209404Y-127111714D02*
X258209404Y-127778380D01*
X257971309Y-126730761D02*
X257733214Y-127445047D01*
X258352261Y-127445047D01*
X258637976Y-126778380D02*
X259304642Y-126778380D01*
X258876071Y-127778380D01*
%TO.C,SW39*%
X127053076Y-108680761D02*
X127195933Y-108728380D01*
X127434028Y-108728380D01*
X127529266Y-108680761D01*
X127576885Y-108633142D01*
X127624504Y-108537904D01*
X127624504Y-108442666D01*
X127576885Y-108347428D01*
X127529266Y-108299809D01*
X127434028Y-108252190D01*
X127243552Y-108204571D01*
X127148314Y-108156952D01*
X127100695Y-108109333D01*
X127053076Y-108014095D01*
X127053076Y-107918857D01*
X127100695Y-107823619D01*
X127148314Y-107776000D01*
X127243552Y-107728380D01*
X127481647Y-107728380D01*
X127624504Y-107776000D01*
X127957838Y-107728380D02*
X128195933Y-108728380D01*
X128386409Y-108014095D01*
X128576885Y-108728380D01*
X128814980Y-107728380D01*
X129100695Y-107728380D02*
X129719742Y-107728380D01*
X129386409Y-108109333D01*
X129529266Y-108109333D01*
X129624504Y-108156952D01*
X129672123Y-108204571D01*
X129719742Y-108299809D01*
X129719742Y-108537904D01*
X129672123Y-108633142D01*
X129624504Y-108680761D01*
X129529266Y-108728380D01*
X129243552Y-108728380D01*
X129148314Y-108680761D01*
X129100695Y-108633142D01*
X130195933Y-108728380D02*
X130386409Y-108728380D01*
X130481647Y-108680761D01*
X130529266Y-108633142D01*
X130624504Y-108490285D01*
X130672123Y-108299809D01*
X130672123Y-107918857D01*
X130624504Y-107823619D01*
X130576885Y-107776000D01*
X130481647Y-107728380D01*
X130291171Y-107728380D01*
X130195933Y-107776000D01*
X130148314Y-107823619D01*
X130100695Y-107918857D01*
X130100695Y-108156952D01*
X130148314Y-108252190D01*
X130195933Y-108299809D01*
X130291171Y-108347428D01*
X130481647Y-108347428D01*
X130576885Y-108299809D01*
X130624504Y-108252190D01*
X130672123Y-108156952D01*
%TO.C,SW5*%
X29897966Y-127730761D02*
X30040823Y-127778380D01*
X30278919Y-127778380D01*
X30374157Y-127730761D01*
X30421776Y-127683142D01*
X30469395Y-127587904D01*
X30469395Y-127492666D01*
X30421776Y-127397428D01*
X30374157Y-127349809D01*
X30278919Y-127302190D01*
X30088442Y-127254571D01*
X29993204Y-127206952D01*
X29945585Y-127159333D01*
X29897966Y-127064095D01*
X29897966Y-126968857D01*
X29945585Y-126873619D01*
X29993204Y-126826000D01*
X30088442Y-126778380D01*
X30326538Y-126778380D01*
X30469395Y-126826000D01*
X30802728Y-126778380D02*
X31040823Y-127778380D01*
X31231300Y-127064095D01*
X31421776Y-127778380D01*
X31659871Y-126778380D01*
X32517014Y-126778380D02*
X32040823Y-126778380D01*
X31993204Y-127254571D01*
X32040823Y-127206952D01*
X32136061Y-127159333D01*
X32374157Y-127159333D01*
X32469395Y-127206952D01*
X32517014Y-127254571D01*
X32564633Y-127349809D01*
X32564633Y-127587904D01*
X32517014Y-127683142D01*
X32469395Y-127730761D01*
X32374157Y-127778380D01*
X32136061Y-127778380D01*
X32040823Y-127730761D01*
X31993204Y-127683142D01*
%TO.C,SW18*%
X69903076Y-108680761D02*
X70045933Y-108728380D01*
X70284028Y-108728380D01*
X70379266Y-108680761D01*
X70426885Y-108633142D01*
X70474504Y-108537904D01*
X70474504Y-108442666D01*
X70426885Y-108347428D01*
X70379266Y-108299809D01*
X70284028Y-108252190D01*
X70093552Y-108204571D01*
X69998314Y-108156952D01*
X69950695Y-108109333D01*
X69903076Y-108014095D01*
X69903076Y-107918857D01*
X69950695Y-107823619D01*
X69998314Y-107776000D01*
X70093552Y-107728380D01*
X70331647Y-107728380D01*
X70474504Y-107776000D01*
X70807838Y-107728380D02*
X71045933Y-108728380D01*
X71236409Y-108014095D01*
X71426885Y-108728380D01*
X71664980Y-107728380D01*
X72569742Y-108728380D02*
X71998314Y-108728380D01*
X72284028Y-108728380D02*
X72284028Y-107728380D01*
X72188790Y-107871238D01*
X72093552Y-107966476D01*
X71998314Y-108014095D01*
X73141171Y-108156952D02*
X73045933Y-108109333D01*
X72998314Y-108061714D01*
X72950695Y-107966476D01*
X72950695Y-107918857D01*
X72998314Y-107823619D01*
X73045933Y-107776000D01*
X73141171Y-107728380D01*
X73331647Y-107728380D01*
X73426885Y-107776000D01*
X73474504Y-107823619D01*
X73522123Y-107918857D01*
X73522123Y-107966476D01*
X73474504Y-108061714D01*
X73426885Y-108109333D01*
X73331647Y-108156952D01*
X73141171Y-108156952D01*
X73045933Y-108204571D01*
X72998314Y-108252190D01*
X72950695Y-108347428D01*
X72950695Y-108537904D01*
X72998314Y-108633142D01*
X73045933Y-108680761D01*
X73141171Y-108728380D01*
X73331647Y-108728380D01*
X73426885Y-108680761D01*
X73474504Y-108633142D01*
X73522123Y-108537904D01*
X73522123Y-108347428D01*
X73474504Y-108252190D01*
X73426885Y-108204571D01*
X73331647Y-108156952D01*
%TO.C,SW1*%
X27516666Y-51530761D02*
X27659523Y-51578380D01*
X27897619Y-51578380D01*
X27992857Y-51530761D01*
X28040476Y-51483142D01*
X28088095Y-51387904D01*
X28088095Y-51292666D01*
X28040476Y-51197428D01*
X27992857Y-51149809D01*
X27897619Y-51102190D01*
X27707142Y-51054571D01*
X27611904Y-51006952D01*
X27564285Y-50959333D01*
X27516666Y-50864095D01*
X27516666Y-50768857D01*
X27564285Y-50673619D01*
X27611904Y-50626000D01*
X27707142Y-50578380D01*
X27945238Y-50578380D01*
X28088095Y-50626000D01*
X28421428Y-50578380D02*
X28659523Y-51578380D01*
X28850000Y-50864095D01*
X29040476Y-51578380D01*
X29278571Y-50578380D01*
X30183333Y-51578380D02*
X29611904Y-51578380D01*
X29897619Y-51578380D02*
X29897619Y-50578380D01*
X29802380Y-50721238D01*
X29707142Y-50816476D01*
X29611904Y-50864095D01*
%TO.C,SW3*%
X34659066Y-89630761D02*
X34801923Y-89678380D01*
X35040019Y-89678380D01*
X35135257Y-89630761D01*
X35182876Y-89583142D01*
X35230495Y-89487904D01*
X35230495Y-89392666D01*
X35182876Y-89297428D01*
X35135257Y-89249809D01*
X35040019Y-89202190D01*
X34849542Y-89154571D01*
X34754304Y-89106952D01*
X34706685Y-89059333D01*
X34659066Y-88964095D01*
X34659066Y-88868857D01*
X34706685Y-88773619D01*
X34754304Y-88726000D01*
X34849542Y-88678380D01*
X35087638Y-88678380D01*
X35230495Y-88726000D01*
X35563828Y-88678380D02*
X35801923Y-89678380D01*
X35992400Y-88964095D01*
X36182876Y-89678380D01*
X36420971Y-88678380D01*
X36706685Y-88678380D02*
X37325733Y-88678380D01*
X36992400Y-89059333D01*
X37135257Y-89059333D01*
X37230495Y-89106952D01*
X37278114Y-89154571D01*
X37325733Y-89249809D01*
X37325733Y-89487904D01*
X37278114Y-89583142D01*
X37230495Y-89630761D01*
X37135257Y-89678380D01*
X36849542Y-89678380D01*
X36754304Y-89630761D01*
X36706685Y-89583142D01*
%TO.C,SW55*%
X236590476Y-51530761D02*
X236733333Y-51578380D01*
X236971428Y-51578380D01*
X237066666Y-51530761D01*
X237114285Y-51483142D01*
X237161904Y-51387904D01*
X237161904Y-51292666D01*
X237114285Y-51197428D01*
X237066666Y-51149809D01*
X236971428Y-51102190D01*
X236780952Y-51054571D01*
X236685714Y-51006952D01*
X236638095Y-50959333D01*
X236590476Y-50864095D01*
X236590476Y-50768857D01*
X236638095Y-50673619D01*
X236685714Y-50626000D01*
X236780952Y-50578380D01*
X237019047Y-50578380D01*
X237161904Y-50626000D01*
X237495238Y-50578380D02*
X237733333Y-51578380D01*
X237923809Y-50864095D01*
X238114285Y-51578380D01*
X238352380Y-50578380D01*
X239209523Y-50578380D02*
X238733333Y-50578380D01*
X238685714Y-51054571D01*
X238733333Y-51006952D01*
X238828571Y-50959333D01*
X239066666Y-50959333D01*
X239161904Y-51006952D01*
X239209523Y-51054571D01*
X239257142Y-51149809D01*
X239257142Y-51387904D01*
X239209523Y-51483142D01*
X239161904Y-51530761D01*
X239066666Y-51578380D01*
X238828571Y-51578380D01*
X238733333Y-51530761D01*
X238685714Y-51483142D01*
X240161904Y-50578380D02*
X239685714Y-50578380D01*
X239638095Y-51054571D01*
X239685714Y-51006952D01*
X239780952Y-50959333D01*
X240019047Y-50959333D01*
X240114285Y-51006952D01*
X240161904Y-51054571D01*
X240209523Y-51149809D01*
X240209523Y-51387904D01*
X240161904Y-51483142D01*
X240114285Y-51530761D01*
X240019047Y-51578380D01*
X239780952Y-51578380D01*
X239685714Y-51530761D01*
X239638095Y-51483142D01*
%TO.C,SW35*%
X284215476Y-51530761D02*
X284358333Y-51578380D01*
X284596428Y-51578380D01*
X284691666Y-51530761D01*
X284739285Y-51483142D01*
X284786904Y-51387904D01*
X284786904Y-51292666D01*
X284739285Y-51197428D01*
X284691666Y-51149809D01*
X284596428Y-51102190D01*
X284405952Y-51054571D01*
X284310714Y-51006952D01*
X284263095Y-50959333D01*
X284215476Y-50864095D01*
X284215476Y-50768857D01*
X284263095Y-50673619D01*
X284310714Y-50626000D01*
X284405952Y-50578380D01*
X284644047Y-50578380D01*
X284786904Y-50626000D01*
X285120238Y-50578380D02*
X285358333Y-51578380D01*
X285548809Y-50864095D01*
X285739285Y-51578380D01*
X285977380Y-50578380D01*
X286263095Y-50578380D02*
X286882142Y-50578380D01*
X286548809Y-50959333D01*
X286691666Y-50959333D01*
X286786904Y-51006952D01*
X286834523Y-51054571D01*
X286882142Y-51149809D01*
X286882142Y-51387904D01*
X286834523Y-51483142D01*
X286786904Y-51530761D01*
X286691666Y-51578380D01*
X286405952Y-51578380D01*
X286310714Y-51530761D01*
X286263095Y-51483142D01*
X287786904Y-50578380D02*
X287310714Y-50578380D01*
X287263095Y-51054571D01*
X287310714Y-51006952D01*
X287405952Y-50959333D01*
X287644047Y-50959333D01*
X287739285Y-51006952D01*
X287786904Y-51054571D01*
X287834523Y-51149809D01*
X287834523Y-51387904D01*
X287786904Y-51483142D01*
X287739285Y-51530761D01*
X287644047Y-51578380D01*
X287405952Y-51578380D01*
X287310714Y-51530761D01*
X287263095Y-51483142D01*
%TO.C,SW70*%
X134540476Y-139554761D02*
X134683333Y-139602380D01*
X134921428Y-139602380D01*
X135016666Y-139554761D01*
X135064285Y-139507142D01*
X135111904Y-139411904D01*
X135111904Y-139316666D01*
X135064285Y-139221428D01*
X135016666Y-139173809D01*
X134921428Y-139126190D01*
X134730952Y-139078571D01*
X134635714Y-139030952D01*
X134588095Y-138983333D01*
X134540476Y-138888095D01*
X134540476Y-138792857D01*
X134588095Y-138697619D01*
X134635714Y-138650000D01*
X134730952Y-138602380D01*
X134969047Y-138602380D01*
X135111904Y-138650000D01*
X135445238Y-138602380D02*
X135683333Y-139602380D01*
X135873809Y-138888095D01*
X136064285Y-139602380D01*
X136302380Y-138602380D01*
X136588095Y-138602380D02*
X137254761Y-138602380D01*
X136826190Y-139602380D01*
X137826190Y-138602380D02*
X137921428Y-138602380D01*
X138016666Y-138650000D01*
X138064285Y-138697619D01*
X138111904Y-138792857D01*
X138159523Y-138983333D01*
X138159523Y-139221428D01*
X138111904Y-139411904D01*
X138064285Y-139507142D01*
X138016666Y-139554761D01*
X137921428Y-139602380D01*
X137826190Y-139602380D01*
X137730952Y-139554761D01*
X137683333Y-139507142D01*
X137635714Y-139411904D01*
X137588095Y-139221428D01*
X137588095Y-138983333D01*
X137635714Y-138792857D01*
X137683333Y-138697619D01*
X137730952Y-138650000D01*
X137826190Y-138602380D01*
%TO.C,SW41*%
X250878076Y-89630761D02*
X251020933Y-89678380D01*
X251259028Y-89678380D01*
X251354266Y-89630761D01*
X251401885Y-89583142D01*
X251449504Y-89487904D01*
X251449504Y-89392666D01*
X251401885Y-89297428D01*
X251354266Y-89249809D01*
X251259028Y-89202190D01*
X251068552Y-89154571D01*
X250973314Y-89106952D01*
X250925695Y-89059333D01*
X250878076Y-88964095D01*
X250878076Y-88868857D01*
X250925695Y-88773619D01*
X250973314Y-88726000D01*
X251068552Y-88678380D01*
X251306647Y-88678380D01*
X251449504Y-88726000D01*
X251782838Y-88678380D02*
X252020933Y-89678380D01*
X252211409Y-88964095D01*
X252401885Y-89678380D01*
X252639980Y-88678380D01*
X253449504Y-89011714D02*
X253449504Y-89678380D01*
X253211409Y-88630761D02*
X252973314Y-89345047D01*
X253592361Y-89345047D01*
X254497123Y-89678380D02*
X253925695Y-89678380D01*
X254211409Y-89678380D02*
X254211409Y-88678380D01*
X254116171Y-88821238D01*
X254020933Y-88916476D01*
X253925695Y-88964095D01*
%TO.C,SW54*%
X274687976Y-127730761D02*
X274830833Y-127778380D01*
X275068928Y-127778380D01*
X275164166Y-127730761D01*
X275211785Y-127683142D01*
X275259404Y-127587904D01*
X275259404Y-127492666D01*
X275211785Y-127397428D01*
X275164166Y-127349809D01*
X275068928Y-127302190D01*
X274878452Y-127254571D01*
X274783214Y-127206952D01*
X274735595Y-127159333D01*
X274687976Y-127064095D01*
X274687976Y-126968857D01*
X274735595Y-126873619D01*
X274783214Y-126826000D01*
X274878452Y-126778380D01*
X275116547Y-126778380D01*
X275259404Y-126826000D01*
X275592738Y-126778380D02*
X275830833Y-127778380D01*
X276021309Y-127064095D01*
X276211785Y-127778380D01*
X276449880Y-126778380D01*
X277307023Y-126778380D02*
X276830833Y-126778380D01*
X276783214Y-127254571D01*
X276830833Y-127206952D01*
X276926071Y-127159333D01*
X277164166Y-127159333D01*
X277259404Y-127206952D01*
X277307023Y-127254571D01*
X277354642Y-127349809D01*
X277354642Y-127587904D01*
X277307023Y-127683142D01*
X277259404Y-127730761D01*
X277164166Y-127778380D01*
X276926071Y-127778380D01*
X276830833Y-127730761D01*
X276783214Y-127683142D01*
X278211785Y-127111714D02*
X278211785Y-127778380D01*
X277973690Y-126730761D02*
X277735595Y-127445047D01*
X278354642Y-127445047D01*
%TO.C,SW13*%
X227065476Y-70580761D02*
X227208333Y-70628380D01*
X227446428Y-70628380D01*
X227541666Y-70580761D01*
X227589285Y-70533142D01*
X227636904Y-70437904D01*
X227636904Y-70342666D01*
X227589285Y-70247428D01*
X227541666Y-70199809D01*
X227446428Y-70152190D01*
X227255952Y-70104571D01*
X227160714Y-70056952D01*
X227113095Y-70009333D01*
X227065476Y-69914095D01*
X227065476Y-69818857D01*
X227113095Y-69723619D01*
X227160714Y-69676000D01*
X227255952Y-69628380D01*
X227494047Y-69628380D01*
X227636904Y-69676000D01*
X227970238Y-69628380D02*
X228208333Y-70628380D01*
X228398809Y-69914095D01*
X228589285Y-70628380D01*
X228827380Y-69628380D01*
X229732142Y-70628380D02*
X229160714Y-70628380D01*
X229446428Y-70628380D02*
X229446428Y-69628380D01*
X229351190Y-69771238D01*
X229255952Y-69866476D01*
X229160714Y-69914095D01*
X230065476Y-69628380D02*
X230684523Y-69628380D01*
X230351190Y-70009333D01*
X230494047Y-70009333D01*
X230589285Y-70056952D01*
X230636904Y-70104571D01*
X230684523Y-70199809D01*
X230684523Y-70437904D01*
X230636904Y-70533142D01*
X230589285Y-70580761D01*
X230494047Y-70628380D01*
X230208333Y-70628380D01*
X230113095Y-70580761D01*
X230065476Y-70533142D01*
%TO.C,SW63*%
X312787976Y-108680761D02*
X312930833Y-108728380D01*
X313168928Y-108728380D01*
X313264166Y-108680761D01*
X313311785Y-108633142D01*
X313359404Y-108537904D01*
X313359404Y-108442666D01*
X313311785Y-108347428D01*
X313264166Y-108299809D01*
X313168928Y-108252190D01*
X312978452Y-108204571D01*
X312883214Y-108156952D01*
X312835595Y-108109333D01*
X312787976Y-108014095D01*
X312787976Y-107918857D01*
X312835595Y-107823619D01*
X312883214Y-107776000D01*
X312978452Y-107728380D01*
X313216547Y-107728380D01*
X313359404Y-107776000D01*
X313692738Y-107728380D02*
X313930833Y-108728380D01*
X314121309Y-108014095D01*
X314311785Y-108728380D01*
X314549880Y-107728380D01*
X315359404Y-107728380D02*
X315168928Y-107728380D01*
X315073690Y-107776000D01*
X315026071Y-107823619D01*
X314930833Y-107966476D01*
X314883214Y-108156952D01*
X314883214Y-108537904D01*
X314930833Y-108633142D01*
X314978452Y-108680761D01*
X315073690Y-108728380D01*
X315264166Y-108728380D01*
X315359404Y-108680761D01*
X315407023Y-108633142D01*
X315454642Y-108537904D01*
X315454642Y-108299809D01*
X315407023Y-108204571D01*
X315359404Y-108156952D01*
X315264166Y-108109333D01*
X315073690Y-108109333D01*
X314978452Y-108156952D01*
X314930833Y-108204571D01*
X314883214Y-108299809D01*
X315787976Y-107728380D02*
X316407023Y-107728380D01*
X316073690Y-108109333D01*
X316216547Y-108109333D01*
X316311785Y-108156952D01*
X316359404Y-108204571D01*
X316407023Y-108299809D01*
X316407023Y-108537904D01*
X316359404Y-108633142D01*
X316311785Y-108680761D01*
X316216547Y-108728380D01*
X315930833Y-108728380D01*
X315835595Y-108680761D01*
X315787976Y-108633142D01*
%TO.C,SW44*%
X150865476Y-70580761D02*
X151008333Y-70628380D01*
X151246428Y-70628380D01*
X151341666Y-70580761D01*
X151389285Y-70533142D01*
X151436904Y-70437904D01*
X151436904Y-70342666D01*
X151389285Y-70247428D01*
X151341666Y-70199809D01*
X151246428Y-70152190D01*
X151055952Y-70104571D01*
X150960714Y-70056952D01*
X150913095Y-70009333D01*
X150865476Y-69914095D01*
X150865476Y-69818857D01*
X150913095Y-69723619D01*
X150960714Y-69676000D01*
X151055952Y-69628380D01*
X151294047Y-69628380D01*
X151436904Y-69676000D01*
X151770238Y-69628380D02*
X152008333Y-70628380D01*
X152198809Y-69914095D01*
X152389285Y-70628380D01*
X152627380Y-69628380D01*
X153436904Y-69961714D02*
X153436904Y-70628380D01*
X153198809Y-69580761D02*
X152960714Y-70295047D01*
X153579761Y-70295047D01*
X154389285Y-69961714D02*
X154389285Y-70628380D01*
X154151190Y-69580761D02*
X153913095Y-70295047D01*
X154532142Y-70295047D01*
%TO.C,SW16*%
X74665476Y-70580761D02*
X74808333Y-70628380D01*
X75046428Y-70628380D01*
X75141666Y-70580761D01*
X75189285Y-70533142D01*
X75236904Y-70437904D01*
X75236904Y-70342666D01*
X75189285Y-70247428D01*
X75141666Y-70199809D01*
X75046428Y-70152190D01*
X74855952Y-70104571D01*
X74760714Y-70056952D01*
X74713095Y-70009333D01*
X74665476Y-69914095D01*
X74665476Y-69818857D01*
X74713095Y-69723619D01*
X74760714Y-69676000D01*
X74855952Y-69628380D01*
X75094047Y-69628380D01*
X75236904Y-69676000D01*
X75570238Y-69628380D02*
X75808333Y-70628380D01*
X75998809Y-69914095D01*
X76189285Y-70628380D01*
X76427380Y-69628380D01*
X77332142Y-70628380D02*
X76760714Y-70628380D01*
X77046428Y-70628380D02*
X77046428Y-69628380D01*
X76951190Y-69771238D01*
X76855952Y-69866476D01*
X76760714Y-69914095D01*
X78189285Y-69628380D02*
X77998809Y-69628380D01*
X77903571Y-69676000D01*
X77855952Y-69723619D01*
X77760714Y-69866476D01*
X77713095Y-70056952D01*
X77713095Y-70437904D01*
X77760714Y-70533142D01*
X77808333Y-70580761D01*
X77903571Y-70628380D01*
X78094047Y-70628380D01*
X78189285Y-70580761D01*
X78236904Y-70533142D01*
X78284523Y-70437904D01*
X78284523Y-70199809D01*
X78236904Y-70104571D01*
X78189285Y-70056952D01*
X78094047Y-70009333D01*
X77903571Y-70009333D01*
X77808333Y-70056952D01*
X77760714Y-70104571D01*
X77713095Y-70199809D01*
%TO.C,SW12*%
X53232876Y-127730761D02*
X53375733Y-127778380D01*
X53613828Y-127778380D01*
X53709066Y-127730761D01*
X53756685Y-127683142D01*
X53804304Y-127587904D01*
X53804304Y-127492666D01*
X53756685Y-127397428D01*
X53709066Y-127349809D01*
X53613828Y-127302190D01*
X53423352Y-127254571D01*
X53328114Y-127206952D01*
X53280495Y-127159333D01*
X53232876Y-127064095D01*
X53232876Y-126968857D01*
X53280495Y-126873619D01*
X53328114Y-126826000D01*
X53423352Y-126778380D01*
X53661447Y-126778380D01*
X53804304Y-126826000D01*
X54137638Y-126778380D02*
X54375733Y-127778380D01*
X54566209Y-127064095D01*
X54756685Y-127778380D01*
X54994780Y-126778380D01*
X55899542Y-127778380D02*
X55328114Y-127778380D01*
X55613828Y-127778380D02*
X55613828Y-126778380D01*
X55518590Y-126921238D01*
X55423352Y-127016476D01*
X55328114Y-127064095D01*
X56280495Y-126873619D02*
X56328114Y-126826000D01*
X56423352Y-126778380D01*
X56661447Y-126778380D01*
X56756685Y-126826000D01*
X56804304Y-126873619D01*
X56851923Y-126968857D01*
X56851923Y-127064095D01*
X56804304Y-127206952D01*
X56232876Y-127778380D01*
X56851923Y-127778380D01*
%TO.C,SW17*%
X79428076Y-89630761D02*
X79570933Y-89678380D01*
X79809028Y-89678380D01*
X79904266Y-89630761D01*
X79951885Y-89583142D01*
X79999504Y-89487904D01*
X79999504Y-89392666D01*
X79951885Y-89297428D01*
X79904266Y-89249809D01*
X79809028Y-89202190D01*
X79618552Y-89154571D01*
X79523314Y-89106952D01*
X79475695Y-89059333D01*
X79428076Y-88964095D01*
X79428076Y-88868857D01*
X79475695Y-88773619D01*
X79523314Y-88726000D01*
X79618552Y-88678380D01*
X79856647Y-88678380D01*
X79999504Y-88726000D01*
X80332838Y-88678380D02*
X80570933Y-89678380D01*
X80761409Y-88964095D01*
X80951885Y-89678380D01*
X81189980Y-88678380D01*
X82094742Y-89678380D02*
X81523314Y-89678380D01*
X81809028Y-89678380D02*
X81809028Y-88678380D01*
X81713790Y-88821238D01*
X81618552Y-88916476D01*
X81523314Y-88964095D01*
X82428076Y-88678380D02*
X83094742Y-88678380D01*
X82666171Y-89678380D01*
%TO.C,SW19*%
X77043976Y-127730761D02*
X77186833Y-127778380D01*
X77424928Y-127778380D01*
X77520166Y-127730761D01*
X77567785Y-127683142D01*
X77615404Y-127587904D01*
X77615404Y-127492666D01*
X77567785Y-127397428D01*
X77520166Y-127349809D01*
X77424928Y-127302190D01*
X77234452Y-127254571D01*
X77139214Y-127206952D01*
X77091595Y-127159333D01*
X77043976Y-127064095D01*
X77043976Y-126968857D01*
X77091595Y-126873619D01*
X77139214Y-126826000D01*
X77234452Y-126778380D01*
X77472547Y-126778380D01*
X77615404Y-126826000D01*
X77948738Y-126778380D02*
X78186833Y-127778380D01*
X78377309Y-127064095D01*
X78567785Y-127778380D01*
X78805880Y-126778380D01*
X79710642Y-127778380D02*
X79139214Y-127778380D01*
X79424928Y-127778380D02*
X79424928Y-126778380D01*
X79329690Y-126921238D01*
X79234452Y-127016476D01*
X79139214Y-127064095D01*
X80186833Y-127778380D02*
X80377309Y-127778380D01*
X80472547Y-127730761D01*
X80520166Y-127683142D01*
X80615404Y-127540285D01*
X80663023Y-127349809D01*
X80663023Y-126968857D01*
X80615404Y-126873619D01*
X80567785Y-126826000D01*
X80472547Y-126778380D01*
X80282071Y-126778380D01*
X80186833Y-126826000D01*
X80139214Y-126873619D01*
X80091595Y-126968857D01*
X80091595Y-127206952D01*
X80139214Y-127302190D01*
X80186833Y-127349809D01*
X80282071Y-127397428D01*
X80472547Y-127397428D01*
X80567785Y-127349809D01*
X80615404Y-127302190D01*
X80663023Y-127206952D01*
%TO.C,SW11*%
X50853076Y-108680761D02*
X50995933Y-108728380D01*
X51234028Y-108728380D01*
X51329266Y-108680761D01*
X51376885Y-108633142D01*
X51424504Y-108537904D01*
X51424504Y-108442666D01*
X51376885Y-108347428D01*
X51329266Y-108299809D01*
X51234028Y-108252190D01*
X51043552Y-108204571D01*
X50948314Y-108156952D01*
X50900695Y-108109333D01*
X50853076Y-108014095D01*
X50853076Y-107918857D01*
X50900695Y-107823619D01*
X50948314Y-107776000D01*
X51043552Y-107728380D01*
X51281647Y-107728380D01*
X51424504Y-107776000D01*
X51757838Y-107728380D02*
X51995933Y-108728380D01*
X52186409Y-108014095D01*
X52376885Y-108728380D01*
X52614980Y-107728380D01*
X53519742Y-108728380D02*
X52948314Y-108728380D01*
X53234028Y-108728380D02*
X53234028Y-107728380D01*
X53138790Y-107871238D01*
X53043552Y-107966476D01*
X52948314Y-108014095D01*
X54472123Y-108728380D02*
X53900695Y-108728380D01*
X54186409Y-108728380D02*
X54186409Y-107728380D01*
X54091171Y-107871238D01*
X53995933Y-107966476D01*
X53900695Y-108014095D01*
%TO.C,C4*%
X119833333Y-126607142D02*
X119785714Y-126654761D01*
X119642857Y-126702380D01*
X119547619Y-126702380D01*
X119404761Y-126654761D01*
X119309523Y-126559523D01*
X119261904Y-126464285D01*
X119214285Y-126273809D01*
X119214285Y-126130952D01*
X119261904Y-125940476D01*
X119309523Y-125845238D01*
X119404761Y-125750000D01*
X119547619Y-125702380D01*
X119642857Y-125702380D01*
X119785714Y-125750000D01*
X119833333Y-125797619D01*
X120690476Y-126035714D02*
X120690476Y-126702380D01*
X120452380Y-125654761D02*
X120214285Y-126369047D01*
X120833333Y-126369047D01*
%TO.C,SW28*%
X291357476Y-80105761D02*
X291500333Y-80153380D01*
X291738428Y-80153380D01*
X291833666Y-80105761D01*
X291881285Y-80058142D01*
X291928904Y-79962904D01*
X291928904Y-79867666D01*
X291881285Y-79772428D01*
X291833666Y-79724809D01*
X291738428Y-79677190D01*
X291547952Y-79629571D01*
X291452714Y-79581952D01*
X291405095Y-79534333D01*
X291357476Y-79439095D01*
X291357476Y-79343857D01*
X291405095Y-79248619D01*
X291452714Y-79201000D01*
X291547952Y-79153380D01*
X291786047Y-79153380D01*
X291928904Y-79201000D01*
X292262238Y-79153380D02*
X292500333Y-80153380D01*
X292690809Y-79439095D01*
X292881285Y-80153380D01*
X293119380Y-79153380D01*
X293452714Y-79248619D02*
X293500333Y-79201000D01*
X293595571Y-79153380D01*
X293833666Y-79153380D01*
X293928904Y-79201000D01*
X293976523Y-79248619D01*
X294024142Y-79343857D01*
X294024142Y-79439095D01*
X293976523Y-79581952D01*
X293405095Y-80153380D01*
X294024142Y-80153380D01*
X294595571Y-79581952D02*
X294500333Y-79534333D01*
X294452714Y-79486714D01*
X294405095Y-79391476D01*
X294405095Y-79343857D01*
X294452714Y-79248619D01*
X294500333Y-79201000D01*
X294595571Y-79153380D01*
X294786047Y-79153380D01*
X294881285Y-79201000D01*
X294928904Y-79248619D01*
X294976523Y-79343857D01*
X294976523Y-79391476D01*
X294928904Y-79486714D01*
X294881285Y-79534333D01*
X294786047Y-79581952D01*
X294595571Y-79581952D01*
X294500333Y-79629571D01*
X294452714Y-79677190D01*
X294405095Y-79772428D01*
X294405095Y-79962904D01*
X294452714Y-80058142D01*
X294500333Y-80105761D01*
X294595571Y-80153380D01*
X294786047Y-80153380D01*
X294881285Y-80105761D01*
X294928904Y-80058142D01*
X294976523Y-79962904D01*
X294976523Y-79772428D01*
X294928904Y-79677190D01*
X294881285Y-79629571D01*
X294786047Y-79581952D01*
%TO.C,R1*%
X168333333Y-135702380D02*
X168000000Y-135226190D01*
X167761904Y-135702380D02*
X167761904Y-134702380D01*
X168142857Y-134702380D01*
X168238095Y-134750000D01*
X168285714Y-134797619D01*
X168333333Y-134892857D01*
X168333333Y-135035714D01*
X168285714Y-135130952D01*
X168238095Y-135178571D01*
X168142857Y-135226190D01*
X167761904Y-135226190D01*
X169285714Y-135702380D02*
X168714285Y-135702380D01*
X169000000Y-135702380D02*
X169000000Y-134702380D01*
X168904761Y-134845238D01*
X168809523Y-134940476D01*
X168714285Y-134988095D01*
%TO.C,D70*%
X174035714Y-135702380D02*
X174035714Y-134702380D01*
X174273809Y-134702380D01*
X174416666Y-134750000D01*
X174511904Y-134845238D01*
X174559523Y-134940476D01*
X174607142Y-135130952D01*
X174607142Y-135273809D01*
X174559523Y-135464285D01*
X174511904Y-135559523D01*
X174416666Y-135654761D01*
X174273809Y-135702380D01*
X174035714Y-135702380D01*
X174940476Y-134702380D02*
X175607142Y-134702380D01*
X175178571Y-135702380D01*
X176178571Y-134702380D02*
X176273809Y-134702380D01*
X176369047Y-134750000D01*
X176416666Y-134797619D01*
X176464285Y-134892857D01*
X176511904Y-135083333D01*
X176511904Y-135321428D01*
X176464285Y-135511904D01*
X176416666Y-135607142D01*
X176369047Y-135654761D01*
X176273809Y-135702380D01*
X176178571Y-135702380D01*
X176083333Y-135654761D01*
X176035714Y-135607142D01*
X175988095Y-135511904D01*
X175940476Y-135321428D01*
X175940476Y-135083333D01*
X175988095Y-134892857D01*
X176035714Y-134797619D01*
X176083333Y-134750000D01*
X176178571Y-134702380D01*
%TO.C,SW50*%
X160390476Y-51530761D02*
X160533333Y-51578380D01*
X160771428Y-51578380D01*
X160866666Y-51530761D01*
X160914285Y-51483142D01*
X160961904Y-51387904D01*
X160961904Y-51292666D01*
X160914285Y-51197428D01*
X160866666Y-51149809D01*
X160771428Y-51102190D01*
X160580952Y-51054571D01*
X160485714Y-51006952D01*
X160438095Y-50959333D01*
X160390476Y-50864095D01*
X160390476Y-50768857D01*
X160438095Y-50673619D01*
X160485714Y-50626000D01*
X160580952Y-50578380D01*
X160819047Y-50578380D01*
X160961904Y-50626000D01*
X161295238Y-50578380D02*
X161533333Y-51578380D01*
X161723809Y-50864095D01*
X161914285Y-51578380D01*
X162152380Y-50578380D01*
X163009523Y-50578380D02*
X162533333Y-50578380D01*
X162485714Y-51054571D01*
X162533333Y-51006952D01*
X162628571Y-50959333D01*
X162866666Y-50959333D01*
X162961904Y-51006952D01*
X163009523Y-51054571D01*
X163057142Y-51149809D01*
X163057142Y-51387904D01*
X163009523Y-51483142D01*
X162961904Y-51530761D01*
X162866666Y-51578380D01*
X162628571Y-51578380D01*
X162533333Y-51530761D01*
X162485714Y-51483142D01*
X163676190Y-50578380D02*
X163771428Y-50578380D01*
X163866666Y-50626000D01*
X163914285Y-50673619D01*
X163961904Y-50768857D01*
X164009523Y-50959333D01*
X164009523Y-51197428D01*
X163961904Y-51387904D01*
X163914285Y-51483142D01*
X163866666Y-51530761D01*
X163771428Y-51578380D01*
X163676190Y-51578380D01*
X163580952Y-51530761D01*
X163533333Y-51483142D01*
X163485714Y-51387904D01*
X163438095Y-51197428D01*
X163438095Y-50959333D01*
X163485714Y-50768857D01*
X163533333Y-50673619D01*
X163580952Y-50626000D01*
X163676190Y-50578380D01*
%TO.C,SW42*%
X312787976Y-51530761D02*
X312930833Y-51578380D01*
X313168928Y-51578380D01*
X313264166Y-51530761D01*
X313311785Y-51483142D01*
X313359404Y-51387904D01*
X313359404Y-51292666D01*
X313311785Y-51197428D01*
X313264166Y-51149809D01*
X313168928Y-51102190D01*
X312978452Y-51054571D01*
X312883214Y-51006952D01*
X312835595Y-50959333D01*
X312787976Y-50864095D01*
X312787976Y-50768857D01*
X312835595Y-50673619D01*
X312883214Y-50626000D01*
X312978452Y-50578380D01*
X313216547Y-50578380D01*
X313359404Y-50626000D01*
X313692738Y-50578380D02*
X313930833Y-51578380D01*
X314121309Y-50864095D01*
X314311785Y-51578380D01*
X314549880Y-50578380D01*
X315359404Y-50911714D02*
X315359404Y-51578380D01*
X315121309Y-50530761D02*
X314883214Y-51245047D01*
X315502261Y-51245047D01*
X315835595Y-50673619D02*
X315883214Y-50626000D01*
X315978452Y-50578380D01*
X316216547Y-50578380D01*
X316311785Y-50626000D01*
X316359404Y-50673619D01*
X316407023Y-50768857D01*
X316407023Y-50864095D01*
X316359404Y-51006952D01*
X315787976Y-51578380D01*
X316407023Y-51578380D01*
%TO.C,SW60*%
X184203076Y-108680761D02*
X184345933Y-108728380D01*
X184584028Y-108728380D01*
X184679266Y-108680761D01*
X184726885Y-108633142D01*
X184774504Y-108537904D01*
X184774504Y-108442666D01*
X184726885Y-108347428D01*
X184679266Y-108299809D01*
X184584028Y-108252190D01*
X184393552Y-108204571D01*
X184298314Y-108156952D01*
X184250695Y-108109333D01*
X184203076Y-108014095D01*
X184203076Y-107918857D01*
X184250695Y-107823619D01*
X184298314Y-107776000D01*
X184393552Y-107728380D01*
X184631647Y-107728380D01*
X184774504Y-107776000D01*
X185107838Y-107728380D02*
X185345933Y-108728380D01*
X185536409Y-108014095D01*
X185726885Y-108728380D01*
X185964980Y-107728380D01*
X186774504Y-107728380D02*
X186584028Y-107728380D01*
X186488790Y-107776000D01*
X186441171Y-107823619D01*
X186345933Y-107966476D01*
X186298314Y-108156952D01*
X186298314Y-108537904D01*
X186345933Y-108633142D01*
X186393552Y-108680761D01*
X186488790Y-108728380D01*
X186679266Y-108728380D01*
X186774504Y-108680761D01*
X186822123Y-108633142D01*
X186869742Y-108537904D01*
X186869742Y-108299809D01*
X186822123Y-108204571D01*
X186774504Y-108156952D01*
X186679266Y-108109333D01*
X186488790Y-108109333D01*
X186393552Y-108156952D01*
X186345933Y-108204571D01*
X186298314Y-108299809D01*
X187488790Y-107728380D02*
X187584028Y-107728380D01*
X187679266Y-107776000D01*
X187726885Y-107823619D01*
X187774504Y-107918857D01*
X187822123Y-108109333D01*
X187822123Y-108347428D01*
X187774504Y-108537904D01*
X187726885Y-108633142D01*
X187679266Y-108680761D01*
X187584028Y-108728380D01*
X187488790Y-108728380D01*
X187393552Y-108680761D01*
X187345933Y-108633142D01*
X187298314Y-108537904D01*
X187250695Y-108347428D01*
X187250695Y-108109333D01*
X187298314Y-107918857D01*
X187345933Y-107823619D01*
X187393552Y-107776000D01*
X187488790Y-107728380D01*
%TO.C,SW24*%
X98478076Y-89630761D02*
X98620933Y-89678380D01*
X98859028Y-89678380D01*
X98954266Y-89630761D01*
X99001885Y-89583142D01*
X99049504Y-89487904D01*
X99049504Y-89392666D01*
X99001885Y-89297428D01*
X98954266Y-89249809D01*
X98859028Y-89202190D01*
X98668552Y-89154571D01*
X98573314Y-89106952D01*
X98525695Y-89059333D01*
X98478076Y-88964095D01*
X98478076Y-88868857D01*
X98525695Y-88773619D01*
X98573314Y-88726000D01*
X98668552Y-88678380D01*
X98906647Y-88678380D01*
X99049504Y-88726000D01*
X99382838Y-88678380D02*
X99620933Y-89678380D01*
X99811409Y-88964095D01*
X100001885Y-89678380D01*
X100239980Y-88678380D01*
X100573314Y-88773619D02*
X100620933Y-88726000D01*
X100716171Y-88678380D01*
X100954266Y-88678380D01*
X101049504Y-88726000D01*
X101097123Y-88773619D01*
X101144742Y-88868857D01*
X101144742Y-88964095D01*
X101097123Y-89106952D01*
X100525695Y-89678380D01*
X101144742Y-89678380D01*
X102001885Y-89011714D02*
X102001885Y-89678380D01*
X101763790Y-88630761D02*
X101525695Y-89345047D01*
X102144742Y-89345047D01*
%TO.C,SW45*%
X155628076Y-89630761D02*
X155770933Y-89678380D01*
X156009028Y-89678380D01*
X156104266Y-89630761D01*
X156151885Y-89583142D01*
X156199504Y-89487904D01*
X156199504Y-89392666D01*
X156151885Y-89297428D01*
X156104266Y-89249809D01*
X156009028Y-89202190D01*
X155818552Y-89154571D01*
X155723314Y-89106952D01*
X155675695Y-89059333D01*
X155628076Y-88964095D01*
X155628076Y-88868857D01*
X155675695Y-88773619D01*
X155723314Y-88726000D01*
X155818552Y-88678380D01*
X156056647Y-88678380D01*
X156199504Y-88726000D01*
X156532838Y-88678380D02*
X156770933Y-89678380D01*
X156961409Y-88964095D01*
X157151885Y-89678380D01*
X157389980Y-88678380D01*
X158199504Y-89011714D02*
X158199504Y-89678380D01*
X157961409Y-88630761D02*
X157723314Y-89345047D01*
X158342361Y-89345047D01*
X159199504Y-88678380D02*
X158723314Y-88678380D01*
X158675695Y-89154571D01*
X158723314Y-89106952D01*
X158818552Y-89059333D01*
X159056647Y-89059333D01*
X159151885Y-89106952D01*
X159199504Y-89154571D01*
X159247123Y-89249809D01*
X159247123Y-89487904D01*
X159199504Y-89583142D01*
X159151885Y-89630761D01*
X159056647Y-89678380D01*
X158818552Y-89678380D01*
X158723314Y-89630761D01*
X158675695Y-89583142D01*
%TO.C,SW37*%
X131815476Y-70580761D02*
X131958333Y-70628380D01*
X132196428Y-70628380D01*
X132291666Y-70580761D01*
X132339285Y-70533142D01*
X132386904Y-70437904D01*
X132386904Y-70342666D01*
X132339285Y-70247428D01*
X132291666Y-70199809D01*
X132196428Y-70152190D01*
X132005952Y-70104571D01*
X131910714Y-70056952D01*
X131863095Y-70009333D01*
X131815476Y-69914095D01*
X131815476Y-69818857D01*
X131863095Y-69723619D01*
X131910714Y-69676000D01*
X132005952Y-69628380D01*
X132244047Y-69628380D01*
X132386904Y-69676000D01*
X132720238Y-69628380D02*
X132958333Y-70628380D01*
X133148809Y-69914095D01*
X133339285Y-70628380D01*
X133577380Y-69628380D01*
X133863095Y-69628380D02*
X134482142Y-69628380D01*
X134148809Y-70009333D01*
X134291666Y-70009333D01*
X134386904Y-70056952D01*
X134434523Y-70104571D01*
X134482142Y-70199809D01*
X134482142Y-70437904D01*
X134434523Y-70533142D01*
X134386904Y-70580761D01*
X134291666Y-70628380D01*
X134005952Y-70628380D01*
X133910714Y-70580761D01*
X133863095Y-70533142D01*
X134815476Y-69628380D02*
X135482142Y-69628380D01*
X135053571Y-70628380D01*
%TO.C,SW49*%
X312787976Y-70580761D02*
X312930833Y-70628380D01*
X313168928Y-70628380D01*
X313264166Y-70580761D01*
X313311785Y-70533142D01*
X313359404Y-70437904D01*
X313359404Y-70342666D01*
X313311785Y-70247428D01*
X313264166Y-70199809D01*
X313168928Y-70152190D01*
X312978452Y-70104571D01*
X312883214Y-70056952D01*
X312835595Y-70009333D01*
X312787976Y-69914095D01*
X312787976Y-69818857D01*
X312835595Y-69723619D01*
X312883214Y-69676000D01*
X312978452Y-69628380D01*
X313216547Y-69628380D01*
X313359404Y-69676000D01*
X313692738Y-69628380D02*
X313930833Y-70628380D01*
X314121309Y-69914095D01*
X314311785Y-70628380D01*
X314549880Y-69628380D01*
X315359404Y-69961714D02*
X315359404Y-70628380D01*
X315121309Y-69580761D02*
X314883214Y-70295047D01*
X315502261Y-70295047D01*
X315930833Y-70628380D02*
X316121309Y-70628380D01*
X316216547Y-70580761D01*
X316264166Y-70533142D01*
X316359404Y-70390285D01*
X316407023Y-70199809D01*
X316407023Y-69818857D01*
X316359404Y-69723619D01*
X316311785Y-69676000D01*
X316216547Y-69628380D01*
X316026071Y-69628380D01*
X315930833Y-69676000D01*
X315883214Y-69723619D01*
X315835595Y-69818857D01*
X315835595Y-70056952D01*
X315883214Y-70152190D01*
X315930833Y-70199809D01*
X316026071Y-70247428D01*
X316216547Y-70247428D01*
X316311785Y-70199809D01*
X316359404Y-70152190D01*
X316407023Y-70056952D01*
%TO.C,SW29*%
X103240476Y-51530761D02*
X103383333Y-51578380D01*
X103621428Y-51578380D01*
X103716666Y-51530761D01*
X103764285Y-51483142D01*
X103811904Y-51387904D01*
X103811904Y-51292666D01*
X103764285Y-51197428D01*
X103716666Y-51149809D01*
X103621428Y-51102190D01*
X103430952Y-51054571D01*
X103335714Y-51006952D01*
X103288095Y-50959333D01*
X103240476Y-50864095D01*
X103240476Y-50768857D01*
X103288095Y-50673619D01*
X103335714Y-50626000D01*
X103430952Y-50578380D01*
X103669047Y-50578380D01*
X103811904Y-50626000D01*
X104145238Y-50578380D02*
X104383333Y-51578380D01*
X104573809Y-50864095D01*
X104764285Y-51578380D01*
X105002380Y-50578380D01*
X105335714Y-50673619D02*
X105383333Y-50626000D01*
X105478571Y-50578380D01*
X105716666Y-50578380D01*
X105811904Y-50626000D01*
X105859523Y-50673619D01*
X105907142Y-50768857D01*
X105907142Y-50864095D01*
X105859523Y-51006952D01*
X105288095Y-51578380D01*
X105907142Y-51578380D01*
X106383333Y-51578380D02*
X106573809Y-51578380D01*
X106669047Y-51530761D01*
X106716666Y-51483142D01*
X106811904Y-51340285D01*
X106859523Y-51149809D01*
X106859523Y-50768857D01*
X106811904Y-50673619D01*
X106764285Y-50626000D01*
X106669047Y-50578380D01*
X106478571Y-50578380D01*
X106383333Y-50626000D01*
X106335714Y-50673619D01*
X106288095Y-50768857D01*
X106288095Y-51006952D01*
X106335714Y-51102190D01*
X106383333Y-51149809D01*
X106478571Y-51197428D01*
X106669047Y-51197428D01*
X106764285Y-51149809D01*
X106811904Y-51102190D01*
X106859523Y-51006952D01*
%TO.C,SW10*%
X60378076Y-89630761D02*
X60520933Y-89678380D01*
X60759028Y-89678380D01*
X60854266Y-89630761D01*
X60901885Y-89583142D01*
X60949504Y-89487904D01*
X60949504Y-89392666D01*
X60901885Y-89297428D01*
X60854266Y-89249809D01*
X60759028Y-89202190D01*
X60568552Y-89154571D01*
X60473314Y-89106952D01*
X60425695Y-89059333D01*
X60378076Y-88964095D01*
X60378076Y-88868857D01*
X60425695Y-88773619D01*
X60473314Y-88726000D01*
X60568552Y-88678380D01*
X60806647Y-88678380D01*
X60949504Y-88726000D01*
X61282838Y-88678380D02*
X61520933Y-89678380D01*
X61711409Y-88964095D01*
X61901885Y-89678380D01*
X62139980Y-88678380D01*
X63044742Y-89678380D02*
X62473314Y-89678380D01*
X62759028Y-89678380D02*
X62759028Y-88678380D01*
X62663790Y-88821238D01*
X62568552Y-88916476D01*
X62473314Y-88964095D01*
X63663790Y-88678380D02*
X63759028Y-88678380D01*
X63854266Y-88726000D01*
X63901885Y-88773619D01*
X63949504Y-88868857D01*
X63997123Y-89059333D01*
X63997123Y-89297428D01*
X63949504Y-89487904D01*
X63901885Y-89583142D01*
X63854266Y-89630761D01*
X63759028Y-89678380D01*
X63663790Y-89678380D01*
X63568552Y-89630761D01*
X63520933Y-89583142D01*
X63473314Y-89487904D01*
X63425695Y-89297428D01*
X63425695Y-89059333D01*
X63473314Y-88868857D01*
X63520933Y-88773619D01*
X63568552Y-88726000D01*
X63663790Y-88678380D01*
%TO.C,SW30*%
X112765476Y-70580761D02*
X112908333Y-70628380D01*
X113146428Y-70628380D01*
X113241666Y-70580761D01*
X113289285Y-70533142D01*
X113336904Y-70437904D01*
X113336904Y-70342666D01*
X113289285Y-70247428D01*
X113241666Y-70199809D01*
X113146428Y-70152190D01*
X112955952Y-70104571D01*
X112860714Y-70056952D01*
X112813095Y-70009333D01*
X112765476Y-69914095D01*
X112765476Y-69818857D01*
X112813095Y-69723619D01*
X112860714Y-69676000D01*
X112955952Y-69628380D01*
X113194047Y-69628380D01*
X113336904Y-69676000D01*
X113670238Y-69628380D02*
X113908333Y-70628380D01*
X114098809Y-69914095D01*
X114289285Y-70628380D01*
X114527380Y-69628380D01*
X114813095Y-69628380D02*
X115432142Y-69628380D01*
X115098809Y-70009333D01*
X115241666Y-70009333D01*
X115336904Y-70056952D01*
X115384523Y-70104571D01*
X115432142Y-70199809D01*
X115432142Y-70437904D01*
X115384523Y-70533142D01*
X115336904Y-70580761D01*
X115241666Y-70628380D01*
X114955952Y-70628380D01*
X114860714Y-70580761D01*
X114813095Y-70533142D01*
X116051190Y-69628380D02*
X116146428Y-69628380D01*
X116241666Y-69676000D01*
X116289285Y-69723619D01*
X116336904Y-69818857D01*
X116384523Y-70009333D01*
X116384523Y-70247428D01*
X116336904Y-70437904D01*
X116289285Y-70533142D01*
X116241666Y-70580761D01*
X116146428Y-70628380D01*
X116051190Y-70628380D01*
X115955952Y-70580761D01*
X115908333Y-70533142D01*
X115860714Y-70437904D01*
X115813095Y-70247428D01*
X115813095Y-70009333D01*
X115860714Y-69818857D01*
X115908333Y-69723619D01*
X115955952Y-69676000D01*
X116051190Y-69628380D01*
%TO.C,SW15*%
X65140476Y-51530761D02*
X65283333Y-51578380D01*
X65521428Y-51578380D01*
X65616666Y-51530761D01*
X65664285Y-51483142D01*
X65711904Y-51387904D01*
X65711904Y-51292666D01*
X65664285Y-51197428D01*
X65616666Y-51149809D01*
X65521428Y-51102190D01*
X65330952Y-51054571D01*
X65235714Y-51006952D01*
X65188095Y-50959333D01*
X65140476Y-50864095D01*
X65140476Y-50768857D01*
X65188095Y-50673619D01*
X65235714Y-50626000D01*
X65330952Y-50578380D01*
X65569047Y-50578380D01*
X65711904Y-50626000D01*
X66045238Y-50578380D02*
X66283333Y-51578380D01*
X66473809Y-50864095D01*
X66664285Y-51578380D01*
X66902380Y-50578380D01*
X67807142Y-51578380D02*
X67235714Y-51578380D01*
X67521428Y-51578380D02*
X67521428Y-50578380D01*
X67426190Y-50721238D01*
X67330952Y-50816476D01*
X67235714Y-50864095D01*
X68711904Y-50578380D02*
X68235714Y-50578380D01*
X68188095Y-51054571D01*
X68235714Y-51006952D01*
X68330952Y-50959333D01*
X68569047Y-50959333D01*
X68664285Y-51006952D01*
X68711904Y-51054571D01*
X68759523Y-51149809D01*
X68759523Y-51387904D01*
X68711904Y-51483142D01*
X68664285Y-51530761D01*
X68569047Y-51578380D01*
X68330952Y-51578380D01*
X68235714Y-51530761D01*
X68188095Y-51483142D01*
%TO.C,SW31*%
X117528076Y-89630761D02*
X117670933Y-89678380D01*
X117909028Y-89678380D01*
X118004266Y-89630761D01*
X118051885Y-89583142D01*
X118099504Y-89487904D01*
X118099504Y-89392666D01*
X118051885Y-89297428D01*
X118004266Y-89249809D01*
X117909028Y-89202190D01*
X117718552Y-89154571D01*
X117623314Y-89106952D01*
X117575695Y-89059333D01*
X117528076Y-88964095D01*
X117528076Y-88868857D01*
X117575695Y-88773619D01*
X117623314Y-88726000D01*
X117718552Y-88678380D01*
X117956647Y-88678380D01*
X118099504Y-88726000D01*
X118432838Y-88678380D02*
X118670933Y-89678380D01*
X118861409Y-88964095D01*
X119051885Y-89678380D01*
X119289980Y-88678380D01*
X119575695Y-88678380D02*
X120194742Y-88678380D01*
X119861409Y-89059333D01*
X120004266Y-89059333D01*
X120099504Y-89106952D01*
X120147123Y-89154571D01*
X120194742Y-89249809D01*
X120194742Y-89487904D01*
X120147123Y-89583142D01*
X120099504Y-89630761D01*
X120004266Y-89678380D01*
X119718552Y-89678380D01*
X119623314Y-89630761D01*
X119575695Y-89583142D01*
X121147123Y-89678380D02*
X120575695Y-89678380D01*
X120861409Y-89678380D02*
X120861409Y-88678380D01*
X120766171Y-88821238D01*
X120670933Y-88916476D01*
X120575695Y-88964095D01*
%TO.C,SW4*%
X29897966Y-108680761D02*
X30040823Y-108728380D01*
X30278919Y-108728380D01*
X30374157Y-108680761D01*
X30421776Y-108633142D01*
X30469395Y-108537904D01*
X30469395Y-108442666D01*
X30421776Y-108347428D01*
X30374157Y-108299809D01*
X30278919Y-108252190D01*
X30088442Y-108204571D01*
X29993204Y-108156952D01*
X29945585Y-108109333D01*
X29897966Y-108014095D01*
X29897966Y-107918857D01*
X29945585Y-107823619D01*
X29993204Y-107776000D01*
X30088442Y-107728380D01*
X30326538Y-107728380D01*
X30469395Y-107776000D01*
X30802728Y-107728380D02*
X31040823Y-108728380D01*
X31231300Y-108014095D01*
X31421776Y-108728380D01*
X31659871Y-107728380D01*
X32469395Y-108061714D02*
X32469395Y-108728380D01*
X32231300Y-107680761D02*
X31993204Y-108395047D01*
X32612252Y-108395047D01*
%TO.C,SW61*%
X293737976Y-127730761D02*
X293880833Y-127778380D01*
X294118928Y-127778380D01*
X294214166Y-127730761D01*
X294261785Y-127683142D01*
X294309404Y-127587904D01*
X294309404Y-127492666D01*
X294261785Y-127397428D01*
X294214166Y-127349809D01*
X294118928Y-127302190D01*
X293928452Y-127254571D01*
X293833214Y-127206952D01*
X293785595Y-127159333D01*
X293737976Y-127064095D01*
X293737976Y-126968857D01*
X293785595Y-126873619D01*
X293833214Y-126826000D01*
X293928452Y-126778380D01*
X294166547Y-126778380D01*
X294309404Y-126826000D01*
X294642738Y-126778380D02*
X294880833Y-127778380D01*
X295071309Y-127064095D01*
X295261785Y-127778380D01*
X295499880Y-126778380D01*
X296309404Y-126778380D02*
X296118928Y-126778380D01*
X296023690Y-126826000D01*
X295976071Y-126873619D01*
X295880833Y-127016476D01*
X295833214Y-127206952D01*
X295833214Y-127587904D01*
X295880833Y-127683142D01*
X295928452Y-127730761D01*
X296023690Y-127778380D01*
X296214166Y-127778380D01*
X296309404Y-127730761D01*
X296357023Y-127683142D01*
X296404642Y-127587904D01*
X296404642Y-127349809D01*
X296357023Y-127254571D01*
X296309404Y-127206952D01*
X296214166Y-127159333D01*
X296023690Y-127159333D01*
X295928452Y-127206952D01*
X295880833Y-127254571D01*
X295833214Y-127349809D01*
X297357023Y-127778380D02*
X296785595Y-127778380D01*
X297071309Y-127778380D02*
X297071309Y-126778380D01*
X296976071Y-126921238D01*
X296880833Y-127016476D01*
X296785595Y-127064095D01*
%TO.C,R2*%
X130833333Y-138452380D02*
X130500000Y-137976190D01*
X130261904Y-138452380D02*
X130261904Y-137452380D01*
X130642857Y-137452380D01*
X130738095Y-137500000D01*
X130785714Y-137547619D01*
X130833333Y-137642857D01*
X130833333Y-137785714D01*
X130785714Y-137880952D01*
X130738095Y-137928571D01*
X130642857Y-137976190D01*
X130261904Y-137976190D01*
X131214285Y-137547619D02*
X131261904Y-137500000D01*
X131357142Y-137452380D01*
X131595238Y-137452380D01*
X131690476Y-137500000D01*
X131738095Y-137547619D01*
X131785714Y-137642857D01*
X131785714Y-137738095D01*
X131738095Y-137880952D01*
X131166666Y-138452380D01*
X131785714Y-138452380D01*
%TO.C,SW58*%
X188965476Y-70580761D02*
X189108333Y-70628380D01*
X189346428Y-70628380D01*
X189441666Y-70580761D01*
X189489285Y-70533142D01*
X189536904Y-70437904D01*
X189536904Y-70342666D01*
X189489285Y-70247428D01*
X189441666Y-70199809D01*
X189346428Y-70152190D01*
X189155952Y-70104571D01*
X189060714Y-70056952D01*
X189013095Y-70009333D01*
X188965476Y-69914095D01*
X188965476Y-69818857D01*
X189013095Y-69723619D01*
X189060714Y-69676000D01*
X189155952Y-69628380D01*
X189394047Y-69628380D01*
X189536904Y-69676000D01*
X189870238Y-69628380D02*
X190108333Y-70628380D01*
X190298809Y-69914095D01*
X190489285Y-70628380D01*
X190727380Y-69628380D01*
X191584523Y-69628380D02*
X191108333Y-69628380D01*
X191060714Y-70104571D01*
X191108333Y-70056952D01*
X191203571Y-70009333D01*
X191441666Y-70009333D01*
X191536904Y-70056952D01*
X191584523Y-70104571D01*
X191632142Y-70199809D01*
X191632142Y-70437904D01*
X191584523Y-70533142D01*
X191536904Y-70580761D01*
X191441666Y-70628380D01*
X191203571Y-70628380D01*
X191108333Y-70580761D01*
X191060714Y-70533142D01*
X192203571Y-70056952D02*
X192108333Y-70009333D01*
X192060714Y-69961714D01*
X192013095Y-69866476D01*
X192013095Y-69818857D01*
X192060714Y-69723619D01*
X192108333Y-69676000D01*
X192203571Y-69628380D01*
X192394047Y-69628380D01*
X192489285Y-69676000D01*
X192536904Y-69723619D01*
X192584523Y-69818857D01*
X192584523Y-69866476D01*
X192536904Y-69961714D01*
X192489285Y-70009333D01*
X192394047Y-70056952D01*
X192203571Y-70056952D01*
X192108333Y-70104571D01*
X192060714Y-70152190D01*
X192013095Y-70247428D01*
X192013095Y-70437904D01*
X192060714Y-70533142D01*
X192108333Y-70580761D01*
X192203571Y-70628380D01*
X192394047Y-70628380D01*
X192489285Y-70580761D01*
X192536904Y-70533142D01*
X192584523Y-70437904D01*
X192584523Y-70247428D01*
X192536904Y-70152190D01*
X192489285Y-70104571D01*
X192394047Y-70056952D01*
%TO.C,C3*%
X108583333Y-137607142D02*
X108535714Y-137654761D01*
X108392857Y-137702380D01*
X108297619Y-137702380D01*
X108154761Y-137654761D01*
X108059523Y-137559523D01*
X108011904Y-137464285D01*
X107964285Y-137273809D01*
X107964285Y-137130952D01*
X108011904Y-136940476D01*
X108059523Y-136845238D01*
X108154761Y-136750000D01*
X108297619Y-136702380D01*
X108392857Y-136702380D01*
X108535714Y-136750000D01*
X108583333Y-136797619D01*
X108916666Y-136702380D02*
X109535714Y-136702380D01*
X109202380Y-137083333D01*
X109345238Y-137083333D01*
X109440476Y-137130952D01*
X109488095Y-137178571D01*
X109535714Y-137273809D01*
X109535714Y-137511904D01*
X109488095Y-137607142D01*
X109440476Y-137654761D01*
X109345238Y-137702380D01*
X109059523Y-137702380D01*
X108964285Y-137654761D01*
X108916666Y-137607142D01*
%TO.C,SW40*%
X236587976Y-127730761D02*
X236730833Y-127778380D01*
X236968928Y-127778380D01*
X237064166Y-127730761D01*
X237111785Y-127683142D01*
X237159404Y-127587904D01*
X237159404Y-127492666D01*
X237111785Y-127397428D01*
X237064166Y-127349809D01*
X236968928Y-127302190D01*
X236778452Y-127254571D01*
X236683214Y-127206952D01*
X236635595Y-127159333D01*
X236587976Y-127064095D01*
X236587976Y-126968857D01*
X236635595Y-126873619D01*
X236683214Y-126826000D01*
X236778452Y-126778380D01*
X237016547Y-126778380D01*
X237159404Y-126826000D01*
X237492738Y-126778380D02*
X237730833Y-127778380D01*
X237921309Y-127064095D01*
X238111785Y-127778380D01*
X238349880Y-126778380D01*
X239159404Y-127111714D02*
X239159404Y-127778380D01*
X238921309Y-126730761D02*
X238683214Y-127445047D01*
X239302261Y-127445047D01*
X239873690Y-126778380D02*
X239968928Y-126778380D01*
X240064166Y-126826000D01*
X240111785Y-126873619D01*
X240159404Y-126968857D01*
X240207023Y-127159333D01*
X240207023Y-127397428D01*
X240159404Y-127587904D01*
X240111785Y-127683142D01*
X240064166Y-127730761D01*
X239968928Y-127778380D01*
X239873690Y-127778380D01*
X239778452Y-127730761D01*
X239730833Y-127683142D01*
X239683214Y-127587904D01*
X239635595Y-127397428D01*
X239635595Y-127159333D01*
X239683214Y-126968857D01*
X239730833Y-126873619D01*
X239778452Y-126826000D01*
X239873690Y-126778380D01*
%TO.C,SW21*%
X293741076Y-108680761D02*
X293883933Y-108728380D01*
X294122028Y-108728380D01*
X294217266Y-108680761D01*
X294264885Y-108633142D01*
X294312504Y-108537904D01*
X294312504Y-108442666D01*
X294264885Y-108347428D01*
X294217266Y-108299809D01*
X294122028Y-108252190D01*
X293931552Y-108204571D01*
X293836314Y-108156952D01*
X293788695Y-108109333D01*
X293741076Y-108014095D01*
X293741076Y-107918857D01*
X293788695Y-107823619D01*
X293836314Y-107776000D01*
X293931552Y-107728380D01*
X294169647Y-107728380D01*
X294312504Y-107776000D01*
X294645838Y-107728380D02*
X294883933Y-108728380D01*
X295074409Y-108014095D01*
X295264885Y-108728380D01*
X295502980Y-107728380D01*
X295836314Y-107823619D02*
X295883933Y-107776000D01*
X295979171Y-107728380D01*
X296217266Y-107728380D01*
X296312504Y-107776000D01*
X296360123Y-107823619D01*
X296407742Y-107918857D01*
X296407742Y-108014095D01*
X296360123Y-108156952D01*
X295788695Y-108728380D01*
X296407742Y-108728380D01*
X297360123Y-108728380D02*
X296788695Y-108728380D01*
X297074409Y-108728380D02*
X297074409Y-107728380D01*
X296979171Y-107871238D01*
X296883933Y-107966476D01*
X296788695Y-108014095D01*
%TO.C,SW56*%
X312787976Y-89630761D02*
X312930833Y-89678380D01*
X313168928Y-89678380D01*
X313264166Y-89630761D01*
X313311785Y-89583142D01*
X313359404Y-89487904D01*
X313359404Y-89392666D01*
X313311785Y-89297428D01*
X313264166Y-89249809D01*
X313168928Y-89202190D01*
X312978452Y-89154571D01*
X312883214Y-89106952D01*
X312835595Y-89059333D01*
X312787976Y-88964095D01*
X312787976Y-88868857D01*
X312835595Y-88773619D01*
X312883214Y-88726000D01*
X312978452Y-88678380D01*
X313216547Y-88678380D01*
X313359404Y-88726000D01*
X313692738Y-88678380D02*
X313930833Y-89678380D01*
X314121309Y-88964095D01*
X314311785Y-89678380D01*
X314549880Y-88678380D01*
X315407023Y-88678380D02*
X314930833Y-88678380D01*
X314883214Y-89154571D01*
X314930833Y-89106952D01*
X315026071Y-89059333D01*
X315264166Y-89059333D01*
X315359404Y-89106952D01*
X315407023Y-89154571D01*
X315454642Y-89249809D01*
X315454642Y-89487904D01*
X315407023Y-89583142D01*
X315359404Y-89630761D01*
X315264166Y-89678380D01*
X315026071Y-89678380D01*
X314930833Y-89630761D01*
X314883214Y-89583142D01*
X316311785Y-88678380D02*
X316121309Y-88678380D01*
X316026071Y-88726000D01*
X315978452Y-88773619D01*
X315883214Y-88916476D01*
X315835595Y-89106952D01*
X315835595Y-89487904D01*
X315883214Y-89583142D01*
X315930833Y-89630761D01*
X316026071Y-89678380D01*
X316216547Y-89678380D01*
X316311785Y-89630761D01*
X316359404Y-89583142D01*
X316407023Y-89487904D01*
X316407023Y-89249809D01*
X316359404Y-89154571D01*
X316311785Y-89106952D01*
X316216547Y-89059333D01*
X316026071Y-89059333D01*
X315930833Y-89106952D01*
X315883214Y-89154571D01*
X315835595Y-89249809D01*
%TO.C,SW69*%
X265165476Y-70580761D02*
X265308333Y-70628380D01*
X265546428Y-70628380D01*
X265641666Y-70580761D01*
X265689285Y-70533142D01*
X265736904Y-70437904D01*
X265736904Y-70342666D01*
X265689285Y-70247428D01*
X265641666Y-70199809D01*
X265546428Y-70152190D01*
X265355952Y-70104571D01*
X265260714Y-70056952D01*
X265213095Y-70009333D01*
X265165476Y-69914095D01*
X265165476Y-69818857D01*
X265213095Y-69723619D01*
X265260714Y-69676000D01*
X265355952Y-69628380D01*
X265594047Y-69628380D01*
X265736904Y-69676000D01*
X266070238Y-69628380D02*
X266308333Y-70628380D01*
X266498809Y-69914095D01*
X266689285Y-70628380D01*
X266927380Y-69628380D01*
X267736904Y-69628380D02*
X267546428Y-69628380D01*
X267451190Y-69676000D01*
X267403571Y-69723619D01*
X267308333Y-69866476D01*
X267260714Y-70056952D01*
X267260714Y-70437904D01*
X267308333Y-70533142D01*
X267355952Y-70580761D01*
X267451190Y-70628380D01*
X267641666Y-70628380D01*
X267736904Y-70580761D01*
X267784523Y-70533142D01*
X267832142Y-70437904D01*
X267832142Y-70199809D01*
X267784523Y-70104571D01*
X267736904Y-70056952D01*
X267641666Y-70009333D01*
X267451190Y-70009333D01*
X267355952Y-70056952D01*
X267308333Y-70104571D01*
X267260714Y-70199809D01*
X268308333Y-70628380D02*
X268498809Y-70628380D01*
X268594047Y-70580761D01*
X268641666Y-70533142D01*
X268736904Y-70390285D01*
X268784523Y-70199809D01*
X268784523Y-69818857D01*
X268736904Y-69723619D01*
X268689285Y-69676000D01*
X268594047Y-69628380D01*
X268403571Y-69628380D01*
X268308333Y-69676000D01*
X268260714Y-69723619D01*
X268213095Y-69818857D01*
X268213095Y-70056952D01*
X268260714Y-70152190D01*
X268308333Y-70199809D01*
X268403571Y-70247428D01*
X268594047Y-70247428D01*
X268689285Y-70199809D01*
X268736904Y-70152190D01*
X268784523Y-70056952D01*
%TO.C,SW48*%
X246115476Y-70580761D02*
X246258333Y-70628380D01*
X246496428Y-70628380D01*
X246591666Y-70580761D01*
X246639285Y-70533142D01*
X246686904Y-70437904D01*
X246686904Y-70342666D01*
X246639285Y-70247428D01*
X246591666Y-70199809D01*
X246496428Y-70152190D01*
X246305952Y-70104571D01*
X246210714Y-70056952D01*
X246163095Y-70009333D01*
X246115476Y-69914095D01*
X246115476Y-69818857D01*
X246163095Y-69723619D01*
X246210714Y-69676000D01*
X246305952Y-69628380D01*
X246544047Y-69628380D01*
X246686904Y-69676000D01*
X247020238Y-69628380D02*
X247258333Y-70628380D01*
X247448809Y-69914095D01*
X247639285Y-70628380D01*
X247877380Y-69628380D01*
X248686904Y-69961714D02*
X248686904Y-70628380D01*
X248448809Y-69580761D02*
X248210714Y-70295047D01*
X248829761Y-70295047D01*
X249353571Y-70056952D02*
X249258333Y-70009333D01*
X249210714Y-69961714D01*
X249163095Y-69866476D01*
X249163095Y-69818857D01*
X249210714Y-69723619D01*
X249258333Y-69676000D01*
X249353571Y-69628380D01*
X249544047Y-69628380D01*
X249639285Y-69676000D01*
X249686904Y-69723619D01*
X249734523Y-69818857D01*
X249734523Y-69866476D01*
X249686904Y-69961714D01*
X249639285Y-70009333D01*
X249544047Y-70056952D01*
X249353571Y-70056952D01*
X249258333Y-70104571D01*
X249210714Y-70152190D01*
X249163095Y-70247428D01*
X249163095Y-70437904D01*
X249210714Y-70533142D01*
X249258333Y-70580761D01*
X249353571Y-70628380D01*
X249544047Y-70628380D01*
X249639285Y-70580761D01*
X249686904Y-70533142D01*
X249734523Y-70437904D01*
X249734523Y-70247428D01*
X249686904Y-70152190D01*
X249639285Y-70104571D01*
X249544047Y-70056952D01*
%TO.C,SW9*%
X56091666Y-70580761D02*
X56234523Y-70628380D01*
X56472619Y-70628380D01*
X56567857Y-70580761D01*
X56615476Y-70533142D01*
X56663095Y-70437904D01*
X56663095Y-70342666D01*
X56615476Y-70247428D01*
X56567857Y-70199809D01*
X56472619Y-70152190D01*
X56282142Y-70104571D01*
X56186904Y-70056952D01*
X56139285Y-70009333D01*
X56091666Y-69914095D01*
X56091666Y-69818857D01*
X56139285Y-69723619D01*
X56186904Y-69676000D01*
X56282142Y-69628380D01*
X56520238Y-69628380D01*
X56663095Y-69676000D01*
X56996428Y-69628380D02*
X57234523Y-70628380D01*
X57425000Y-69914095D01*
X57615476Y-70628380D01*
X57853571Y-69628380D01*
X58282142Y-70628380D02*
X58472619Y-70628380D01*
X58567857Y-70580761D01*
X58615476Y-70533142D01*
X58710714Y-70390285D01*
X58758333Y-70199809D01*
X58758333Y-69818857D01*
X58710714Y-69723619D01*
X58663095Y-69676000D01*
X58567857Y-69628380D01*
X58377380Y-69628380D01*
X58282142Y-69676000D01*
X58234523Y-69723619D01*
X58186904Y-69818857D01*
X58186904Y-70056952D01*
X58234523Y-70152190D01*
X58282142Y-70199809D01*
X58377380Y-70247428D01*
X58567857Y-70247428D01*
X58663095Y-70199809D01*
X58710714Y-70152190D01*
X58758333Y-70056952D01*
%TO.C,SW43*%
X141340476Y-51530761D02*
X141483333Y-51578380D01*
X141721428Y-51578380D01*
X141816666Y-51530761D01*
X141864285Y-51483142D01*
X141911904Y-51387904D01*
X141911904Y-51292666D01*
X141864285Y-51197428D01*
X141816666Y-51149809D01*
X141721428Y-51102190D01*
X141530952Y-51054571D01*
X141435714Y-51006952D01*
X141388095Y-50959333D01*
X141340476Y-50864095D01*
X141340476Y-50768857D01*
X141388095Y-50673619D01*
X141435714Y-50626000D01*
X141530952Y-50578380D01*
X141769047Y-50578380D01*
X141911904Y-50626000D01*
X142245238Y-50578380D02*
X142483333Y-51578380D01*
X142673809Y-50864095D01*
X142864285Y-51578380D01*
X143102380Y-50578380D01*
X143911904Y-50911714D02*
X143911904Y-51578380D01*
X143673809Y-50530761D02*
X143435714Y-51245047D01*
X144054761Y-51245047D01*
X144340476Y-50578380D02*
X144959523Y-50578380D01*
X144626190Y-50959333D01*
X144769047Y-50959333D01*
X144864285Y-51006952D01*
X144911904Y-51054571D01*
X144959523Y-51149809D01*
X144959523Y-51387904D01*
X144911904Y-51483142D01*
X144864285Y-51530761D01*
X144769047Y-51578380D01*
X144483333Y-51578380D01*
X144388095Y-51530761D01*
X144340476Y-51483142D01*
%TO.C,SW22*%
X84190476Y-51530761D02*
X84333333Y-51578380D01*
X84571428Y-51578380D01*
X84666666Y-51530761D01*
X84714285Y-51483142D01*
X84761904Y-51387904D01*
X84761904Y-51292666D01*
X84714285Y-51197428D01*
X84666666Y-51149809D01*
X84571428Y-51102190D01*
X84380952Y-51054571D01*
X84285714Y-51006952D01*
X84238095Y-50959333D01*
X84190476Y-50864095D01*
X84190476Y-50768857D01*
X84238095Y-50673619D01*
X84285714Y-50626000D01*
X84380952Y-50578380D01*
X84619047Y-50578380D01*
X84761904Y-50626000D01*
X85095238Y-50578380D02*
X85333333Y-51578380D01*
X85523809Y-50864095D01*
X85714285Y-51578380D01*
X85952380Y-50578380D01*
X86285714Y-50673619D02*
X86333333Y-50626000D01*
X86428571Y-50578380D01*
X86666666Y-50578380D01*
X86761904Y-50626000D01*
X86809523Y-50673619D01*
X86857142Y-50768857D01*
X86857142Y-50864095D01*
X86809523Y-51006952D01*
X86238095Y-51578380D01*
X86857142Y-51578380D01*
X87238095Y-50673619D02*
X87285714Y-50626000D01*
X87380952Y-50578380D01*
X87619047Y-50578380D01*
X87714285Y-50626000D01*
X87761904Y-50673619D01*
X87809523Y-50768857D01*
X87809523Y-50864095D01*
X87761904Y-51006952D01*
X87190476Y-51578380D01*
X87809523Y-51578380D01*
%TO.C,SW62*%
X255640476Y-51530761D02*
X255783333Y-51578380D01*
X256021428Y-51578380D01*
X256116666Y-51530761D01*
X256164285Y-51483142D01*
X256211904Y-51387904D01*
X256211904Y-51292666D01*
X256164285Y-51197428D01*
X256116666Y-51149809D01*
X256021428Y-51102190D01*
X255830952Y-51054571D01*
X255735714Y-51006952D01*
X255688095Y-50959333D01*
X255640476Y-50864095D01*
X255640476Y-50768857D01*
X255688095Y-50673619D01*
X255735714Y-50626000D01*
X255830952Y-50578380D01*
X256069047Y-50578380D01*
X256211904Y-50626000D01*
X256545238Y-50578380D02*
X256783333Y-51578380D01*
X256973809Y-50864095D01*
X257164285Y-51578380D01*
X257402380Y-50578380D01*
X258211904Y-50578380D02*
X258021428Y-50578380D01*
X257926190Y-50626000D01*
X257878571Y-50673619D01*
X257783333Y-50816476D01*
X257735714Y-51006952D01*
X257735714Y-51387904D01*
X257783333Y-51483142D01*
X257830952Y-51530761D01*
X257926190Y-51578380D01*
X258116666Y-51578380D01*
X258211904Y-51530761D01*
X258259523Y-51483142D01*
X258307142Y-51387904D01*
X258307142Y-51149809D01*
X258259523Y-51054571D01*
X258211904Y-51006952D01*
X258116666Y-50959333D01*
X257926190Y-50959333D01*
X257830952Y-51006952D01*
X257783333Y-51054571D01*
X257735714Y-51149809D01*
X258688095Y-50673619D02*
X258735714Y-50626000D01*
X258830952Y-50578380D01*
X259069047Y-50578380D01*
X259164285Y-50626000D01*
X259211904Y-50673619D01*
X259259523Y-50768857D01*
X259259523Y-50864095D01*
X259211904Y-51006952D01*
X258640476Y-51578380D01*
X259259523Y-51578380D01*
%TO.C,SW14*%
X267547076Y-108680761D02*
X267689933Y-108728380D01*
X267928028Y-108728380D01*
X268023266Y-108680761D01*
X268070885Y-108633142D01*
X268118504Y-108537904D01*
X268118504Y-108442666D01*
X268070885Y-108347428D01*
X268023266Y-108299809D01*
X267928028Y-108252190D01*
X267737552Y-108204571D01*
X267642314Y-108156952D01*
X267594695Y-108109333D01*
X267547076Y-108014095D01*
X267547076Y-107918857D01*
X267594695Y-107823619D01*
X267642314Y-107776000D01*
X267737552Y-107728380D01*
X267975647Y-107728380D01*
X268118504Y-107776000D01*
X268451838Y-107728380D02*
X268689933Y-108728380D01*
X268880409Y-108014095D01*
X269070885Y-108728380D01*
X269308980Y-107728380D01*
X270213742Y-108728380D02*
X269642314Y-108728380D01*
X269928028Y-108728380D02*
X269928028Y-107728380D01*
X269832790Y-107871238D01*
X269737552Y-107966476D01*
X269642314Y-108014095D01*
X271070885Y-108061714D02*
X271070885Y-108728380D01*
X270832790Y-107680761D02*
X270594695Y-108395047D01*
X271213742Y-108395047D01*
%TO.C,SW25*%
X88953076Y-108680761D02*
X89095933Y-108728380D01*
X89334028Y-108728380D01*
X89429266Y-108680761D01*
X89476885Y-108633142D01*
X89524504Y-108537904D01*
X89524504Y-108442666D01*
X89476885Y-108347428D01*
X89429266Y-108299809D01*
X89334028Y-108252190D01*
X89143552Y-108204571D01*
X89048314Y-108156952D01*
X89000695Y-108109333D01*
X88953076Y-108014095D01*
X88953076Y-107918857D01*
X89000695Y-107823619D01*
X89048314Y-107776000D01*
X89143552Y-107728380D01*
X89381647Y-107728380D01*
X89524504Y-107776000D01*
X89857838Y-107728380D02*
X90095933Y-108728380D01*
X90286409Y-108014095D01*
X90476885Y-108728380D01*
X90714980Y-107728380D01*
X91048314Y-107823619D02*
X91095933Y-107776000D01*
X91191171Y-107728380D01*
X91429266Y-107728380D01*
X91524504Y-107776000D01*
X91572123Y-107823619D01*
X91619742Y-107918857D01*
X91619742Y-108014095D01*
X91572123Y-108156952D01*
X91000695Y-108728380D01*
X91619742Y-108728380D01*
X92524504Y-107728380D02*
X92048314Y-107728380D01*
X92000695Y-108204571D01*
X92048314Y-108156952D01*
X92143552Y-108109333D01*
X92381647Y-108109333D01*
X92476885Y-108156952D01*
X92524504Y-108204571D01*
X92572123Y-108299809D01*
X92572123Y-108537904D01*
X92524504Y-108633142D01*
X92476885Y-108680761D01*
X92381647Y-108728380D01*
X92143552Y-108728380D01*
X92048314Y-108680761D01*
X92000695Y-108633142D01*
%TO.C,SW34*%
X241353076Y-108680761D02*
X241495933Y-108728380D01*
X241734028Y-108728380D01*
X241829266Y-108680761D01*
X241876885Y-108633142D01*
X241924504Y-108537904D01*
X241924504Y-108442666D01*
X241876885Y-108347428D01*
X241829266Y-108299809D01*
X241734028Y-108252190D01*
X241543552Y-108204571D01*
X241448314Y-108156952D01*
X241400695Y-108109333D01*
X241353076Y-108014095D01*
X241353076Y-107918857D01*
X241400695Y-107823619D01*
X241448314Y-107776000D01*
X241543552Y-107728380D01*
X241781647Y-107728380D01*
X241924504Y-107776000D01*
X242257838Y-107728380D02*
X242495933Y-108728380D01*
X242686409Y-108014095D01*
X242876885Y-108728380D01*
X243114980Y-107728380D01*
X243400695Y-107728380D02*
X244019742Y-107728380D01*
X243686409Y-108109333D01*
X243829266Y-108109333D01*
X243924504Y-108156952D01*
X243972123Y-108204571D01*
X244019742Y-108299809D01*
X244019742Y-108537904D01*
X243972123Y-108633142D01*
X243924504Y-108680761D01*
X243829266Y-108728380D01*
X243543552Y-108728380D01*
X243448314Y-108680761D01*
X243400695Y-108633142D01*
X244876885Y-108061714D02*
X244876885Y-108728380D01*
X244638790Y-107680761D02*
X244400695Y-108395047D01*
X245019742Y-108395047D01*
%TO.C,SW7*%
X270404266Y-89630761D02*
X270547123Y-89678380D01*
X270785219Y-89678380D01*
X270880457Y-89630761D01*
X270928076Y-89583142D01*
X270975695Y-89487904D01*
X270975695Y-89392666D01*
X270928076Y-89297428D01*
X270880457Y-89249809D01*
X270785219Y-89202190D01*
X270594742Y-89154571D01*
X270499504Y-89106952D01*
X270451885Y-89059333D01*
X270404266Y-88964095D01*
X270404266Y-88868857D01*
X270451885Y-88773619D01*
X270499504Y-88726000D01*
X270594742Y-88678380D01*
X270832838Y-88678380D01*
X270975695Y-88726000D01*
X271309028Y-88678380D02*
X271547123Y-89678380D01*
X271737600Y-88964095D01*
X271928076Y-89678380D01*
X272166171Y-88678380D01*
X272451885Y-88678380D02*
X273118552Y-88678380D01*
X272689980Y-89678380D01*
%TO.C,SW65*%
X208015476Y-70580761D02*
X208158333Y-70628380D01*
X208396428Y-70628380D01*
X208491666Y-70580761D01*
X208539285Y-70533142D01*
X208586904Y-70437904D01*
X208586904Y-70342666D01*
X208539285Y-70247428D01*
X208491666Y-70199809D01*
X208396428Y-70152190D01*
X208205952Y-70104571D01*
X208110714Y-70056952D01*
X208063095Y-70009333D01*
X208015476Y-69914095D01*
X208015476Y-69818857D01*
X208063095Y-69723619D01*
X208110714Y-69676000D01*
X208205952Y-69628380D01*
X208444047Y-69628380D01*
X208586904Y-69676000D01*
X208920238Y-69628380D02*
X209158333Y-70628380D01*
X209348809Y-69914095D01*
X209539285Y-70628380D01*
X209777380Y-69628380D01*
X210586904Y-69628380D02*
X210396428Y-69628380D01*
X210301190Y-69676000D01*
X210253571Y-69723619D01*
X210158333Y-69866476D01*
X210110714Y-70056952D01*
X210110714Y-70437904D01*
X210158333Y-70533142D01*
X210205952Y-70580761D01*
X210301190Y-70628380D01*
X210491666Y-70628380D01*
X210586904Y-70580761D01*
X210634523Y-70533142D01*
X210682142Y-70437904D01*
X210682142Y-70199809D01*
X210634523Y-70104571D01*
X210586904Y-70056952D01*
X210491666Y-70009333D01*
X210301190Y-70009333D01*
X210205952Y-70056952D01*
X210158333Y-70104571D01*
X210110714Y-70199809D01*
X211586904Y-69628380D02*
X211110714Y-69628380D01*
X211063095Y-70104571D01*
X211110714Y-70056952D01*
X211205952Y-70009333D01*
X211444047Y-70009333D01*
X211539285Y-70056952D01*
X211586904Y-70104571D01*
X211634523Y-70199809D01*
X211634523Y-70437904D01*
X211586904Y-70533142D01*
X211539285Y-70580761D01*
X211444047Y-70628380D01*
X211205952Y-70628380D01*
X211110714Y-70580761D01*
X211063095Y-70533142D01*
%TO.C,SW57*%
X179440476Y-51530761D02*
X179583333Y-51578380D01*
X179821428Y-51578380D01*
X179916666Y-51530761D01*
X179964285Y-51483142D01*
X180011904Y-51387904D01*
X180011904Y-51292666D01*
X179964285Y-51197428D01*
X179916666Y-51149809D01*
X179821428Y-51102190D01*
X179630952Y-51054571D01*
X179535714Y-51006952D01*
X179488095Y-50959333D01*
X179440476Y-50864095D01*
X179440476Y-50768857D01*
X179488095Y-50673619D01*
X179535714Y-50626000D01*
X179630952Y-50578380D01*
X179869047Y-50578380D01*
X180011904Y-50626000D01*
X180345238Y-50578380D02*
X180583333Y-51578380D01*
X180773809Y-50864095D01*
X180964285Y-51578380D01*
X181202380Y-50578380D01*
X182059523Y-50578380D02*
X181583333Y-50578380D01*
X181535714Y-51054571D01*
X181583333Y-51006952D01*
X181678571Y-50959333D01*
X181916666Y-50959333D01*
X182011904Y-51006952D01*
X182059523Y-51054571D01*
X182107142Y-51149809D01*
X182107142Y-51387904D01*
X182059523Y-51483142D01*
X182011904Y-51530761D01*
X181916666Y-51578380D01*
X181678571Y-51578380D01*
X181583333Y-51530761D01*
X181535714Y-51483142D01*
X182440476Y-50578380D02*
X183107142Y-50578380D01*
X182678571Y-51578380D01*
%TO.C,C2*%
X108583333Y-128069642D02*
X108535714Y-128117261D01*
X108392857Y-128164880D01*
X108297619Y-128164880D01*
X108154761Y-128117261D01*
X108059523Y-128022023D01*
X108011904Y-127926785D01*
X107964285Y-127736309D01*
X107964285Y-127593452D01*
X108011904Y-127402976D01*
X108059523Y-127307738D01*
X108154761Y-127212500D01*
X108297619Y-127164880D01*
X108392857Y-127164880D01*
X108535714Y-127212500D01*
X108583333Y-127260119D01*
X108964285Y-127260119D02*
X109011904Y-127212500D01*
X109107142Y-127164880D01*
X109345238Y-127164880D01*
X109440476Y-127212500D01*
X109488095Y-127260119D01*
X109535714Y-127355357D01*
X109535714Y-127450595D01*
X109488095Y-127593452D01*
X108916666Y-128164880D01*
X109535714Y-128164880D01*
%TO.C,SW46*%
X146103076Y-108680761D02*
X146245933Y-108728380D01*
X146484028Y-108728380D01*
X146579266Y-108680761D01*
X146626885Y-108633142D01*
X146674504Y-108537904D01*
X146674504Y-108442666D01*
X146626885Y-108347428D01*
X146579266Y-108299809D01*
X146484028Y-108252190D01*
X146293552Y-108204571D01*
X146198314Y-108156952D01*
X146150695Y-108109333D01*
X146103076Y-108014095D01*
X146103076Y-107918857D01*
X146150695Y-107823619D01*
X146198314Y-107776000D01*
X146293552Y-107728380D01*
X146531647Y-107728380D01*
X146674504Y-107776000D01*
X147007838Y-107728380D02*
X147245933Y-108728380D01*
X147436409Y-108014095D01*
X147626885Y-108728380D01*
X147864980Y-107728380D01*
X148674504Y-108061714D02*
X148674504Y-108728380D01*
X148436409Y-107680761D02*
X148198314Y-108395047D01*
X148817361Y-108395047D01*
X149626885Y-107728380D02*
X149436409Y-107728380D01*
X149341171Y-107776000D01*
X149293552Y-107823619D01*
X149198314Y-107966476D01*
X149150695Y-108156952D01*
X149150695Y-108537904D01*
X149198314Y-108633142D01*
X149245933Y-108680761D01*
X149341171Y-108728380D01*
X149531647Y-108728380D01*
X149626885Y-108680761D01*
X149674504Y-108633142D01*
X149722123Y-108537904D01*
X149722123Y-108299809D01*
X149674504Y-108204571D01*
X149626885Y-108156952D01*
X149531647Y-108109333D01*
X149341171Y-108109333D01*
X149245933Y-108156952D01*
X149198314Y-108204571D01*
X149150695Y-108299809D01*
%TO.C,R3*%
X114333333Y-52702380D02*
X114000000Y-52226190D01*
X113761904Y-52702380D02*
X113761904Y-51702380D01*
X114142857Y-51702380D01*
X114238095Y-51750000D01*
X114285714Y-51797619D01*
X114333333Y-51892857D01*
X114333333Y-52035714D01*
X114285714Y-52130952D01*
X114238095Y-52178571D01*
X114142857Y-52226190D01*
X113761904Y-52226190D01*
X114666666Y-51702380D02*
X115285714Y-51702380D01*
X114952380Y-52083333D01*
X115095238Y-52083333D01*
X115190476Y-52130952D01*
X115238095Y-52178571D01*
X115285714Y-52273809D01*
X115285714Y-52511904D01*
X115238095Y-52607142D01*
X115190476Y-52654761D01*
X115095238Y-52702380D01*
X114809523Y-52702380D01*
X114714285Y-52654761D01*
X114666666Y-52607142D01*
%TO.C,SW67*%
X203253076Y-108680761D02*
X203395933Y-108728380D01*
X203634028Y-108728380D01*
X203729266Y-108680761D01*
X203776885Y-108633142D01*
X203824504Y-108537904D01*
X203824504Y-108442666D01*
X203776885Y-108347428D01*
X203729266Y-108299809D01*
X203634028Y-108252190D01*
X203443552Y-108204571D01*
X203348314Y-108156952D01*
X203300695Y-108109333D01*
X203253076Y-108014095D01*
X203253076Y-107918857D01*
X203300695Y-107823619D01*
X203348314Y-107776000D01*
X203443552Y-107728380D01*
X203681647Y-107728380D01*
X203824504Y-107776000D01*
X204157838Y-107728380D02*
X204395933Y-108728380D01*
X204586409Y-108014095D01*
X204776885Y-108728380D01*
X205014980Y-107728380D01*
X205824504Y-107728380D02*
X205634028Y-107728380D01*
X205538790Y-107776000D01*
X205491171Y-107823619D01*
X205395933Y-107966476D01*
X205348314Y-108156952D01*
X205348314Y-108537904D01*
X205395933Y-108633142D01*
X205443552Y-108680761D01*
X205538790Y-108728380D01*
X205729266Y-108728380D01*
X205824504Y-108680761D01*
X205872123Y-108633142D01*
X205919742Y-108537904D01*
X205919742Y-108299809D01*
X205872123Y-108204571D01*
X205824504Y-108156952D01*
X205729266Y-108109333D01*
X205538790Y-108109333D01*
X205443552Y-108156952D01*
X205395933Y-108204571D01*
X205348314Y-108299809D01*
X206253076Y-107728380D02*
X206919742Y-107728380D01*
X206491171Y-108728380D01*
%TO.C,SW33*%
X217537976Y-127730761D02*
X217680833Y-127778380D01*
X217918928Y-127778380D01*
X218014166Y-127730761D01*
X218061785Y-127683142D01*
X218109404Y-127587904D01*
X218109404Y-127492666D01*
X218061785Y-127397428D01*
X218014166Y-127349809D01*
X217918928Y-127302190D01*
X217728452Y-127254571D01*
X217633214Y-127206952D01*
X217585595Y-127159333D01*
X217537976Y-127064095D01*
X217537976Y-126968857D01*
X217585595Y-126873619D01*
X217633214Y-126826000D01*
X217728452Y-126778380D01*
X217966547Y-126778380D01*
X218109404Y-126826000D01*
X218442738Y-126778380D02*
X218680833Y-127778380D01*
X218871309Y-127064095D01*
X219061785Y-127778380D01*
X219299880Y-126778380D01*
X219585595Y-126778380D02*
X220204642Y-126778380D01*
X219871309Y-127159333D01*
X220014166Y-127159333D01*
X220109404Y-127206952D01*
X220157023Y-127254571D01*
X220204642Y-127349809D01*
X220204642Y-127587904D01*
X220157023Y-127683142D01*
X220109404Y-127730761D01*
X220014166Y-127778380D01*
X219728452Y-127778380D01*
X219633214Y-127730761D01*
X219585595Y-127683142D01*
X220537976Y-126778380D02*
X221157023Y-126778380D01*
X220823690Y-127159333D01*
X220966547Y-127159333D01*
X221061785Y-127206952D01*
X221109404Y-127254571D01*
X221157023Y-127349809D01*
X221157023Y-127587904D01*
X221109404Y-127683142D01*
X221061785Y-127730761D01*
X220966547Y-127778380D01*
X220680833Y-127778380D01*
X220585595Y-127730761D01*
X220537976Y-127683142D01*
%TO.C,SW64*%
X198490476Y-51530761D02*
X198633333Y-51578380D01*
X198871428Y-51578380D01*
X198966666Y-51530761D01*
X199014285Y-51483142D01*
X199061904Y-51387904D01*
X199061904Y-51292666D01*
X199014285Y-51197428D01*
X198966666Y-51149809D01*
X198871428Y-51102190D01*
X198680952Y-51054571D01*
X198585714Y-51006952D01*
X198538095Y-50959333D01*
X198490476Y-50864095D01*
X198490476Y-50768857D01*
X198538095Y-50673619D01*
X198585714Y-50626000D01*
X198680952Y-50578380D01*
X198919047Y-50578380D01*
X199061904Y-50626000D01*
X199395238Y-50578380D02*
X199633333Y-51578380D01*
X199823809Y-50864095D01*
X200014285Y-51578380D01*
X200252380Y-50578380D01*
X201061904Y-50578380D02*
X200871428Y-50578380D01*
X200776190Y-50626000D01*
X200728571Y-50673619D01*
X200633333Y-50816476D01*
X200585714Y-51006952D01*
X200585714Y-51387904D01*
X200633333Y-51483142D01*
X200680952Y-51530761D01*
X200776190Y-51578380D01*
X200966666Y-51578380D01*
X201061904Y-51530761D01*
X201109523Y-51483142D01*
X201157142Y-51387904D01*
X201157142Y-51149809D01*
X201109523Y-51054571D01*
X201061904Y-51006952D01*
X200966666Y-50959333D01*
X200776190Y-50959333D01*
X200680952Y-51006952D01*
X200633333Y-51054571D01*
X200585714Y-51149809D01*
X202014285Y-50911714D02*
X202014285Y-51578380D01*
X201776190Y-50530761D02*
X201538095Y-51245047D01*
X202157142Y-51245047D01*
%TO.C,SW2*%
X32279166Y-70580761D02*
X32422023Y-70628380D01*
X32660119Y-70628380D01*
X32755357Y-70580761D01*
X32802976Y-70533142D01*
X32850595Y-70437904D01*
X32850595Y-70342666D01*
X32802976Y-70247428D01*
X32755357Y-70199809D01*
X32660119Y-70152190D01*
X32469642Y-70104571D01*
X32374404Y-70056952D01*
X32326785Y-70009333D01*
X32279166Y-69914095D01*
X32279166Y-69818857D01*
X32326785Y-69723619D01*
X32374404Y-69676000D01*
X32469642Y-69628380D01*
X32707738Y-69628380D01*
X32850595Y-69676000D01*
X33183928Y-69628380D02*
X33422023Y-70628380D01*
X33612500Y-69914095D01*
X33802976Y-70628380D01*
X34041071Y-69628380D01*
X34374404Y-69723619D02*
X34422023Y-69676000D01*
X34517261Y-69628380D01*
X34755357Y-69628380D01*
X34850595Y-69676000D01*
X34898214Y-69723619D01*
X34945833Y-69818857D01*
X34945833Y-69914095D01*
X34898214Y-70056952D01*
X34326785Y-70628380D01*
X34945833Y-70628380D01*
%TO.C,SW38*%
X136578076Y-89630761D02*
X136720933Y-89678380D01*
X136959028Y-89678380D01*
X137054266Y-89630761D01*
X137101885Y-89583142D01*
X137149504Y-89487904D01*
X137149504Y-89392666D01*
X137101885Y-89297428D01*
X137054266Y-89249809D01*
X136959028Y-89202190D01*
X136768552Y-89154571D01*
X136673314Y-89106952D01*
X136625695Y-89059333D01*
X136578076Y-88964095D01*
X136578076Y-88868857D01*
X136625695Y-88773619D01*
X136673314Y-88726000D01*
X136768552Y-88678380D01*
X137006647Y-88678380D01*
X137149504Y-88726000D01*
X137482838Y-88678380D02*
X137720933Y-89678380D01*
X137911409Y-88964095D01*
X138101885Y-89678380D01*
X138339980Y-88678380D01*
X138625695Y-88678380D02*
X139244742Y-88678380D01*
X138911409Y-89059333D01*
X139054266Y-89059333D01*
X139149504Y-89106952D01*
X139197123Y-89154571D01*
X139244742Y-89249809D01*
X139244742Y-89487904D01*
X139197123Y-89583142D01*
X139149504Y-89630761D01*
X139054266Y-89678380D01*
X138768552Y-89678380D01*
X138673314Y-89630761D01*
X138625695Y-89583142D01*
X139816171Y-89106952D02*
X139720933Y-89059333D01*
X139673314Y-89011714D01*
X139625695Y-88916476D01*
X139625695Y-88868857D01*
X139673314Y-88773619D01*
X139720933Y-88726000D01*
X139816171Y-88678380D01*
X140006647Y-88678380D01*
X140101885Y-88726000D01*
X140149504Y-88773619D01*
X140197123Y-88868857D01*
X140197123Y-88916476D01*
X140149504Y-89011714D01*
X140101885Y-89059333D01*
X140006647Y-89106952D01*
X139816171Y-89106952D01*
X139720933Y-89154571D01*
X139673314Y-89202190D01*
X139625695Y-89297428D01*
X139625695Y-89487904D01*
X139673314Y-89583142D01*
X139720933Y-89630761D01*
X139816171Y-89678380D01*
X140006647Y-89678380D01*
X140101885Y-89630761D01*
X140149504Y-89583142D01*
X140197123Y-89487904D01*
X140197123Y-89297428D01*
X140149504Y-89202190D01*
X140101885Y-89154571D01*
X140006647Y-89106952D01*
%TO.C,SW20*%
X231828076Y-89630761D02*
X231970933Y-89678380D01*
X232209028Y-89678380D01*
X232304266Y-89630761D01*
X232351885Y-89583142D01*
X232399504Y-89487904D01*
X232399504Y-89392666D01*
X232351885Y-89297428D01*
X232304266Y-89249809D01*
X232209028Y-89202190D01*
X232018552Y-89154571D01*
X231923314Y-89106952D01*
X231875695Y-89059333D01*
X231828076Y-88964095D01*
X231828076Y-88868857D01*
X231875695Y-88773619D01*
X231923314Y-88726000D01*
X232018552Y-88678380D01*
X232256647Y-88678380D01*
X232399504Y-88726000D01*
X232732838Y-88678380D02*
X232970933Y-89678380D01*
X233161409Y-88964095D01*
X233351885Y-89678380D01*
X233589980Y-88678380D01*
X233923314Y-88773619D02*
X233970933Y-88726000D01*
X234066171Y-88678380D01*
X234304266Y-88678380D01*
X234399504Y-88726000D01*
X234447123Y-88773619D01*
X234494742Y-88868857D01*
X234494742Y-88964095D01*
X234447123Y-89106952D01*
X233875695Y-89678380D01*
X234494742Y-89678380D01*
X235113790Y-88678380D02*
X235209028Y-88678380D01*
X235304266Y-88726000D01*
X235351885Y-88773619D01*
X235399504Y-88868857D01*
X235447123Y-89059333D01*
X235447123Y-89297428D01*
X235399504Y-89487904D01*
X235351885Y-89583142D01*
X235304266Y-89630761D01*
X235209028Y-89678380D01*
X235113790Y-89678380D01*
X235018552Y-89630761D01*
X234970933Y-89583142D01*
X234923314Y-89487904D01*
X234875695Y-89297428D01*
X234875695Y-89059333D01*
X234923314Y-88868857D01*
X234970933Y-88773619D01*
X235018552Y-88726000D01*
X235113790Y-88678380D01*
%TO.C,SW52*%
X174678076Y-89630761D02*
X174820933Y-89678380D01*
X175059028Y-89678380D01*
X175154266Y-89630761D01*
X175201885Y-89583142D01*
X175249504Y-89487904D01*
X175249504Y-89392666D01*
X175201885Y-89297428D01*
X175154266Y-89249809D01*
X175059028Y-89202190D01*
X174868552Y-89154571D01*
X174773314Y-89106952D01*
X174725695Y-89059333D01*
X174678076Y-88964095D01*
X174678076Y-88868857D01*
X174725695Y-88773619D01*
X174773314Y-88726000D01*
X174868552Y-88678380D01*
X175106647Y-88678380D01*
X175249504Y-88726000D01*
X175582838Y-88678380D02*
X175820933Y-89678380D01*
X176011409Y-88964095D01*
X176201885Y-89678380D01*
X176439980Y-88678380D01*
X177297123Y-88678380D02*
X176820933Y-88678380D01*
X176773314Y-89154571D01*
X176820933Y-89106952D01*
X176916171Y-89059333D01*
X177154266Y-89059333D01*
X177249504Y-89106952D01*
X177297123Y-89154571D01*
X177344742Y-89249809D01*
X177344742Y-89487904D01*
X177297123Y-89583142D01*
X177249504Y-89630761D01*
X177154266Y-89678380D01*
X176916171Y-89678380D01*
X176820933Y-89630761D01*
X176773314Y-89583142D01*
X177725695Y-88773619D02*
X177773314Y-88726000D01*
X177868552Y-88678380D01*
X178106647Y-88678380D01*
X178201885Y-88726000D01*
X178249504Y-88773619D01*
X178297123Y-88868857D01*
X178297123Y-88964095D01*
X178249504Y-89106952D01*
X177678076Y-89678380D01*
X178297123Y-89678380D01*
D11*
%TO.C,SW26*%
X143304500Y-128215000D02*
X157274500Y-128215000D01*
X157274500Y-128215000D02*
X157274500Y-142185000D01*
X143304500Y-142185000D02*
X143304500Y-128215000D01*
X157274500Y-142185000D02*
X143304500Y-142185000D01*
%TO.C,SW51*%
X178710000Y-71065000D02*
X178710000Y-85035000D01*
X164740000Y-85035000D02*
X164740000Y-71065000D01*
X164740000Y-71065000D02*
X178710000Y-71065000D01*
X178710000Y-85035000D02*
X164740000Y-85035000D01*
D10*
%TO.C,U2*%
X112875000Y-131350000D02*
X111450000Y-131350000D01*
X120125000Y-131125000D02*
X119800000Y-131125000D01*
X120125000Y-138375000D02*
X119800000Y-138375000D01*
X120125000Y-138375000D02*
X120125000Y-138050000D01*
X120125000Y-131125000D02*
X120125000Y-131450000D01*
X112875000Y-138375000D02*
X112875000Y-138050000D01*
X112875000Y-131125000D02*
X113200000Y-131125000D01*
X112875000Y-131125000D02*
X112875000Y-131350000D01*
X112875000Y-138375000D02*
X113200000Y-138375000D01*
D11*
%TO.C,SW68*%
X321582500Y-142185000D02*
X307612500Y-142185000D01*
X307612500Y-142185000D02*
X307612500Y-128215000D01*
X321582500Y-128215000D02*
X321582500Y-142185000D01*
X307612500Y-128215000D02*
X321582500Y-128215000D01*
%TO.C,SW66*%
X207602600Y-90115000D02*
X221572600Y-90115000D01*
X221572600Y-104085000D02*
X207602600Y-104085000D01*
X221572600Y-90115000D02*
X221572600Y-104085000D01*
X207602600Y-104085000D02*
X207602600Y-90115000D01*
%TO.C,SW6*%
X212365000Y-65985000D02*
X212365000Y-52015000D01*
X226335000Y-65985000D02*
X212365000Y-65985000D01*
X226335000Y-52015000D02*
X226335000Y-65985000D01*
X212365000Y-52015000D02*
X226335000Y-52015000D01*
%TO.C,SW59*%
X188552600Y-90115000D02*
X202522600Y-90115000D01*
X202522600Y-90115000D02*
X202522600Y-104085000D01*
X202522600Y-104085000D02*
X188552600Y-104085000D01*
X188552600Y-104085000D02*
X188552600Y-90115000D01*
%TO.C,SW32*%
X116797600Y-123135000D02*
X102827600Y-123135000D01*
X102827600Y-109165000D02*
X116797600Y-109165000D01*
X102827600Y-123135000D02*
X102827600Y-109165000D01*
X116797600Y-109165000D02*
X116797600Y-123135000D01*
%TO.C,SW23*%
X88540000Y-71065000D02*
X102510000Y-71065000D01*
X102510000Y-85035000D02*
X88540000Y-85035000D01*
X102510000Y-71065000D02*
X102510000Y-85035000D01*
X88540000Y-85035000D02*
X88540000Y-71065000D01*
%TO.C,D71*%
X37061130Y-100420163D02*
G75*
G03*
X34979039Y-100420000I-1041130J-1079837D01*
G01*
X37692335Y-100421392D02*
G75*
G03*
X34460000Y-100264484I-1672335J-1078608D01*
G01*
X34979039Y-102580000D02*
G75*
G03*
X37061130Y-102579837I1040961J1080000D01*
G01*
X34460000Y-102735516D02*
G75*
G03*
X37692335Y-102578608I1560000J1235516D01*
G01*
X34460000Y-100264000D02*
X34460000Y-100420000D01*
X34460000Y-102580000D02*
X34460000Y-102736000D01*
%TO.C,SW8*%
X54885000Y-52015000D02*
X54885000Y-65985000D01*
X40915000Y-52015000D02*
X54885000Y-52015000D01*
X54885000Y-65985000D02*
X40915000Y-65985000D01*
X40915000Y-65985000D02*
X40915000Y-52015000D01*
%TO.C,SW53*%
X173947600Y-109165000D02*
X173947600Y-123135000D01*
X173947600Y-123135000D02*
X159977600Y-123135000D01*
X159977600Y-109165000D02*
X173947600Y-109165000D01*
X159977600Y-123135000D02*
X159977600Y-109165000D01*
%TO.C,Y1*%
X103800000Y-135762500D02*
X107700000Y-135762500D01*
X107700000Y-135762500D02*
X107700000Y-129212500D01*
X103800000Y-129212500D02*
X103800000Y-135762500D01*
%TO.C,R4*%
X118272936Y-51235000D02*
X118727064Y-51235000D01*
X118272936Y-49765000D02*
X118727064Y-49765000D01*
%TO.C,SW27*%
X231097600Y-123135000D02*
X217127600Y-123135000D01*
X217127600Y-109165000D02*
X231097600Y-109165000D01*
X217127600Y-123135000D02*
X217127600Y-109165000D01*
X231097600Y-109165000D02*
X231097600Y-123135000D01*
%TO.C,SW36*%
X117115000Y-52015000D02*
X131085000Y-52015000D01*
X131085000Y-52015000D02*
X131085000Y-65985000D01*
X117115000Y-65985000D02*
X117115000Y-52015000D01*
X131085000Y-65985000D02*
X117115000Y-65985000D01*
%TO.C,C1*%
X110761252Y-51235000D02*
X110238748Y-51235000D01*
X110761252Y-49765000D02*
X110238748Y-49765000D01*
%TO.C,SW47*%
X250462500Y-128215000D02*
X264432500Y-128215000D01*
X264432500Y-128215000D02*
X264432500Y-142185000D01*
X264432500Y-142185000D02*
X250462500Y-142185000D01*
X250462500Y-142185000D02*
X250462500Y-128215000D01*
%TO.C,SW39*%
X135847600Y-109165000D02*
X135847600Y-123135000D01*
X135847600Y-123135000D02*
X121877600Y-123135000D01*
X121877600Y-109165000D02*
X135847600Y-109165000D01*
X121877600Y-123135000D02*
X121877600Y-109165000D01*
%TO.C,SW5*%
X24246300Y-142185000D02*
X24246300Y-128215000D01*
X24246300Y-128215000D02*
X38216300Y-128215000D01*
X38216300Y-128215000D02*
X38216300Y-142185000D01*
X38216300Y-142185000D02*
X24246300Y-142185000D01*
%TO.C,SW18*%
X78697600Y-109165000D02*
X78697600Y-123135000D01*
X64727600Y-123135000D02*
X64727600Y-109165000D01*
X64727600Y-109165000D02*
X78697600Y-109165000D01*
X78697600Y-123135000D02*
X64727600Y-123135000D01*
%TO.C,SW1*%
X35835000Y-52015000D02*
X35835000Y-65985000D01*
X35835000Y-65985000D02*
X21865000Y-65985000D01*
X21865000Y-65985000D02*
X21865000Y-52015000D01*
X21865000Y-52015000D02*
X35835000Y-52015000D01*
%TO.C,SW3*%
X29007400Y-90115000D02*
X42977400Y-90115000D01*
X42977400Y-104085000D02*
X29007400Y-104085000D01*
X42977400Y-90115000D02*
X42977400Y-104085000D01*
X29007400Y-104085000D02*
X29007400Y-90115000D01*
%TO.C,SW55*%
X231415000Y-52015000D02*
X245385000Y-52015000D01*
X231415000Y-65985000D02*
X231415000Y-52015000D01*
X245385000Y-52015000D02*
X245385000Y-65985000D01*
X245385000Y-65985000D02*
X231415000Y-65985000D01*
%TO.C,SW35*%
X293010000Y-52015000D02*
X293010000Y-65985000D01*
X279040000Y-65985000D02*
X279040000Y-52015000D01*
X279040000Y-52015000D02*
X293010000Y-52015000D01*
X293010000Y-65985000D02*
X279040000Y-65985000D01*
%TO.C,SW70*%
X138050000Y-133100000D02*
X137600000Y-132650000D01*
X133600000Y-136400000D02*
X133600000Y-134400000D01*
X134650000Y-137700000D02*
X135100000Y-138150000D01*
X134650000Y-133100000D02*
X135100000Y-132650000D01*
X139100000Y-136400000D02*
X139100000Y-134400000D01*
X137600000Y-138150000D02*
X135100000Y-138150000D01*
X137600000Y-132650000D02*
X135100000Y-132650000D01*
X138050000Y-137700000D02*
X137600000Y-138150000D01*
%TO.C,SW41*%
X259672600Y-90115000D02*
X259672600Y-104085000D01*
X259672600Y-104085000D02*
X245702600Y-104085000D01*
X245702600Y-90115000D02*
X259672600Y-90115000D01*
X245702600Y-104085000D02*
X245702600Y-90115000D01*
%TO.C,SW54*%
X269512500Y-128215000D02*
X283482500Y-128215000D01*
X269512500Y-142185000D02*
X269512500Y-128215000D01*
X283482500Y-128215000D02*
X283482500Y-142185000D01*
X283482500Y-142185000D02*
X269512500Y-142185000D01*
%TO.C,SW13*%
X221890000Y-85035000D02*
X221890000Y-71065000D01*
X235860000Y-85035000D02*
X221890000Y-85035000D01*
X235860000Y-71065000D02*
X235860000Y-85035000D01*
X221890000Y-71065000D02*
X235860000Y-71065000D01*
%TO.C,SW63*%
X321582500Y-109165000D02*
X321582500Y-123135000D01*
X307612500Y-109165000D02*
X321582500Y-109165000D01*
X321582500Y-123135000D02*
X307612500Y-123135000D01*
X307612500Y-123135000D02*
X307612500Y-109165000D01*
%TO.C,SW44*%
X159660000Y-71065000D02*
X159660000Y-85035000D01*
X159660000Y-85035000D02*
X145690000Y-85035000D01*
X145690000Y-85035000D02*
X145690000Y-71065000D01*
X145690000Y-71065000D02*
X159660000Y-71065000D01*
%TO.C,SW16*%
X83460000Y-85035000D02*
X69490000Y-85035000D01*
X83460000Y-71065000D02*
X83460000Y-85035000D01*
X69490000Y-71065000D02*
X83460000Y-71065000D01*
X69490000Y-85035000D02*
X69490000Y-71065000D01*
%TO.C,SW12*%
X62027400Y-142185000D02*
X48057400Y-142185000D01*
X62027400Y-128215000D02*
X62027400Y-142185000D01*
X48057400Y-142185000D02*
X48057400Y-128215000D01*
X48057400Y-128215000D02*
X62027400Y-128215000D01*
%TO.C,SW17*%
X88222600Y-104085000D02*
X74252600Y-104085000D01*
X88222600Y-90115000D02*
X88222600Y-104085000D01*
X74252600Y-90115000D02*
X88222600Y-90115000D01*
X74252600Y-104085000D02*
X74252600Y-90115000D01*
%TO.C,SW19*%
X85838500Y-142185000D02*
X71868500Y-142185000D01*
X71868500Y-128215000D02*
X85838500Y-128215000D01*
X71868500Y-142185000D02*
X71868500Y-128215000D01*
X85838500Y-128215000D02*
X85838500Y-142185000D01*
%TO.C,SW11*%
X45677600Y-123135000D02*
X45677600Y-109165000D01*
X59647600Y-123135000D02*
X45677600Y-123135000D01*
X45677600Y-109165000D02*
X59647600Y-109165000D01*
X59647600Y-109165000D02*
X59647600Y-123135000D01*
%TO.C,C4*%
X118485000Y-125988748D02*
X118485000Y-126511252D01*
X117015000Y-125988748D02*
X117015000Y-126511252D01*
%TO.C,SW28*%
X300152000Y-94560000D02*
X286182000Y-94560000D01*
X286182000Y-94560000D02*
X286182000Y-80590000D01*
X300152000Y-80590000D02*
X300152000Y-94560000D01*
X286182000Y-80590000D02*
X300152000Y-80590000D01*
%TO.C,R1*%
X171235000Y-135022936D02*
X171235000Y-135477064D01*
X169765000Y-135022936D02*
X169765000Y-135477064D01*
%TO.C,D70*%
X173710000Y-136250000D02*
X173710000Y-133390000D01*
X171790000Y-133390000D02*
X171790000Y-136250000D01*
X173710000Y-133390000D02*
X171790000Y-133390000D01*
%TO.C,SW50*%
X169185000Y-65985000D02*
X155215000Y-65985000D01*
X155215000Y-52015000D02*
X169185000Y-52015000D01*
X155215000Y-65985000D02*
X155215000Y-52015000D01*
X169185000Y-52015000D02*
X169185000Y-65985000D01*
%TO.C,SW42*%
X307612500Y-52015000D02*
X321582500Y-52015000D01*
X307612500Y-65985000D02*
X307612500Y-52015000D01*
X321582500Y-52015000D02*
X321582500Y-65985000D01*
X321582500Y-65985000D02*
X307612500Y-65985000D01*
%TO.C,SW60*%
X179027600Y-109165000D02*
X192997600Y-109165000D01*
X179027600Y-123135000D02*
X179027600Y-109165000D01*
X192997600Y-123135000D02*
X179027600Y-123135000D01*
X192997600Y-109165000D02*
X192997600Y-123135000D01*
%TO.C,SW24*%
X93302600Y-104085000D02*
X93302600Y-90115000D01*
X107272600Y-104085000D02*
X93302600Y-104085000D01*
X93302600Y-90115000D02*
X107272600Y-90115000D01*
X107272600Y-90115000D02*
X107272600Y-104085000D01*
%TO.C,SW45*%
X164422600Y-90115000D02*
X164422600Y-104085000D01*
X150452600Y-90115000D02*
X164422600Y-90115000D01*
X150452600Y-104085000D02*
X150452600Y-90115000D01*
X164422600Y-104085000D02*
X150452600Y-104085000D01*
%TO.C,SW37*%
X140610000Y-85035000D02*
X126640000Y-85035000D01*
X140610000Y-71065000D02*
X140610000Y-85035000D01*
X126640000Y-85035000D02*
X126640000Y-71065000D01*
X126640000Y-71065000D02*
X140610000Y-71065000D01*
%TO.C,SW49*%
X307612500Y-85035000D02*
X307612500Y-71065000D01*
X321582500Y-71065000D02*
X321582500Y-85035000D01*
X307612500Y-71065000D02*
X321582500Y-71065000D01*
X321582500Y-85035000D02*
X307612500Y-85035000D01*
%TO.C,SW29*%
X112035000Y-65985000D02*
X98065000Y-65985000D01*
X98065000Y-65985000D02*
X98065000Y-52015000D01*
X98065000Y-52015000D02*
X112035000Y-52015000D01*
X112035000Y-52015000D02*
X112035000Y-65985000D01*
%TO.C,SW10*%
X55202600Y-104085000D02*
X55202600Y-90115000D01*
X69172600Y-104085000D02*
X55202600Y-104085000D01*
X55202600Y-90115000D02*
X69172600Y-90115000D01*
X69172600Y-90115000D02*
X69172600Y-104085000D01*
%TO.C,SW30*%
X121560000Y-71065000D02*
X121560000Y-85035000D01*
X107590000Y-85035000D02*
X107590000Y-71065000D01*
X121560000Y-85035000D02*
X107590000Y-85035000D01*
X107590000Y-71065000D02*
X121560000Y-71065000D01*
%TO.C,SW15*%
X73935000Y-65985000D02*
X59965000Y-65985000D01*
X73935000Y-52015000D02*
X73935000Y-65985000D01*
X59965000Y-52015000D02*
X73935000Y-52015000D01*
X59965000Y-65985000D02*
X59965000Y-52015000D01*
%TO.C,SW31*%
X112352600Y-90115000D02*
X126322600Y-90115000D01*
X126322600Y-104085000D02*
X112352600Y-104085000D01*
X126322600Y-90115000D02*
X126322600Y-104085000D01*
X112352600Y-104085000D02*
X112352600Y-90115000D01*
%TO.C,SW4*%
X24246300Y-109165000D02*
X38216300Y-109165000D01*
X24246300Y-123135000D02*
X24246300Y-109165000D01*
X38216300Y-109165000D02*
X38216300Y-123135000D01*
X38216300Y-123135000D02*
X24246300Y-123135000D01*
%TO.C,SW61*%
X302532500Y-142185000D02*
X288562500Y-142185000D01*
X302532500Y-128215000D02*
X302532500Y-142185000D01*
X288562500Y-142185000D02*
X288562500Y-128215000D01*
X288562500Y-128215000D02*
X302532500Y-128215000D01*
%TO.C,R2*%
X131685000Y-135527064D02*
X131685000Y-135072936D01*
X130215000Y-135527064D02*
X130215000Y-135072936D01*
%TO.C,SW58*%
X197760000Y-85035000D02*
X183790000Y-85035000D01*
X197760000Y-71065000D02*
X197760000Y-85035000D01*
X183790000Y-85035000D02*
X183790000Y-71065000D01*
X183790000Y-71065000D02*
X197760000Y-71065000D01*
%TO.C,C3*%
X109485000Y-133988748D02*
X109485000Y-134511252D01*
X108015000Y-133988748D02*
X108015000Y-134511252D01*
%TO.C,SW40*%
X231412500Y-128215000D02*
X245382500Y-128215000D01*
X245382500Y-142185000D02*
X231412500Y-142185000D01*
X231412500Y-142185000D02*
X231412500Y-128215000D01*
X245382500Y-128215000D02*
X245382500Y-142185000D01*
%TO.C,SW21*%
X302535600Y-123135000D02*
X288565600Y-123135000D01*
X288565600Y-109165000D02*
X302535600Y-109165000D01*
X302535600Y-109165000D02*
X302535600Y-123135000D01*
X288565600Y-123135000D02*
X288565600Y-109165000D01*
%TO.C,SW56*%
X321582500Y-104085000D02*
X307612500Y-104085000D01*
X321582500Y-90115000D02*
X321582500Y-104085000D01*
X307612500Y-90115000D02*
X321582500Y-90115000D01*
X307612500Y-104085000D02*
X307612500Y-90115000D01*
%TO.C,SW69*%
X259990000Y-71065000D02*
X273960000Y-71065000D01*
X273960000Y-85035000D02*
X259990000Y-85035000D01*
X273960000Y-71065000D02*
X273960000Y-85035000D01*
X259990000Y-85035000D02*
X259990000Y-71065000D01*
%TO.C,SW48*%
X254910000Y-71065000D02*
X254910000Y-85035000D01*
X240940000Y-85035000D02*
X240940000Y-71065000D01*
X254910000Y-85035000D02*
X240940000Y-85035000D01*
X240940000Y-71065000D02*
X254910000Y-71065000D01*
%TO.C,SW9*%
X50440000Y-71065000D02*
X64410000Y-71065000D01*
X64410000Y-85035000D02*
X50440000Y-85035000D01*
X50440000Y-85035000D02*
X50440000Y-71065000D01*
X64410000Y-71065000D02*
X64410000Y-85035000D01*
%TO.C,SW43*%
X150135000Y-52015000D02*
X150135000Y-65985000D01*
X136165000Y-52015000D02*
X150135000Y-52015000D01*
X136165000Y-65985000D02*
X136165000Y-52015000D01*
X150135000Y-65985000D02*
X136165000Y-65985000D01*
%TO.C,SW22*%
X92985000Y-65985000D02*
X79015000Y-65985000D01*
X79015000Y-65985000D02*
X79015000Y-52015000D01*
X79015000Y-52015000D02*
X92985000Y-52015000D01*
X92985000Y-52015000D02*
X92985000Y-65985000D01*
%TO.C,SW62*%
X264435000Y-52015000D02*
X264435000Y-65985000D01*
X250465000Y-52015000D02*
X264435000Y-52015000D01*
X264435000Y-65985000D02*
X250465000Y-65985000D01*
X250465000Y-65985000D02*
X250465000Y-52015000D01*
%TO.C,SW14*%
X276341600Y-109165000D02*
X276341600Y-123135000D01*
X262371600Y-123135000D02*
X262371600Y-109165000D01*
X276341600Y-123135000D02*
X262371600Y-123135000D01*
X262371600Y-109165000D02*
X276341600Y-109165000D01*
%TO.C,SW25*%
X83777600Y-123135000D02*
X83777600Y-109165000D01*
X97747600Y-109165000D02*
X97747600Y-123135000D01*
X83777600Y-109165000D02*
X97747600Y-109165000D01*
X97747600Y-123135000D02*
X83777600Y-123135000D01*
%TO.C,SW34*%
X250147600Y-123135000D02*
X236177600Y-123135000D01*
X236177600Y-123135000D02*
X236177600Y-109165000D01*
X236177600Y-109165000D02*
X250147600Y-109165000D01*
X250147600Y-109165000D02*
X250147600Y-123135000D01*
%TO.C,SW7*%
X278722600Y-104085000D02*
X264752600Y-104085000D01*
X278722600Y-90115000D02*
X278722600Y-104085000D01*
X264752600Y-90115000D02*
X278722600Y-90115000D01*
X264752600Y-104085000D02*
X264752600Y-90115000D01*
%TO.C,SW65*%
X202840000Y-85035000D02*
X202840000Y-71065000D01*
X202840000Y-71065000D02*
X216810000Y-71065000D01*
X216810000Y-85035000D02*
X202840000Y-85035000D01*
X216810000Y-71065000D02*
X216810000Y-85035000D01*
%TO.C,SW57*%
X188235000Y-65985000D02*
X174265000Y-65985000D01*
X188235000Y-52015000D02*
X188235000Y-65985000D01*
X174265000Y-65985000D02*
X174265000Y-52015000D01*
X174265000Y-52015000D02*
X188235000Y-52015000D01*
%TO.C,C2*%
X109485000Y-130723752D02*
X109485000Y-130201248D01*
X108015000Y-130723752D02*
X108015000Y-130201248D01*
%TO.C,SW46*%
X154897600Y-109165000D02*
X154897600Y-123135000D01*
X140927600Y-123135000D02*
X140927600Y-109165000D01*
X140927600Y-109165000D02*
X154897600Y-109165000D01*
X154897600Y-123135000D02*
X140927600Y-123135000D01*
%TO.C,R3*%
X114272936Y-51235000D02*
X114727064Y-51235000D01*
X114272936Y-49765000D02*
X114727064Y-49765000D01*
%TO.C,SW67*%
X212047600Y-123135000D02*
X198077600Y-123135000D01*
X198077600Y-123135000D02*
X198077600Y-109165000D01*
X198077600Y-109165000D02*
X212047600Y-109165000D01*
X212047600Y-109165000D02*
X212047600Y-123135000D01*
%TO.C,SW33*%
X212362500Y-128215000D02*
X226332500Y-128215000D01*
X226332500Y-142185000D02*
X212362500Y-142185000D01*
X226332500Y-128215000D02*
X226332500Y-142185000D01*
X212362500Y-142185000D02*
X212362500Y-128215000D01*
%TO.C,SW64*%
X207285000Y-52015000D02*
X207285000Y-65985000D01*
X207285000Y-65985000D02*
X193315000Y-65985000D01*
X193315000Y-52015000D02*
X207285000Y-52015000D01*
X193315000Y-65985000D02*
X193315000Y-52015000D01*
%TO.C,SW2*%
X26627500Y-71065000D02*
X40597500Y-71065000D01*
X40597500Y-71065000D02*
X40597500Y-85035000D01*
X26627500Y-85035000D02*
X26627500Y-71065000D01*
X40597500Y-85035000D02*
X26627500Y-85035000D01*
%TO.C,SW38*%
X131402600Y-104085000D02*
X131402600Y-90115000D01*
X131402600Y-90115000D02*
X145372600Y-90115000D01*
X145372600Y-104085000D02*
X131402600Y-104085000D01*
X145372600Y-90115000D02*
X145372600Y-104085000D01*
%TO.C,SW20*%
X226652600Y-104085000D02*
X226652600Y-90115000D01*
X240622600Y-104085000D02*
X226652600Y-104085000D01*
X226652600Y-90115000D02*
X240622600Y-90115000D01*
X240622600Y-90115000D02*
X240622600Y-104085000D01*
%TO.C,SW52*%
X183472600Y-90115000D02*
X183472600Y-104085000D01*
X169502600Y-104085000D02*
X169502600Y-90115000D01*
X169502600Y-90115000D02*
X183472600Y-90115000D01*
X183472600Y-104085000D02*
X169502600Y-104085000D01*
%TD*%
M02*
