M48
; DRILL file {KiCad (6.0.4)} date Thu 24 Mar 2022 02:10:26 GMT
; FORMAT={-:-/ absolute / inch / decimal}
; #@! TF.CreationDate,2022-03-24T02:10:26+00:00
; #@! TF.GenerationSoftware,Kicad,Pcbnew,(6.0.4)
; #@! TF.FileFunction,Plated,1,2,PTH
FMAT,2
INCH
; #@! TA.AperFunction,Plated,PTH,ViaDrill
T1C0.0157
; #@! TA.AperFunction,Plated,PTH,ComponentDrill
T2C0.0157
; #@! TA.AperFunction,Plated,PTH,ComponentDrill
T3C0.0236
; #@! TA.AperFunction,Plated,PTH,ComponentDrill
T4C0.0354
; #@! TA.AperFunction,Plated,PTH,ComponentDrill
T5C0.0591
%
G90
G05
T1
X4.1245Y-5.5802
X4.5079Y-5.0886
X4.5371Y-5.187
X4.5764Y-5.1874
X4.5968Y-5.4228
X4.6654Y-5.5413
X4.813Y-5.1673
X4.8425Y-4.0551
X5.0689Y-5.3642
X5.1476Y-5.2362
X5.2481Y-5.5335
X5.2759Y-5.562
X5.3051Y-5.4035
X6.6142Y-4.7835
X7.5197Y-5.5797
X7.5787Y-5.7087
X7.608Y-5.6801
X7.6353Y-5.6516
X7.6447Y-5.5813
X7.6571Y-5.6186
T2
X4.4262Y-1.8455
X4.4262Y-1.8986
X4.4596Y-1.8455
X4.4596Y-1.8986
X4.4931Y-1.8455
X4.4931Y-1.8986
X4.5266Y-1.8455
X4.5266Y-1.8986
X4.56Y-1.8455
X4.56Y-1.8986
X4.5935Y-1.8455
X4.5935Y-1.8986
X4.627Y-1.8455
X4.627Y-1.8986
X4.6604Y-1.8455
X4.6604Y-1.8986
T4
X1.3681Y-3.9961
X1.4681Y-3.9961
T5
X0.9858Y-2.2228
X1.0796Y-4.4728
X1.0796Y-5.2228
X1.1733Y-2.9728
X1.2358Y-2.1228
X1.267Y-3.7228
X1.3296Y-4.3728
X1.3296Y-5.1228
X1.4233Y-2.8728
X1.517Y-3.6228
X1.7358Y-2.2228
X1.9233Y-4.4728
X1.9858Y-2.1228
X2.017Y-5.2228
X2.1108Y-2.9728
X2.1733Y-4.3728
X2.267Y-5.1228
X2.2983Y-3.7228
X2.3608Y-2.8728
X2.4858Y-2.2228
X2.5483Y-3.6228
X2.6733Y-4.4728
X2.7358Y-2.1228
X2.8608Y-2.9728
X2.9233Y-4.3728
X2.9545Y-5.2228
X3.0483Y-3.7228
X3.1108Y-2.8728
X3.2045Y-5.1228
X3.2358Y-2.2228
X3.2983Y-3.6228
X3.4233Y-4.4728
X3.4858Y-2.1228
X3.6108Y-2.9728
X3.6733Y-4.3728
X3.7983Y-3.7228
X3.8608Y-2.8728
X3.9858Y-2.2228
X4.0483Y-3.6228
X4.1733Y-4.4728
X4.2358Y-2.1228
X4.3608Y-2.9728
X4.4233Y-4.3728
X4.5483Y-3.7228
X4.6108Y-2.8728
X4.7358Y-2.2228
X4.7983Y-3.6228
X4.9233Y-4.4728
X4.9858Y-2.1228
X5.1108Y-2.9728
X5.1733Y-4.3728
X5.2983Y-3.7228
X5.3608Y-2.8728
X5.4858Y-2.2228
X5.5483Y-3.6228
X5.6733Y-4.4728
X5.7358Y-2.1228
X5.7669Y-5.2228
X5.8608Y-2.9728
X5.9233Y-4.3728
X6.0169Y-5.1228
X6.0483Y-3.7228
X6.1108Y-2.8728
X6.2358Y-2.2228
X6.2983Y-3.6228
X6.4233Y-4.4728
X6.4858Y-2.1228
X6.6108Y-2.9728
X6.6733Y-4.3728
X6.7983Y-3.7228
X6.8608Y-2.8728
X6.9858Y-2.2228
X7.0483Y-3.6228
X7.1733Y-4.4728
X7.2358Y-2.1228
X7.3608Y-2.9728
X7.4233Y-4.3728
X7.5483Y-3.7228
X7.6108Y-2.8728
X7.7358Y-2.2228
X7.7983Y-3.6228
X7.9233Y-4.4728
X7.9858Y-2.1228
X8.1108Y-2.9728
X8.1733Y-4.3728
X8.2983Y-3.7228
X8.3608Y-2.8728
X8.4857Y-5.2228
X8.4858Y-2.2228
X8.5483Y-3.6228
X8.6733Y-4.4728
X8.7357Y-5.1228
X8.7358Y-2.1228
X8.8608Y-2.9728
X8.9233Y-4.3728
X9.0483Y-3.7228
X9.1108Y-2.8728
X9.2357Y-5.2228
X9.2358Y-2.2228
X9.2983Y-3.6228
X9.4233Y-4.4728
X9.4857Y-5.1228
X9.4858Y-2.1228
X9.6108Y-2.9728
X9.6733Y-4.3728
X9.7983Y-3.7228
X9.8608Y-2.8728
X9.9857Y-5.2228
X9.9858Y-2.2228
X10.0483Y-3.6228
X10.2357Y-5.1228
X10.2358Y-2.1228
X10.3608Y-2.9728
X10.4546Y-4.4728
X10.5483Y-3.7228
X10.6108Y-2.8728
X10.7046Y-4.3728
X10.7357Y-5.2228
X10.7983Y-3.6228
X10.9857Y-5.1228
X11.1108Y-2.2228
X11.3608Y-2.1228
X11.392Y-3.3478
X11.4857Y-5.2228
X11.4859Y-4.4728
X11.642Y-3.2478
X11.7357Y-5.1228
X11.7359Y-4.3728
X12.2357Y-2.2228
X12.2357Y-2.9728
X12.2357Y-3.7228
X12.2357Y-4.4728
X12.2357Y-5.2228
X12.4857Y-2.1228
X12.4857Y-2.8728
X12.4857Y-3.6228
X12.4857Y-4.3728
X12.4857Y-5.1228
T3
G00X4.373Y-1.7112
M15
G01X4.373Y-1.7427
M16
G05
G00X4.373Y-1.8305
M15
G01X4.373Y-1.8896
M16
G05
G00X4.7136Y-1.7112
M15
G01X4.7136Y-1.7427
M16
G05
G00X4.7136Y-1.8305
M15
G01X4.7136Y-1.8896
M16
G05
T0
M30
