%TF.GenerationSoftware,KiCad,Pcbnew,(6.0.4)*%
%TF.CreationDate,2022-03-24T02:10:14+00:00*%
%TF.ProjectId,kbd,6b62642e-6b69-4636-9164-5f7063625858,rev?*%
%TF.SameCoordinates,Original*%
%TF.FileFunction,Legend,Bot*%
%TF.FilePolarity,Positive*%
%FSLAX46Y46*%
G04 Gerber Fmt 4.6, Leading zero omitted, Abs format (unit mm)*
G04 Created by KiCad (PCBNEW (6.0.4)) date 2022-03-24 02:10:14*
%MOMM*%
%LPD*%
G01*
G04 APERTURE LIST*
%ADD10C,0.150000*%
%ADD11C,0.120000*%
G04 APERTURE END LIST*
D10*
%TO.C,R5*%
X115916666Y-134802380D02*
X116250000Y-134326190D01*
X116488095Y-134802380D02*
X116488095Y-133802380D01*
X116107142Y-133802380D01*
X116011904Y-133850000D01*
X115964285Y-133897619D01*
X115916666Y-133992857D01*
X115916666Y-134135714D01*
X115964285Y-134230952D01*
X116011904Y-134278571D01*
X116107142Y-134326190D01*
X116488095Y-134326190D01*
X115011904Y-133802380D02*
X115488095Y-133802380D01*
X115535714Y-134278571D01*
X115488095Y-134230952D01*
X115392857Y-134183333D01*
X115154761Y-134183333D01*
X115059523Y-134230952D01*
X115011904Y-134278571D01*
X114964285Y-134373809D01*
X114964285Y-134611904D01*
X115011904Y-134707142D01*
X115059523Y-134754761D01*
X115154761Y-134802380D01*
X115392857Y-134802380D01*
X115488095Y-134754761D01*
X115535714Y-134707142D01*
%TO.C,D57*%
X243214285Y-66452380D02*
X243214285Y-65452380D01*
X242976190Y-65452380D01*
X242833333Y-65500000D01*
X242738095Y-65595238D01*
X242690476Y-65690476D01*
X242642857Y-65880952D01*
X242642857Y-66023809D01*
X242690476Y-66214285D01*
X242738095Y-66309523D01*
X242833333Y-66404761D01*
X242976190Y-66452380D01*
X243214285Y-66452380D01*
X241738095Y-65452380D02*
X242214285Y-65452380D01*
X242261904Y-65928571D01*
X242214285Y-65880952D01*
X242119047Y-65833333D01*
X241880952Y-65833333D01*
X241785714Y-65880952D01*
X241738095Y-65928571D01*
X241690476Y-66023809D01*
X241690476Y-66261904D01*
X241738095Y-66357142D01*
X241785714Y-66404761D01*
X241880952Y-66452380D01*
X242119047Y-66452380D01*
X242214285Y-66404761D01*
X242261904Y-66357142D01*
X241357142Y-65452380D02*
X240690476Y-65452380D01*
X241119047Y-66452380D01*
%TO.C,D59*%
X271714285Y-84952380D02*
X271714285Y-83952380D01*
X271476190Y-83952380D01*
X271333333Y-84000000D01*
X271238095Y-84095238D01*
X271190476Y-84190476D01*
X271142857Y-84380952D01*
X271142857Y-84523809D01*
X271190476Y-84714285D01*
X271238095Y-84809523D01*
X271333333Y-84904761D01*
X271476190Y-84952380D01*
X271714285Y-84952380D01*
X270238095Y-83952380D02*
X270714285Y-83952380D01*
X270761904Y-84428571D01*
X270714285Y-84380952D01*
X270619047Y-84333333D01*
X270380952Y-84333333D01*
X270285714Y-84380952D01*
X270238095Y-84428571D01*
X270190476Y-84523809D01*
X270190476Y-84761904D01*
X270238095Y-84857142D01*
X270285714Y-84904761D01*
X270380952Y-84952380D01*
X270619047Y-84952380D01*
X270714285Y-84904761D01*
X270761904Y-84857142D01*
X269714285Y-84952380D02*
X269523809Y-84952380D01*
X269428571Y-84904761D01*
X269380952Y-84857142D01*
X269285714Y-84714285D01*
X269238095Y-84523809D01*
X269238095Y-84142857D01*
X269285714Y-84047619D01*
X269333333Y-84000000D01*
X269428571Y-83952380D01*
X269619047Y-83952380D01*
X269714285Y-84000000D01*
X269761904Y-84047619D01*
X269809523Y-84142857D01*
X269809523Y-84380952D01*
X269761904Y-84476190D01*
X269714285Y-84523809D01*
X269619047Y-84571428D01*
X269428571Y-84571428D01*
X269333333Y-84523809D01*
X269285714Y-84476190D01*
X269238095Y-84380952D01*
%TO.C,D65*%
X319714285Y-66452380D02*
X319714285Y-65452380D01*
X319476190Y-65452380D01*
X319333333Y-65500000D01*
X319238095Y-65595238D01*
X319190476Y-65690476D01*
X319142857Y-65880952D01*
X319142857Y-66023809D01*
X319190476Y-66214285D01*
X319238095Y-66309523D01*
X319333333Y-66404761D01*
X319476190Y-66452380D01*
X319714285Y-66452380D01*
X318285714Y-65452380D02*
X318476190Y-65452380D01*
X318571428Y-65500000D01*
X318619047Y-65547619D01*
X318714285Y-65690476D01*
X318761904Y-65880952D01*
X318761904Y-66261904D01*
X318714285Y-66357142D01*
X318666666Y-66404761D01*
X318571428Y-66452380D01*
X318380952Y-66452380D01*
X318285714Y-66404761D01*
X318238095Y-66357142D01*
X318190476Y-66261904D01*
X318190476Y-66023809D01*
X318238095Y-65928571D01*
X318285714Y-65880952D01*
X318380952Y-65833333D01*
X318571428Y-65833333D01*
X318666666Y-65880952D01*
X318714285Y-65928571D01*
X318761904Y-66023809D01*
X317285714Y-65452380D02*
X317761904Y-65452380D01*
X317809523Y-65928571D01*
X317761904Y-65880952D01*
X317666666Y-65833333D01*
X317428571Y-65833333D01*
X317333333Y-65880952D01*
X317285714Y-65928571D01*
X317238095Y-66023809D01*
X317238095Y-66261904D01*
X317285714Y-66357142D01*
X317333333Y-66404761D01*
X317428571Y-66452380D01*
X317666666Y-66452380D01*
X317761904Y-66404761D01*
X317809523Y-66357142D01*
%TO.C,D61*%
X298214285Y-94952380D02*
X298214285Y-93952380D01*
X297976190Y-93952380D01*
X297833333Y-94000000D01*
X297738095Y-94095238D01*
X297690476Y-94190476D01*
X297642857Y-94380952D01*
X297642857Y-94523809D01*
X297690476Y-94714285D01*
X297738095Y-94809523D01*
X297833333Y-94904761D01*
X297976190Y-94952380D01*
X298214285Y-94952380D01*
X296785714Y-93952380D02*
X296976190Y-93952380D01*
X297071428Y-94000000D01*
X297119047Y-94047619D01*
X297214285Y-94190476D01*
X297261904Y-94380952D01*
X297261904Y-94761904D01*
X297214285Y-94857142D01*
X297166666Y-94904761D01*
X297071428Y-94952380D01*
X296880952Y-94952380D01*
X296785714Y-94904761D01*
X296738095Y-94857142D01*
X296690476Y-94761904D01*
X296690476Y-94523809D01*
X296738095Y-94428571D01*
X296785714Y-94380952D01*
X296880952Y-94333333D01*
X297071428Y-94333333D01*
X297166666Y-94380952D01*
X297214285Y-94428571D01*
X297261904Y-94523809D01*
X295738095Y-94952380D02*
X296309523Y-94952380D01*
X296023809Y-94952380D02*
X296023809Y-93952380D01*
X296119047Y-94095238D01*
X296214285Y-94190476D01*
X296309523Y-94238095D01*
%TO.C,D60*%
X276714285Y-104452380D02*
X276714285Y-103452380D01*
X276476190Y-103452380D01*
X276333333Y-103500000D01*
X276238095Y-103595238D01*
X276190476Y-103690476D01*
X276142857Y-103880952D01*
X276142857Y-104023809D01*
X276190476Y-104214285D01*
X276238095Y-104309523D01*
X276333333Y-104404761D01*
X276476190Y-104452380D01*
X276714285Y-104452380D01*
X275285714Y-103452380D02*
X275476190Y-103452380D01*
X275571428Y-103500000D01*
X275619047Y-103547619D01*
X275714285Y-103690476D01*
X275761904Y-103880952D01*
X275761904Y-104261904D01*
X275714285Y-104357142D01*
X275666666Y-104404761D01*
X275571428Y-104452380D01*
X275380952Y-104452380D01*
X275285714Y-104404761D01*
X275238095Y-104357142D01*
X275190476Y-104261904D01*
X275190476Y-104023809D01*
X275238095Y-103928571D01*
X275285714Y-103880952D01*
X275380952Y-103833333D01*
X275571428Y-103833333D01*
X275666666Y-103880952D01*
X275714285Y-103928571D01*
X275761904Y-104023809D01*
X274571428Y-103452380D02*
X274476190Y-103452380D01*
X274380952Y-103500000D01*
X274333333Y-103547619D01*
X274285714Y-103642857D01*
X274238095Y-103833333D01*
X274238095Y-104071428D01*
X274285714Y-104261904D01*
X274333333Y-104357142D01*
X274380952Y-104404761D01*
X274476190Y-104452380D01*
X274571428Y-104452380D01*
X274666666Y-104404761D01*
X274714285Y-104357142D01*
X274761904Y-104261904D01*
X274809523Y-104071428D01*
X274809523Y-103833333D01*
X274761904Y-103642857D01*
X274714285Y-103547619D01*
X274666666Y-103500000D01*
X274571428Y-103452380D01*
%TO.C,D33*%
X162714285Y-104452380D02*
X162714285Y-103452380D01*
X162476190Y-103452380D01*
X162333333Y-103500000D01*
X162238095Y-103595238D01*
X162190476Y-103690476D01*
X162142857Y-103880952D01*
X162142857Y-104023809D01*
X162190476Y-104214285D01*
X162238095Y-104309523D01*
X162333333Y-104404761D01*
X162476190Y-104452380D01*
X162714285Y-104452380D01*
X161809523Y-103452380D02*
X161190476Y-103452380D01*
X161523809Y-103833333D01*
X161380952Y-103833333D01*
X161285714Y-103880952D01*
X161238095Y-103928571D01*
X161190476Y-104023809D01*
X161190476Y-104261904D01*
X161238095Y-104357142D01*
X161285714Y-104404761D01*
X161380952Y-104452380D01*
X161666666Y-104452380D01*
X161761904Y-104404761D01*
X161809523Y-104357142D01*
X160857142Y-103452380D02*
X160238095Y-103452380D01*
X160571428Y-103833333D01*
X160428571Y-103833333D01*
X160333333Y-103880952D01*
X160285714Y-103928571D01*
X160238095Y-104023809D01*
X160238095Y-104261904D01*
X160285714Y-104357142D01*
X160333333Y-104404761D01*
X160428571Y-104452380D01*
X160714285Y-104452380D01*
X160809523Y-104404761D01*
X160857142Y-104357142D01*
%TO.C,D38*%
X195714285Y-85452380D02*
X195714285Y-84452380D01*
X195476190Y-84452380D01*
X195333333Y-84500000D01*
X195238095Y-84595238D01*
X195190476Y-84690476D01*
X195142857Y-84880952D01*
X195142857Y-85023809D01*
X195190476Y-85214285D01*
X195238095Y-85309523D01*
X195333333Y-85404761D01*
X195476190Y-85452380D01*
X195714285Y-85452380D01*
X194809523Y-84452380D02*
X194190476Y-84452380D01*
X194523809Y-84833333D01*
X194380952Y-84833333D01*
X194285714Y-84880952D01*
X194238095Y-84928571D01*
X194190476Y-85023809D01*
X194190476Y-85261904D01*
X194238095Y-85357142D01*
X194285714Y-85404761D01*
X194380952Y-85452380D01*
X194666666Y-85452380D01*
X194761904Y-85404761D01*
X194809523Y-85357142D01*
X193619047Y-84880952D02*
X193714285Y-84833333D01*
X193761904Y-84785714D01*
X193809523Y-84690476D01*
X193809523Y-84642857D01*
X193761904Y-84547619D01*
X193714285Y-84500000D01*
X193619047Y-84452380D01*
X193428571Y-84452380D01*
X193333333Y-84500000D01*
X193285714Y-84547619D01*
X193238095Y-84642857D01*
X193238095Y-84690476D01*
X193285714Y-84785714D01*
X193333333Y-84833333D01*
X193428571Y-84880952D01*
X193619047Y-84880952D01*
X193714285Y-84928571D01*
X193761904Y-84976190D01*
X193809523Y-85071428D01*
X193809523Y-85261904D01*
X193761904Y-85357142D01*
X193714285Y-85404761D01*
X193619047Y-85452380D01*
X193428571Y-85452380D01*
X193333333Y-85404761D01*
X193285714Y-85357142D01*
X193238095Y-85261904D01*
X193238095Y-85071428D01*
X193285714Y-84976190D01*
X193333333Y-84928571D01*
X193428571Y-84880952D01*
%TO.C,D55*%
X262544285Y-142602380D02*
X262544285Y-141602380D01*
X262306190Y-141602380D01*
X262163333Y-141650000D01*
X262068095Y-141745238D01*
X262020476Y-141840476D01*
X261972857Y-142030952D01*
X261972857Y-142173809D01*
X262020476Y-142364285D01*
X262068095Y-142459523D01*
X262163333Y-142554761D01*
X262306190Y-142602380D01*
X262544285Y-142602380D01*
X261068095Y-141602380D02*
X261544285Y-141602380D01*
X261591904Y-142078571D01*
X261544285Y-142030952D01*
X261449047Y-141983333D01*
X261210952Y-141983333D01*
X261115714Y-142030952D01*
X261068095Y-142078571D01*
X261020476Y-142173809D01*
X261020476Y-142411904D01*
X261068095Y-142507142D01*
X261115714Y-142554761D01*
X261210952Y-142602380D01*
X261449047Y-142602380D01*
X261544285Y-142554761D01*
X261591904Y-142507142D01*
X260115714Y-141602380D02*
X260591904Y-141602380D01*
X260639523Y-142078571D01*
X260591904Y-142030952D01*
X260496666Y-141983333D01*
X260258571Y-141983333D01*
X260163333Y-142030952D01*
X260115714Y-142078571D01*
X260068095Y-142173809D01*
X260068095Y-142411904D01*
X260115714Y-142507142D01*
X260163333Y-142554761D01*
X260258571Y-142602380D01*
X260496666Y-142602380D01*
X260591904Y-142554761D01*
X260639523Y-142507142D01*
%TO.C,D36*%
X167214285Y-66452380D02*
X167214285Y-65452380D01*
X166976190Y-65452380D01*
X166833333Y-65500000D01*
X166738095Y-65595238D01*
X166690476Y-65690476D01*
X166642857Y-65880952D01*
X166642857Y-66023809D01*
X166690476Y-66214285D01*
X166738095Y-66309523D01*
X166833333Y-66404761D01*
X166976190Y-66452380D01*
X167214285Y-66452380D01*
X166309523Y-65452380D02*
X165690476Y-65452380D01*
X166023809Y-65833333D01*
X165880952Y-65833333D01*
X165785714Y-65880952D01*
X165738095Y-65928571D01*
X165690476Y-66023809D01*
X165690476Y-66261904D01*
X165738095Y-66357142D01*
X165785714Y-66404761D01*
X165880952Y-66452380D01*
X166166666Y-66452380D01*
X166261904Y-66404761D01*
X166309523Y-66357142D01*
X164833333Y-65452380D02*
X165023809Y-65452380D01*
X165119047Y-65500000D01*
X165166666Y-65547619D01*
X165261904Y-65690476D01*
X165309523Y-65880952D01*
X165309523Y-66261904D01*
X165261904Y-66357142D01*
X165214285Y-66404761D01*
X165119047Y-66452380D01*
X164928571Y-66452380D01*
X164833333Y-66404761D01*
X164785714Y-66357142D01*
X164738095Y-66261904D01*
X164738095Y-66023809D01*
X164785714Y-65928571D01*
X164833333Y-65880952D01*
X164928571Y-65833333D01*
X165119047Y-65833333D01*
X165214285Y-65880952D01*
X165261904Y-65928571D01*
X165309523Y-66023809D01*
%TO.C,D13*%
X155214285Y-142952380D02*
X155214285Y-141952380D01*
X154976190Y-141952380D01*
X154833333Y-142000000D01*
X154738095Y-142095238D01*
X154690476Y-142190476D01*
X154642857Y-142380952D01*
X154642857Y-142523809D01*
X154690476Y-142714285D01*
X154738095Y-142809523D01*
X154833333Y-142904761D01*
X154976190Y-142952380D01*
X155214285Y-142952380D01*
X153690476Y-142952380D02*
X154261904Y-142952380D01*
X153976190Y-142952380D02*
X153976190Y-141952380D01*
X154071428Y-142095238D01*
X154166666Y-142190476D01*
X154261904Y-142238095D01*
X153357142Y-141952380D02*
X152738095Y-141952380D01*
X153071428Y-142333333D01*
X152928571Y-142333333D01*
X152833333Y-142380952D01*
X152785714Y-142428571D01*
X152738095Y-142523809D01*
X152738095Y-142761904D01*
X152785714Y-142857142D01*
X152833333Y-142904761D01*
X152928571Y-142952380D01*
X153214285Y-142952380D01*
X153309523Y-142904761D01*
X153357142Y-142857142D01*
%TO.C,D17*%
X86214285Y-104452380D02*
X86214285Y-103452380D01*
X85976190Y-103452380D01*
X85833333Y-103500000D01*
X85738095Y-103595238D01*
X85690476Y-103690476D01*
X85642857Y-103880952D01*
X85642857Y-104023809D01*
X85690476Y-104214285D01*
X85738095Y-104309523D01*
X85833333Y-104404761D01*
X85976190Y-104452380D01*
X86214285Y-104452380D01*
X84690476Y-104452380D02*
X85261904Y-104452380D01*
X84976190Y-104452380D02*
X84976190Y-103452380D01*
X85071428Y-103595238D01*
X85166666Y-103690476D01*
X85261904Y-103738095D01*
X84357142Y-103452380D02*
X83690476Y-103452380D01*
X84119047Y-104452380D01*
%TO.C,D51*%
X233714285Y-85452380D02*
X233714285Y-84452380D01*
X233476190Y-84452380D01*
X233333333Y-84500000D01*
X233238095Y-84595238D01*
X233190476Y-84690476D01*
X233142857Y-84880952D01*
X233142857Y-85023809D01*
X233190476Y-85214285D01*
X233238095Y-85309523D01*
X233333333Y-85404761D01*
X233476190Y-85452380D01*
X233714285Y-85452380D01*
X232238095Y-84452380D02*
X232714285Y-84452380D01*
X232761904Y-84928571D01*
X232714285Y-84880952D01*
X232619047Y-84833333D01*
X232380952Y-84833333D01*
X232285714Y-84880952D01*
X232238095Y-84928571D01*
X232190476Y-85023809D01*
X232190476Y-85261904D01*
X232238095Y-85357142D01*
X232285714Y-85404761D01*
X232380952Y-85452380D01*
X232619047Y-85452380D01*
X232714285Y-85404761D01*
X232761904Y-85357142D01*
X231238095Y-85452380D02*
X231809523Y-85452380D01*
X231523809Y-85452380D02*
X231523809Y-84452380D01*
X231619047Y-84595238D01*
X231714285Y-84690476D01*
X231809523Y-84738095D01*
%TO.C,D28*%
X171714285Y-123452380D02*
X171714285Y-122452380D01*
X171476190Y-122452380D01*
X171333333Y-122500000D01*
X171238095Y-122595238D01*
X171190476Y-122690476D01*
X171142857Y-122880952D01*
X171142857Y-123023809D01*
X171190476Y-123214285D01*
X171238095Y-123309523D01*
X171333333Y-123404761D01*
X171476190Y-123452380D01*
X171714285Y-123452380D01*
X170761904Y-122547619D02*
X170714285Y-122500000D01*
X170619047Y-122452380D01*
X170380952Y-122452380D01*
X170285714Y-122500000D01*
X170238095Y-122547619D01*
X170190476Y-122642857D01*
X170190476Y-122738095D01*
X170238095Y-122880952D01*
X170809523Y-123452380D01*
X170190476Y-123452380D01*
X169619047Y-122880952D02*
X169714285Y-122833333D01*
X169761904Y-122785714D01*
X169809523Y-122690476D01*
X169809523Y-122642857D01*
X169761904Y-122547619D01*
X169714285Y-122500000D01*
X169619047Y-122452380D01*
X169428571Y-122452380D01*
X169333333Y-122500000D01*
X169285714Y-122547619D01*
X169238095Y-122642857D01*
X169238095Y-122690476D01*
X169285714Y-122785714D01*
X169333333Y-122833333D01*
X169428571Y-122880952D01*
X169619047Y-122880952D01*
X169714285Y-122928571D01*
X169761904Y-122976190D01*
X169809523Y-123071428D01*
X169809523Y-123261904D01*
X169761904Y-123357142D01*
X169714285Y-123404761D01*
X169619047Y-123452380D01*
X169428571Y-123452380D01*
X169333333Y-123404761D01*
X169285714Y-123357142D01*
X169238095Y-123261904D01*
X169238095Y-123071428D01*
X169285714Y-122976190D01*
X169333333Y-122928571D01*
X169428571Y-122880952D01*
%TO.C,D67*%
X319714285Y-104452380D02*
X319714285Y-103452380D01*
X319476190Y-103452380D01*
X319333333Y-103500000D01*
X319238095Y-103595238D01*
X319190476Y-103690476D01*
X319142857Y-103880952D01*
X319142857Y-104023809D01*
X319190476Y-104214285D01*
X319238095Y-104309523D01*
X319333333Y-104404761D01*
X319476190Y-104452380D01*
X319714285Y-104452380D01*
X318285714Y-103452380D02*
X318476190Y-103452380D01*
X318571428Y-103500000D01*
X318619047Y-103547619D01*
X318714285Y-103690476D01*
X318761904Y-103880952D01*
X318761904Y-104261904D01*
X318714285Y-104357142D01*
X318666666Y-104404761D01*
X318571428Y-104452380D01*
X318380952Y-104452380D01*
X318285714Y-104404761D01*
X318238095Y-104357142D01*
X318190476Y-104261904D01*
X318190476Y-104023809D01*
X318238095Y-103928571D01*
X318285714Y-103880952D01*
X318380952Y-103833333D01*
X318571428Y-103833333D01*
X318666666Y-103880952D01*
X318714285Y-103928571D01*
X318761904Y-104023809D01*
X317857142Y-103452380D02*
X317190476Y-103452380D01*
X317619047Y-104452380D01*
%TO.C,D54*%
X274214285Y-123452380D02*
X274214285Y-122452380D01*
X273976190Y-122452380D01*
X273833333Y-122500000D01*
X273738095Y-122595238D01*
X273690476Y-122690476D01*
X273642857Y-122880952D01*
X273642857Y-123023809D01*
X273690476Y-123214285D01*
X273738095Y-123309523D01*
X273833333Y-123404761D01*
X273976190Y-123452380D01*
X274214285Y-123452380D01*
X272738095Y-122452380D02*
X273214285Y-122452380D01*
X273261904Y-122928571D01*
X273214285Y-122880952D01*
X273119047Y-122833333D01*
X272880952Y-122833333D01*
X272785714Y-122880952D01*
X272738095Y-122928571D01*
X272690476Y-123023809D01*
X272690476Y-123261904D01*
X272738095Y-123357142D01*
X272785714Y-123404761D01*
X272880952Y-123452380D01*
X273119047Y-123452380D01*
X273214285Y-123404761D01*
X273261904Y-123357142D01*
X271833333Y-122785714D02*
X271833333Y-123452380D01*
X272071428Y-122404761D02*
X272309523Y-123119047D01*
X271690476Y-123119047D01*
%TO.C,D56*%
X281714285Y-142452380D02*
X281714285Y-141452380D01*
X281476190Y-141452380D01*
X281333333Y-141500000D01*
X281238095Y-141595238D01*
X281190476Y-141690476D01*
X281142857Y-141880952D01*
X281142857Y-142023809D01*
X281190476Y-142214285D01*
X281238095Y-142309523D01*
X281333333Y-142404761D01*
X281476190Y-142452380D01*
X281714285Y-142452380D01*
X280238095Y-141452380D02*
X280714285Y-141452380D01*
X280761904Y-141928571D01*
X280714285Y-141880952D01*
X280619047Y-141833333D01*
X280380952Y-141833333D01*
X280285714Y-141880952D01*
X280238095Y-141928571D01*
X280190476Y-142023809D01*
X280190476Y-142261904D01*
X280238095Y-142357142D01*
X280285714Y-142404761D01*
X280380952Y-142452380D01*
X280619047Y-142452380D01*
X280714285Y-142404761D01*
X280761904Y-142357142D01*
X279333333Y-141452380D02*
X279523809Y-141452380D01*
X279619047Y-141500000D01*
X279666666Y-141547619D01*
X279761904Y-141690476D01*
X279809523Y-141880952D01*
X279809523Y-142261904D01*
X279761904Y-142357142D01*
X279714285Y-142404761D01*
X279619047Y-142452380D01*
X279428571Y-142452380D01*
X279333333Y-142404761D01*
X279285714Y-142357142D01*
X279238095Y-142261904D01*
X279238095Y-142023809D01*
X279285714Y-141928571D01*
X279333333Y-141880952D01*
X279428571Y-141833333D01*
X279619047Y-141833333D01*
X279714285Y-141880952D01*
X279761904Y-141928571D01*
X279809523Y-142023809D01*
%TO.C,D39*%
X200714285Y-104452380D02*
X200714285Y-103452380D01*
X200476190Y-103452380D01*
X200333333Y-103500000D01*
X200238095Y-103595238D01*
X200190476Y-103690476D01*
X200142857Y-103880952D01*
X200142857Y-104023809D01*
X200190476Y-104214285D01*
X200238095Y-104309523D01*
X200333333Y-104404761D01*
X200476190Y-104452380D01*
X200714285Y-104452380D01*
X199809523Y-103452380D02*
X199190476Y-103452380D01*
X199523809Y-103833333D01*
X199380952Y-103833333D01*
X199285714Y-103880952D01*
X199238095Y-103928571D01*
X199190476Y-104023809D01*
X199190476Y-104261904D01*
X199238095Y-104357142D01*
X199285714Y-104404761D01*
X199380952Y-104452380D01*
X199666666Y-104452380D01*
X199761904Y-104404761D01*
X199809523Y-104357142D01*
X198714285Y-104452380D02*
X198523809Y-104452380D01*
X198428571Y-104404761D01*
X198380952Y-104357142D01*
X198285714Y-104214285D01*
X198238095Y-104023809D01*
X198238095Y-103642857D01*
X198285714Y-103547619D01*
X198333333Y-103500000D01*
X198428571Y-103452380D01*
X198619047Y-103452380D01*
X198714285Y-103500000D01*
X198761904Y-103547619D01*
X198809523Y-103642857D01*
X198809523Y-103880952D01*
X198761904Y-103976190D01*
X198714285Y-104023809D01*
X198619047Y-104071428D01*
X198428571Y-104071428D01*
X198333333Y-104023809D01*
X198285714Y-103976190D01*
X198238095Y-103880952D01*
%TO.C,D63*%
X300714285Y-142452380D02*
X300714285Y-141452380D01*
X300476190Y-141452380D01*
X300333333Y-141500000D01*
X300238095Y-141595238D01*
X300190476Y-141690476D01*
X300142857Y-141880952D01*
X300142857Y-142023809D01*
X300190476Y-142214285D01*
X300238095Y-142309523D01*
X300333333Y-142404761D01*
X300476190Y-142452380D01*
X300714285Y-142452380D01*
X299285714Y-141452380D02*
X299476190Y-141452380D01*
X299571428Y-141500000D01*
X299619047Y-141547619D01*
X299714285Y-141690476D01*
X299761904Y-141880952D01*
X299761904Y-142261904D01*
X299714285Y-142357142D01*
X299666666Y-142404761D01*
X299571428Y-142452380D01*
X299380952Y-142452380D01*
X299285714Y-142404761D01*
X299238095Y-142357142D01*
X299190476Y-142261904D01*
X299190476Y-142023809D01*
X299238095Y-141928571D01*
X299285714Y-141880952D01*
X299380952Y-141833333D01*
X299571428Y-141833333D01*
X299666666Y-141880952D01*
X299714285Y-141928571D01*
X299761904Y-142023809D01*
X298857142Y-141452380D02*
X298238095Y-141452380D01*
X298571428Y-141833333D01*
X298428571Y-141833333D01*
X298333333Y-141880952D01*
X298285714Y-141928571D01*
X298238095Y-142023809D01*
X298238095Y-142261904D01*
X298285714Y-142357142D01*
X298333333Y-142404761D01*
X298428571Y-142452380D01*
X298714285Y-142452380D01*
X298809523Y-142404761D01*
X298857142Y-142357142D01*
%TO.C,D68*%
X319714285Y-123452380D02*
X319714285Y-122452380D01*
X319476190Y-122452380D01*
X319333333Y-122500000D01*
X319238095Y-122595238D01*
X319190476Y-122690476D01*
X319142857Y-122880952D01*
X319142857Y-123023809D01*
X319190476Y-123214285D01*
X319238095Y-123309523D01*
X319333333Y-123404761D01*
X319476190Y-123452380D01*
X319714285Y-123452380D01*
X318285714Y-122452380D02*
X318476190Y-122452380D01*
X318571428Y-122500000D01*
X318619047Y-122547619D01*
X318714285Y-122690476D01*
X318761904Y-122880952D01*
X318761904Y-123261904D01*
X318714285Y-123357142D01*
X318666666Y-123404761D01*
X318571428Y-123452380D01*
X318380952Y-123452380D01*
X318285714Y-123404761D01*
X318238095Y-123357142D01*
X318190476Y-123261904D01*
X318190476Y-123023809D01*
X318238095Y-122928571D01*
X318285714Y-122880952D01*
X318380952Y-122833333D01*
X318571428Y-122833333D01*
X318666666Y-122880952D01*
X318714285Y-122928571D01*
X318761904Y-123023809D01*
X317619047Y-122880952D02*
X317714285Y-122833333D01*
X317761904Y-122785714D01*
X317809523Y-122690476D01*
X317809523Y-122642857D01*
X317761904Y-122547619D01*
X317714285Y-122500000D01*
X317619047Y-122452380D01*
X317428571Y-122452380D01*
X317333333Y-122500000D01*
X317285714Y-122547619D01*
X317238095Y-122642857D01*
X317238095Y-122690476D01*
X317285714Y-122785714D01*
X317333333Y-122833333D01*
X317428571Y-122880952D01*
X317619047Y-122880952D01*
X317714285Y-122928571D01*
X317761904Y-122976190D01*
X317809523Y-123071428D01*
X317809523Y-123261904D01*
X317761904Y-123357142D01*
X317714285Y-123404761D01*
X317619047Y-123452380D01*
X317428571Y-123452380D01*
X317333333Y-123404761D01*
X317285714Y-123357142D01*
X317238095Y-123261904D01*
X317238095Y-123071428D01*
X317285714Y-122976190D01*
X317333333Y-122928571D01*
X317428571Y-122880952D01*
%TO.C,D31*%
X148214285Y-66452380D02*
X148214285Y-65452380D01*
X147976190Y-65452380D01*
X147833333Y-65500000D01*
X147738095Y-65595238D01*
X147690476Y-65690476D01*
X147642857Y-65880952D01*
X147642857Y-66023809D01*
X147690476Y-66214285D01*
X147738095Y-66309523D01*
X147833333Y-66404761D01*
X147976190Y-66452380D01*
X148214285Y-66452380D01*
X147309523Y-65452380D02*
X146690476Y-65452380D01*
X147023809Y-65833333D01*
X146880952Y-65833333D01*
X146785714Y-65880952D01*
X146738095Y-65928571D01*
X146690476Y-66023809D01*
X146690476Y-66261904D01*
X146738095Y-66357142D01*
X146785714Y-66404761D01*
X146880952Y-66452380D01*
X147166666Y-66452380D01*
X147261904Y-66404761D01*
X147309523Y-66357142D01*
X145738095Y-66452380D02*
X146309523Y-66452380D01*
X146023809Y-66452380D02*
X146023809Y-65452380D01*
X146119047Y-65595238D01*
X146214285Y-65690476D01*
X146309523Y-65738095D01*
%TO.C,D9*%
X62238095Y-85452380D02*
X62238095Y-84452380D01*
X62000000Y-84452380D01*
X61857142Y-84500000D01*
X61761904Y-84595238D01*
X61714285Y-84690476D01*
X61666666Y-84880952D01*
X61666666Y-85023809D01*
X61714285Y-85214285D01*
X61761904Y-85309523D01*
X61857142Y-85404761D01*
X62000000Y-85452380D01*
X62238095Y-85452380D01*
X61190476Y-85452380D02*
X61000000Y-85452380D01*
X60904761Y-85404761D01*
X60857142Y-85357142D01*
X60761904Y-85214285D01*
X60714285Y-85023809D01*
X60714285Y-84642857D01*
X60761904Y-84547619D01*
X60809523Y-84500000D01*
X60904761Y-84452380D01*
X61095238Y-84452380D01*
X61190476Y-84500000D01*
X61238095Y-84547619D01*
X61285714Y-84642857D01*
X61285714Y-84880952D01*
X61238095Y-84976190D01*
X61190476Y-85023809D01*
X61095238Y-85071428D01*
X60904761Y-85071428D01*
X60809523Y-85023809D01*
X60761904Y-84976190D01*
X60714285Y-84880952D01*
%TO.C,D35*%
X191214285Y-123452380D02*
X191214285Y-122452380D01*
X190976190Y-122452380D01*
X190833333Y-122500000D01*
X190738095Y-122595238D01*
X190690476Y-122690476D01*
X190642857Y-122880952D01*
X190642857Y-123023809D01*
X190690476Y-123214285D01*
X190738095Y-123309523D01*
X190833333Y-123404761D01*
X190976190Y-123452380D01*
X191214285Y-123452380D01*
X190309523Y-122452380D02*
X189690476Y-122452380D01*
X190023809Y-122833333D01*
X189880952Y-122833333D01*
X189785714Y-122880952D01*
X189738095Y-122928571D01*
X189690476Y-123023809D01*
X189690476Y-123261904D01*
X189738095Y-123357142D01*
X189785714Y-123404761D01*
X189880952Y-123452380D01*
X190166666Y-123452380D01*
X190261904Y-123404761D01*
X190309523Y-123357142D01*
X188785714Y-122452380D02*
X189261904Y-122452380D01*
X189309523Y-122928571D01*
X189261904Y-122880952D01*
X189166666Y-122833333D01*
X188928571Y-122833333D01*
X188833333Y-122880952D01*
X188785714Y-122928571D01*
X188738095Y-123023809D01*
X188738095Y-123261904D01*
X188785714Y-123357142D01*
X188833333Y-123404761D01*
X188928571Y-123452380D01*
X189166666Y-123452380D01*
X189261904Y-123404761D01*
X189309523Y-123357142D01*
%TO.C,D49*%
X243714285Y-142452380D02*
X243714285Y-141452380D01*
X243476190Y-141452380D01*
X243333333Y-141500000D01*
X243238095Y-141595238D01*
X243190476Y-141690476D01*
X243142857Y-141880952D01*
X243142857Y-142023809D01*
X243190476Y-142214285D01*
X243238095Y-142309523D01*
X243333333Y-142404761D01*
X243476190Y-142452380D01*
X243714285Y-142452380D01*
X242285714Y-141785714D02*
X242285714Y-142452380D01*
X242523809Y-141404761D02*
X242761904Y-142119047D01*
X242142857Y-142119047D01*
X241714285Y-142452380D02*
X241523809Y-142452380D01*
X241428571Y-142404761D01*
X241380952Y-142357142D01*
X241285714Y-142214285D01*
X241238095Y-142023809D01*
X241238095Y-141642857D01*
X241285714Y-141547619D01*
X241333333Y-141500000D01*
X241428571Y-141452380D01*
X241619047Y-141452380D01*
X241714285Y-141500000D01*
X241761904Y-141547619D01*
X241809523Y-141642857D01*
X241809523Y-141880952D01*
X241761904Y-141976190D01*
X241714285Y-142023809D01*
X241619047Y-142071428D01*
X241428571Y-142071428D01*
X241333333Y-142023809D01*
X241285714Y-141976190D01*
X241238095Y-141880952D01*
%TO.C,D7*%
X57238095Y-123452380D02*
X57238095Y-122452380D01*
X57000000Y-122452380D01*
X56857142Y-122500000D01*
X56761904Y-122595238D01*
X56714285Y-122690476D01*
X56666666Y-122880952D01*
X56666666Y-123023809D01*
X56714285Y-123214285D01*
X56761904Y-123309523D01*
X56857142Y-123404761D01*
X57000000Y-123452380D01*
X57238095Y-123452380D01*
X56333333Y-122452380D02*
X55666666Y-122452380D01*
X56095238Y-123452380D01*
%TO.C,D52*%
X253214285Y-85452380D02*
X253214285Y-84452380D01*
X252976190Y-84452380D01*
X252833333Y-84500000D01*
X252738095Y-84595238D01*
X252690476Y-84690476D01*
X252642857Y-84880952D01*
X252642857Y-85023809D01*
X252690476Y-85214285D01*
X252738095Y-85309523D01*
X252833333Y-85404761D01*
X252976190Y-85452380D01*
X253214285Y-85452380D01*
X251738095Y-84452380D02*
X252214285Y-84452380D01*
X252261904Y-84928571D01*
X252214285Y-84880952D01*
X252119047Y-84833333D01*
X251880952Y-84833333D01*
X251785714Y-84880952D01*
X251738095Y-84928571D01*
X251690476Y-85023809D01*
X251690476Y-85261904D01*
X251738095Y-85357142D01*
X251785714Y-85404761D01*
X251880952Y-85452380D01*
X252119047Y-85452380D01*
X252214285Y-85404761D01*
X252261904Y-85357142D01*
X251309523Y-84547619D02*
X251261904Y-84500000D01*
X251166666Y-84452380D01*
X250928571Y-84452380D01*
X250833333Y-84500000D01*
X250785714Y-84547619D01*
X250738095Y-84642857D01*
X250738095Y-84738095D01*
X250785714Y-84880952D01*
X251357142Y-85452380D01*
X250738095Y-85452380D01*
%TO.C,D34*%
X181714285Y-104452380D02*
X181714285Y-103452380D01*
X181476190Y-103452380D01*
X181333333Y-103500000D01*
X181238095Y-103595238D01*
X181190476Y-103690476D01*
X181142857Y-103880952D01*
X181142857Y-104023809D01*
X181190476Y-104214285D01*
X181238095Y-104309523D01*
X181333333Y-104404761D01*
X181476190Y-104452380D01*
X181714285Y-104452380D01*
X180809523Y-103452380D02*
X180190476Y-103452380D01*
X180523809Y-103833333D01*
X180380952Y-103833333D01*
X180285714Y-103880952D01*
X180238095Y-103928571D01*
X180190476Y-104023809D01*
X180190476Y-104261904D01*
X180238095Y-104357142D01*
X180285714Y-104404761D01*
X180380952Y-104452380D01*
X180666666Y-104452380D01*
X180761904Y-104404761D01*
X180809523Y-104357142D01*
X179333333Y-103785714D02*
X179333333Y-104452380D01*
X179571428Y-103404761D02*
X179809523Y-104119047D01*
X179190476Y-104119047D01*
%TO.C,D41*%
X229214285Y-123452380D02*
X229214285Y-122452380D01*
X228976190Y-122452380D01*
X228833333Y-122500000D01*
X228738095Y-122595238D01*
X228690476Y-122690476D01*
X228642857Y-122880952D01*
X228642857Y-123023809D01*
X228690476Y-123214285D01*
X228738095Y-123309523D01*
X228833333Y-123404761D01*
X228976190Y-123452380D01*
X229214285Y-123452380D01*
X227785714Y-122785714D02*
X227785714Y-123452380D01*
X228023809Y-122404761D02*
X228261904Y-123119047D01*
X227642857Y-123119047D01*
X226738095Y-123452380D02*
X227309523Y-123452380D01*
X227023809Y-123452380D02*
X227023809Y-122452380D01*
X227119047Y-122595238D01*
X227214285Y-122690476D01*
X227309523Y-122738095D01*
%TO.C,D24*%
X119714285Y-85452380D02*
X119714285Y-84452380D01*
X119476190Y-84452380D01*
X119333333Y-84500000D01*
X119238095Y-84595238D01*
X119190476Y-84690476D01*
X119142857Y-84880952D01*
X119142857Y-85023809D01*
X119190476Y-85214285D01*
X119238095Y-85309523D01*
X119333333Y-85404761D01*
X119476190Y-85452380D01*
X119714285Y-85452380D01*
X118761904Y-84547619D02*
X118714285Y-84500000D01*
X118619047Y-84452380D01*
X118380952Y-84452380D01*
X118285714Y-84500000D01*
X118238095Y-84547619D01*
X118190476Y-84642857D01*
X118190476Y-84738095D01*
X118238095Y-84880952D01*
X118809523Y-85452380D01*
X118190476Y-85452380D01*
X117333333Y-84785714D02*
X117333333Y-85452380D01*
X117571428Y-84404761D02*
X117809523Y-85119047D01*
X117190476Y-85119047D01*
%TO.C,D69*%
X319714285Y-142452380D02*
X319714285Y-141452380D01*
X319476190Y-141452380D01*
X319333333Y-141500000D01*
X319238095Y-141595238D01*
X319190476Y-141690476D01*
X319142857Y-141880952D01*
X319142857Y-142023809D01*
X319190476Y-142214285D01*
X319238095Y-142309523D01*
X319333333Y-142404761D01*
X319476190Y-142452380D01*
X319714285Y-142452380D01*
X318285714Y-141452380D02*
X318476190Y-141452380D01*
X318571428Y-141500000D01*
X318619047Y-141547619D01*
X318714285Y-141690476D01*
X318761904Y-141880952D01*
X318761904Y-142261904D01*
X318714285Y-142357142D01*
X318666666Y-142404761D01*
X318571428Y-142452380D01*
X318380952Y-142452380D01*
X318285714Y-142404761D01*
X318238095Y-142357142D01*
X318190476Y-142261904D01*
X318190476Y-142023809D01*
X318238095Y-141928571D01*
X318285714Y-141880952D01*
X318380952Y-141833333D01*
X318571428Y-141833333D01*
X318666666Y-141880952D01*
X318714285Y-141928571D01*
X318761904Y-142023809D01*
X317714285Y-142452380D02*
X317523809Y-142452380D01*
X317428571Y-142404761D01*
X317380952Y-142357142D01*
X317285714Y-142214285D01*
X317238095Y-142023809D01*
X317238095Y-141642857D01*
X317285714Y-141547619D01*
X317333333Y-141500000D01*
X317428571Y-141452380D01*
X317619047Y-141452380D01*
X317714285Y-141500000D01*
X317761904Y-141547619D01*
X317809523Y-141642857D01*
X317809523Y-141880952D01*
X317761904Y-141976190D01*
X317714285Y-142023809D01*
X317619047Y-142071428D01*
X317428571Y-142071428D01*
X317333333Y-142023809D01*
X317285714Y-141976190D01*
X317238095Y-141880952D01*
%TO.C,D26*%
X143214285Y-104452380D02*
X143214285Y-103452380D01*
X142976190Y-103452380D01*
X142833333Y-103500000D01*
X142738095Y-103595238D01*
X142690476Y-103690476D01*
X142642857Y-103880952D01*
X142642857Y-104023809D01*
X142690476Y-104214285D01*
X142738095Y-104309523D01*
X142833333Y-104404761D01*
X142976190Y-104452380D01*
X143214285Y-104452380D01*
X142261904Y-103547619D02*
X142214285Y-103500000D01*
X142119047Y-103452380D01*
X141880952Y-103452380D01*
X141785714Y-103500000D01*
X141738095Y-103547619D01*
X141690476Y-103642857D01*
X141690476Y-103738095D01*
X141738095Y-103880952D01*
X142309523Y-104452380D01*
X141690476Y-104452380D01*
X140833333Y-103452380D02*
X141023809Y-103452380D01*
X141119047Y-103500000D01*
X141166666Y-103547619D01*
X141261904Y-103690476D01*
X141309523Y-103880952D01*
X141309523Y-104261904D01*
X141261904Y-104357142D01*
X141214285Y-104404761D01*
X141119047Y-104452380D01*
X140928571Y-104452380D01*
X140833333Y-104404761D01*
X140785714Y-104357142D01*
X140738095Y-104261904D01*
X140738095Y-104023809D01*
X140785714Y-103928571D01*
X140833333Y-103880952D01*
X140928571Y-103833333D01*
X141119047Y-103833333D01*
X141214285Y-103880952D01*
X141261904Y-103928571D01*
X141309523Y-104023809D01*
%TO.C,D1*%
X33738095Y-66452380D02*
X33738095Y-65452380D01*
X33500000Y-65452380D01*
X33357142Y-65500000D01*
X33261904Y-65595238D01*
X33214285Y-65690476D01*
X33166666Y-65880952D01*
X33166666Y-66023809D01*
X33214285Y-66214285D01*
X33261904Y-66309523D01*
X33357142Y-66404761D01*
X33500000Y-66452380D01*
X33738095Y-66452380D01*
X32214285Y-66452380D02*
X32785714Y-66452380D01*
X32500000Y-66452380D02*
X32500000Y-65452380D01*
X32595238Y-65595238D01*
X32690476Y-65690476D01*
X32785714Y-65738095D01*
%TO.C,D21*%
X124214285Y-104452380D02*
X124214285Y-103452380D01*
X123976190Y-103452380D01*
X123833333Y-103500000D01*
X123738095Y-103595238D01*
X123690476Y-103690476D01*
X123642857Y-103880952D01*
X123642857Y-104023809D01*
X123690476Y-104214285D01*
X123738095Y-104309523D01*
X123833333Y-104404761D01*
X123976190Y-104452380D01*
X124214285Y-104452380D01*
X123261904Y-103547619D02*
X123214285Y-103500000D01*
X123119047Y-103452380D01*
X122880952Y-103452380D01*
X122785714Y-103500000D01*
X122738095Y-103547619D01*
X122690476Y-103642857D01*
X122690476Y-103738095D01*
X122738095Y-103880952D01*
X123309523Y-104452380D01*
X122690476Y-104452380D01*
X121738095Y-104452380D02*
X122309523Y-104452380D01*
X122023809Y-104452380D02*
X122023809Y-103452380D01*
X122119047Y-103595238D01*
X122214285Y-103690476D01*
X122309523Y-103738095D01*
%TO.C,J2*%
X115733333Y-49477380D02*
X115733333Y-50191666D01*
X115780952Y-50334523D01*
X115876190Y-50429761D01*
X116019047Y-50477380D01*
X116114285Y-50477380D01*
X115304761Y-49572619D02*
X115257142Y-49525000D01*
X115161904Y-49477380D01*
X114923809Y-49477380D01*
X114828571Y-49525000D01*
X114780952Y-49572619D01*
X114733333Y-49667857D01*
X114733333Y-49763095D01*
X114780952Y-49905952D01*
X115352380Y-50477380D01*
X114733333Y-50477380D01*
%TO.C,D3*%
X42238095Y-104452380D02*
X42238095Y-103452380D01*
X42000000Y-103452380D01*
X41857142Y-103500000D01*
X41761904Y-103595238D01*
X41714285Y-103690476D01*
X41666666Y-103880952D01*
X41666666Y-104023809D01*
X41714285Y-104214285D01*
X41761904Y-104309523D01*
X41857142Y-104404761D01*
X42000000Y-104452380D01*
X42238095Y-104452380D01*
X41333333Y-103452380D02*
X40714285Y-103452380D01*
X41047619Y-103833333D01*
X40904761Y-103833333D01*
X40809523Y-103880952D01*
X40761904Y-103928571D01*
X40714285Y-104023809D01*
X40714285Y-104261904D01*
X40761904Y-104357142D01*
X40809523Y-104404761D01*
X40904761Y-104452380D01*
X41190476Y-104452380D01*
X41285714Y-104404761D01*
X41333333Y-104357142D01*
%TO.C,D47*%
X238714285Y-104452380D02*
X238714285Y-103452380D01*
X238476190Y-103452380D01*
X238333333Y-103500000D01*
X238238095Y-103595238D01*
X238190476Y-103690476D01*
X238142857Y-103880952D01*
X238142857Y-104023809D01*
X238190476Y-104214285D01*
X238238095Y-104309523D01*
X238333333Y-104404761D01*
X238476190Y-104452380D01*
X238714285Y-104452380D01*
X237285714Y-103785714D02*
X237285714Y-104452380D01*
X237523809Y-103404761D02*
X237761904Y-104119047D01*
X237142857Y-104119047D01*
X236857142Y-103452380D02*
X236190476Y-103452380D01*
X236619047Y-104452380D01*
%TO.C,D25*%
X138714285Y-85452380D02*
X138714285Y-84452380D01*
X138476190Y-84452380D01*
X138333333Y-84500000D01*
X138238095Y-84595238D01*
X138190476Y-84690476D01*
X138142857Y-84880952D01*
X138142857Y-85023809D01*
X138190476Y-85214285D01*
X138238095Y-85309523D01*
X138333333Y-85404761D01*
X138476190Y-85452380D01*
X138714285Y-85452380D01*
X137761904Y-84547619D02*
X137714285Y-84500000D01*
X137619047Y-84452380D01*
X137380952Y-84452380D01*
X137285714Y-84500000D01*
X137238095Y-84547619D01*
X137190476Y-84642857D01*
X137190476Y-84738095D01*
X137238095Y-84880952D01*
X137809523Y-85452380D01*
X137190476Y-85452380D01*
X136285714Y-84452380D02*
X136761904Y-84452380D01*
X136809523Y-84928571D01*
X136761904Y-84880952D01*
X136666666Y-84833333D01*
X136428571Y-84833333D01*
X136333333Y-84880952D01*
X136285714Y-84928571D01*
X136238095Y-85023809D01*
X136238095Y-85261904D01*
X136285714Y-85357142D01*
X136333333Y-85404761D01*
X136428571Y-85452380D01*
X136666666Y-85452380D01*
X136761904Y-85404761D01*
X136809523Y-85357142D01*
%TO.C,D14*%
X96044285Y-123802380D02*
X96044285Y-122802380D01*
X95806190Y-122802380D01*
X95663333Y-122850000D01*
X95568095Y-122945238D01*
X95520476Y-123040476D01*
X95472857Y-123230952D01*
X95472857Y-123373809D01*
X95520476Y-123564285D01*
X95568095Y-123659523D01*
X95663333Y-123754761D01*
X95806190Y-123802380D01*
X96044285Y-123802380D01*
X94520476Y-123802380D02*
X95091904Y-123802380D01*
X94806190Y-123802380D02*
X94806190Y-122802380D01*
X94901428Y-122945238D01*
X94996666Y-123040476D01*
X95091904Y-123088095D01*
X93663333Y-123135714D02*
X93663333Y-123802380D01*
X93901428Y-122754761D02*
X94139523Y-123469047D01*
X93520476Y-123469047D01*
%TO.C,D23*%
X100714285Y-85452380D02*
X100714285Y-84452380D01*
X100476190Y-84452380D01*
X100333333Y-84500000D01*
X100238095Y-84595238D01*
X100190476Y-84690476D01*
X100142857Y-84880952D01*
X100142857Y-85023809D01*
X100190476Y-85214285D01*
X100238095Y-85309523D01*
X100333333Y-85404761D01*
X100476190Y-85452380D01*
X100714285Y-85452380D01*
X99761904Y-84547619D02*
X99714285Y-84500000D01*
X99619047Y-84452380D01*
X99380952Y-84452380D01*
X99285714Y-84500000D01*
X99238095Y-84547619D01*
X99190476Y-84642857D01*
X99190476Y-84738095D01*
X99238095Y-84880952D01*
X99809523Y-85452380D01*
X99190476Y-85452380D01*
X98857142Y-84452380D02*
X98238095Y-84452380D01*
X98571428Y-84833333D01*
X98428571Y-84833333D01*
X98333333Y-84880952D01*
X98285714Y-84928571D01*
X98238095Y-85023809D01*
X98238095Y-85261904D01*
X98285714Y-85357142D01*
X98333333Y-85404761D01*
X98428571Y-85452380D01*
X98714285Y-85452380D01*
X98809523Y-85404761D01*
X98857142Y-85357142D01*
%TO.C,D8*%
X52238095Y-66452380D02*
X52238095Y-65452380D01*
X52000000Y-65452380D01*
X51857142Y-65500000D01*
X51761904Y-65595238D01*
X51714285Y-65690476D01*
X51666666Y-65880952D01*
X51666666Y-66023809D01*
X51714285Y-66214285D01*
X51761904Y-66309523D01*
X51857142Y-66404761D01*
X52000000Y-66452380D01*
X52238095Y-66452380D01*
X51095238Y-65880952D02*
X51190476Y-65833333D01*
X51238095Y-65785714D01*
X51285714Y-65690476D01*
X51285714Y-65642857D01*
X51238095Y-65547619D01*
X51190476Y-65500000D01*
X51095238Y-65452380D01*
X50904761Y-65452380D01*
X50809523Y-65500000D01*
X50761904Y-65547619D01*
X50714285Y-65642857D01*
X50714285Y-65690476D01*
X50761904Y-65785714D01*
X50809523Y-65833333D01*
X50904761Y-65880952D01*
X51095238Y-65880952D01*
X51190476Y-65928571D01*
X51238095Y-65976190D01*
X51285714Y-66071428D01*
X51285714Y-66261904D01*
X51238095Y-66357142D01*
X51190476Y-66404761D01*
X51095238Y-66452380D01*
X50904761Y-66452380D01*
X50809523Y-66404761D01*
X50761904Y-66357142D01*
X50714285Y-66261904D01*
X50714285Y-66071428D01*
X50761904Y-65976190D01*
X50809523Y-65928571D01*
X50904761Y-65880952D01*
%TO.C,D45*%
X214714285Y-85452380D02*
X214714285Y-84452380D01*
X214476190Y-84452380D01*
X214333333Y-84500000D01*
X214238095Y-84595238D01*
X214190476Y-84690476D01*
X214142857Y-84880952D01*
X214142857Y-85023809D01*
X214190476Y-85214285D01*
X214238095Y-85309523D01*
X214333333Y-85404761D01*
X214476190Y-85452380D01*
X214714285Y-85452380D01*
X213285714Y-84785714D02*
X213285714Y-85452380D01*
X213523809Y-84404761D02*
X213761904Y-85119047D01*
X213142857Y-85119047D01*
X212285714Y-84452380D02*
X212761904Y-84452380D01*
X212809523Y-84928571D01*
X212761904Y-84880952D01*
X212666666Y-84833333D01*
X212428571Y-84833333D01*
X212333333Y-84880952D01*
X212285714Y-84928571D01*
X212238095Y-85023809D01*
X212238095Y-85261904D01*
X212285714Y-85357142D01*
X212333333Y-85404761D01*
X212428571Y-85452380D01*
X212666666Y-85452380D01*
X212761904Y-85404761D01*
X212809523Y-85357142D01*
%TO.C,D44*%
X205214285Y-66452380D02*
X205214285Y-65452380D01*
X204976190Y-65452380D01*
X204833333Y-65500000D01*
X204738095Y-65595238D01*
X204690476Y-65690476D01*
X204642857Y-65880952D01*
X204642857Y-66023809D01*
X204690476Y-66214285D01*
X204738095Y-66309523D01*
X204833333Y-66404761D01*
X204976190Y-66452380D01*
X205214285Y-66452380D01*
X203785714Y-65785714D02*
X203785714Y-66452380D01*
X204023809Y-65404761D02*
X204261904Y-66119047D01*
X203642857Y-66119047D01*
X202833333Y-65785714D02*
X202833333Y-66452380D01*
X203071428Y-65404761D02*
X203309523Y-66119047D01*
X202690476Y-66119047D01*
%TO.C,R6*%
X30902380Y-101233333D02*
X30426190Y-100900000D01*
X30902380Y-100661904D02*
X29902380Y-100661904D01*
X29902380Y-101042857D01*
X29950000Y-101138095D01*
X29997619Y-101185714D01*
X30092857Y-101233333D01*
X30235714Y-101233333D01*
X30330952Y-101185714D01*
X30378571Y-101138095D01*
X30426190Y-101042857D01*
X30426190Y-100661904D01*
X29902380Y-102090476D02*
X29902380Y-101900000D01*
X29950000Y-101804761D01*
X29997619Y-101757142D01*
X30140476Y-101661904D01*
X30330952Y-101614285D01*
X30711904Y-101614285D01*
X30807142Y-101661904D01*
X30854761Y-101709523D01*
X30902380Y-101804761D01*
X30902380Y-101995238D01*
X30854761Y-102090476D01*
X30807142Y-102138095D01*
X30711904Y-102185714D01*
X30473809Y-102185714D01*
X30378571Y-102138095D01*
X30330952Y-102090476D01*
X30283333Y-101995238D01*
X30283333Y-101804761D01*
X30330952Y-101709523D01*
X30378571Y-101661904D01*
X30473809Y-101614285D01*
%TO.C,D30*%
X129214285Y-66452380D02*
X129214285Y-65452380D01*
X128976190Y-65452380D01*
X128833333Y-65500000D01*
X128738095Y-65595238D01*
X128690476Y-65690476D01*
X128642857Y-65880952D01*
X128642857Y-66023809D01*
X128690476Y-66214285D01*
X128738095Y-66309523D01*
X128833333Y-66404761D01*
X128976190Y-66452380D01*
X129214285Y-66452380D01*
X128309523Y-65452380D02*
X127690476Y-65452380D01*
X128023809Y-65833333D01*
X127880952Y-65833333D01*
X127785714Y-65880952D01*
X127738095Y-65928571D01*
X127690476Y-66023809D01*
X127690476Y-66261904D01*
X127738095Y-66357142D01*
X127785714Y-66404761D01*
X127880952Y-66452380D01*
X128166666Y-66452380D01*
X128261904Y-66404761D01*
X128309523Y-66357142D01*
X127071428Y-65452380D02*
X126976190Y-65452380D01*
X126880952Y-65500000D01*
X126833333Y-65547619D01*
X126785714Y-65642857D01*
X126738095Y-65833333D01*
X126738095Y-66071428D01*
X126785714Y-66261904D01*
X126833333Y-66357142D01*
X126880952Y-66404761D01*
X126976190Y-66452380D01*
X127071428Y-66452380D01*
X127166666Y-66404761D01*
X127214285Y-66357142D01*
X127261904Y-66261904D01*
X127309523Y-66071428D01*
X127309523Y-65833333D01*
X127261904Y-65642857D01*
X127214285Y-65547619D01*
X127166666Y-65500000D01*
X127071428Y-65452380D01*
%TO.C,D12*%
X83714285Y-142452380D02*
X83714285Y-141452380D01*
X83476190Y-141452380D01*
X83333333Y-141500000D01*
X83238095Y-141595238D01*
X83190476Y-141690476D01*
X83142857Y-141880952D01*
X83142857Y-142023809D01*
X83190476Y-142214285D01*
X83238095Y-142309523D01*
X83333333Y-142404761D01*
X83476190Y-142452380D01*
X83714285Y-142452380D01*
X82190476Y-142452380D02*
X82761904Y-142452380D01*
X82476190Y-142452380D02*
X82476190Y-141452380D01*
X82571428Y-141595238D01*
X82666666Y-141690476D01*
X82761904Y-141738095D01*
X81809523Y-141547619D02*
X81761904Y-141500000D01*
X81666666Y-141452380D01*
X81428571Y-141452380D01*
X81333333Y-141500000D01*
X81285714Y-141547619D01*
X81238095Y-141642857D01*
X81238095Y-141738095D01*
X81285714Y-141880952D01*
X81857142Y-142452380D01*
X81238095Y-142452380D01*
%TO.C,D11*%
X76714285Y-123452380D02*
X76714285Y-122452380D01*
X76476190Y-122452380D01*
X76333333Y-122500000D01*
X76238095Y-122595238D01*
X76190476Y-122690476D01*
X76142857Y-122880952D01*
X76142857Y-123023809D01*
X76190476Y-123214285D01*
X76238095Y-123309523D01*
X76333333Y-123404761D01*
X76476190Y-123452380D01*
X76714285Y-123452380D01*
X75190476Y-123452380D02*
X75761904Y-123452380D01*
X75476190Y-123452380D02*
X75476190Y-122452380D01*
X75571428Y-122595238D01*
X75666666Y-122690476D01*
X75761904Y-122738095D01*
X74238095Y-123452380D02*
X74809523Y-123452380D01*
X74523809Y-123452380D02*
X74523809Y-122452380D01*
X74619047Y-122595238D01*
X74714285Y-122690476D01*
X74809523Y-122738095D01*
%TO.C,D58*%
X262714285Y-66452380D02*
X262714285Y-65452380D01*
X262476190Y-65452380D01*
X262333333Y-65500000D01*
X262238095Y-65595238D01*
X262190476Y-65690476D01*
X262142857Y-65880952D01*
X262142857Y-66023809D01*
X262190476Y-66214285D01*
X262238095Y-66309523D01*
X262333333Y-66404761D01*
X262476190Y-66452380D01*
X262714285Y-66452380D01*
X261238095Y-65452380D02*
X261714285Y-65452380D01*
X261761904Y-65928571D01*
X261714285Y-65880952D01*
X261619047Y-65833333D01*
X261380952Y-65833333D01*
X261285714Y-65880952D01*
X261238095Y-65928571D01*
X261190476Y-66023809D01*
X261190476Y-66261904D01*
X261238095Y-66357142D01*
X261285714Y-66404761D01*
X261380952Y-66452380D01*
X261619047Y-66452380D01*
X261714285Y-66404761D01*
X261761904Y-66357142D01*
X260619047Y-65880952D02*
X260714285Y-65833333D01*
X260761904Y-65785714D01*
X260809523Y-65690476D01*
X260809523Y-65642857D01*
X260761904Y-65547619D01*
X260714285Y-65500000D01*
X260619047Y-65452380D01*
X260428571Y-65452380D01*
X260333333Y-65500000D01*
X260285714Y-65547619D01*
X260238095Y-65642857D01*
X260238095Y-65690476D01*
X260285714Y-65785714D01*
X260333333Y-65833333D01*
X260428571Y-65880952D01*
X260619047Y-65880952D01*
X260714285Y-65928571D01*
X260761904Y-65976190D01*
X260809523Y-66071428D01*
X260809523Y-66261904D01*
X260761904Y-66357142D01*
X260714285Y-66404761D01*
X260619047Y-66452380D01*
X260428571Y-66452380D01*
X260333333Y-66404761D01*
X260285714Y-66357142D01*
X260238095Y-66261904D01*
X260238095Y-66071428D01*
X260285714Y-65976190D01*
X260333333Y-65928571D01*
X260428571Y-65880952D01*
%TO.C,D10*%
X67214285Y-104452380D02*
X67214285Y-103452380D01*
X66976190Y-103452380D01*
X66833333Y-103500000D01*
X66738095Y-103595238D01*
X66690476Y-103690476D01*
X66642857Y-103880952D01*
X66642857Y-104023809D01*
X66690476Y-104214285D01*
X66738095Y-104309523D01*
X66833333Y-104404761D01*
X66976190Y-104452380D01*
X67214285Y-104452380D01*
X65690476Y-104452380D02*
X66261904Y-104452380D01*
X65976190Y-104452380D02*
X65976190Y-103452380D01*
X66071428Y-103595238D01*
X66166666Y-103690476D01*
X66261904Y-103738095D01*
X65071428Y-103452380D02*
X64976190Y-103452380D01*
X64880952Y-103500000D01*
X64833333Y-103547619D01*
X64785714Y-103642857D01*
X64738095Y-103833333D01*
X64738095Y-104071428D01*
X64785714Y-104261904D01*
X64833333Y-104357142D01*
X64880952Y-104404761D01*
X64976190Y-104452380D01*
X65071428Y-104452380D01*
X65166666Y-104404761D01*
X65214285Y-104357142D01*
X65261904Y-104261904D01*
X65309523Y-104071428D01*
X65309523Y-103833333D01*
X65261904Y-103642857D01*
X65214285Y-103547619D01*
X65166666Y-103500000D01*
X65071428Y-103452380D01*
%TO.C,D18*%
X105214285Y-104452380D02*
X105214285Y-103452380D01*
X104976190Y-103452380D01*
X104833333Y-103500000D01*
X104738095Y-103595238D01*
X104690476Y-103690476D01*
X104642857Y-103880952D01*
X104642857Y-104023809D01*
X104690476Y-104214285D01*
X104738095Y-104309523D01*
X104833333Y-104404761D01*
X104976190Y-104452380D01*
X105214285Y-104452380D01*
X103690476Y-104452380D02*
X104261904Y-104452380D01*
X103976190Y-104452380D02*
X103976190Y-103452380D01*
X104071428Y-103595238D01*
X104166666Y-103690476D01*
X104261904Y-103738095D01*
X103119047Y-103880952D02*
X103214285Y-103833333D01*
X103261904Y-103785714D01*
X103309523Y-103690476D01*
X103309523Y-103642857D01*
X103261904Y-103547619D01*
X103214285Y-103500000D01*
X103119047Y-103452380D01*
X102928571Y-103452380D01*
X102833333Y-103500000D01*
X102785714Y-103547619D01*
X102738095Y-103642857D01*
X102738095Y-103690476D01*
X102785714Y-103785714D01*
X102833333Y-103833333D01*
X102928571Y-103880952D01*
X103119047Y-103880952D01*
X103214285Y-103928571D01*
X103261904Y-103976190D01*
X103309523Y-104071428D01*
X103309523Y-104261904D01*
X103261904Y-104357142D01*
X103214285Y-104404761D01*
X103119047Y-104452380D01*
X102928571Y-104452380D01*
X102833333Y-104404761D01*
X102785714Y-104357142D01*
X102738095Y-104261904D01*
X102738095Y-104071428D01*
X102785714Y-103976190D01*
X102833333Y-103928571D01*
X102928571Y-103880952D01*
%TO.C,D20*%
X134264285Y-123452380D02*
X134264285Y-122452380D01*
X134026190Y-122452380D01*
X133883333Y-122500000D01*
X133788095Y-122595238D01*
X133740476Y-122690476D01*
X133692857Y-122880952D01*
X133692857Y-123023809D01*
X133740476Y-123214285D01*
X133788095Y-123309523D01*
X133883333Y-123404761D01*
X134026190Y-123452380D01*
X134264285Y-123452380D01*
X133311904Y-122547619D02*
X133264285Y-122500000D01*
X133169047Y-122452380D01*
X132930952Y-122452380D01*
X132835714Y-122500000D01*
X132788095Y-122547619D01*
X132740476Y-122642857D01*
X132740476Y-122738095D01*
X132788095Y-122880952D01*
X133359523Y-123452380D01*
X132740476Y-123452380D01*
X132121428Y-122452380D02*
X132026190Y-122452380D01*
X131930952Y-122500000D01*
X131883333Y-122547619D01*
X131835714Y-122642857D01*
X131788095Y-122833333D01*
X131788095Y-123071428D01*
X131835714Y-123261904D01*
X131883333Y-123357142D01*
X131930952Y-123404761D01*
X132026190Y-123452380D01*
X132121428Y-123452380D01*
X132216666Y-123404761D01*
X132264285Y-123357142D01*
X132311904Y-123261904D01*
X132359523Y-123071428D01*
X132359523Y-122833333D01*
X132311904Y-122642857D01*
X132264285Y-122547619D01*
X132216666Y-122500000D01*
X132121428Y-122452380D01*
%TO.C,D27*%
X153214285Y-123452380D02*
X153214285Y-122452380D01*
X152976190Y-122452380D01*
X152833333Y-122500000D01*
X152738095Y-122595238D01*
X152690476Y-122690476D01*
X152642857Y-122880952D01*
X152642857Y-123023809D01*
X152690476Y-123214285D01*
X152738095Y-123309523D01*
X152833333Y-123404761D01*
X152976190Y-123452380D01*
X153214285Y-123452380D01*
X152261904Y-122547619D02*
X152214285Y-122500000D01*
X152119047Y-122452380D01*
X151880952Y-122452380D01*
X151785714Y-122500000D01*
X151738095Y-122547619D01*
X151690476Y-122642857D01*
X151690476Y-122738095D01*
X151738095Y-122880952D01*
X152309523Y-123452380D01*
X151690476Y-123452380D01*
X151357142Y-122452380D02*
X150690476Y-122452380D01*
X151119047Y-123452380D01*
%TO.C,D19*%
X114714285Y-123952380D02*
X114714285Y-122952380D01*
X114476190Y-122952380D01*
X114333333Y-123000000D01*
X114238095Y-123095238D01*
X114190476Y-123190476D01*
X114142857Y-123380952D01*
X114142857Y-123523809D01*
X114190476Y-123714285D01*
X114238095Y-123809523D01*
X114333333Y-123904761D01*
X114476190Y-123952380D01*
X114714285Y-123952380D01*
X113190476Y-123952380D02*
X113761904Y-123952380D01*
X113476190Y-123952380D02*
X113476190Y-122952380D01*
X113571428Y-123095238D01*
X113666666Y-123190476D01*
X113761904Y-123238095D01*
X112714285Y-123952380D02*
X112523809Y-123952380D01*
X112428571Y-123904761D01*
X112380952Y-123857142D01*
X112285714Y-123714285D01*
X112238095Y-123523809D01*
X112238095Y-123142857D01*
X112285714Y-123047619D01*
X112333333Y-123000000D01*
X112428571Y-122952380D01*
X112619047Y-122952380D01*
X112714285Y-123000000D01*
X112761904Y-123047619D01*
X112809523Y-123142857D01*
X112809523Y-123380952D01*
X112761904Y-123476190D01*
X112714285Y-123523809D01*
X112619047Y-123571428D01*
X112428571Y-123571428D01*
X112333333Y-123523809D01*
X112285714Y-123476190D01*
X112238095Y-123380952D01*
%TO.C,D15*%
X71714285Y-66452380D02*
X71714285Y-65452380D01*
X71476190Y-65452380D01*
X71333333Y-65500000D01*
X71238095Y-65595238D01*
X71190476Y-65690476D01*
X71142857Y-65880952D01*
X71142857Y-66023809D01*
X71190476Y-66214285D01*
X71238095Y-66309523D01*
X71333333Y-66404761D01*
X71476190Y-66452380D01*
X71714285Y-66452380D01*
X70190476Y-66452380D02*
X70761904Y-66452380D01*
X70476190Y-66452380D02*
X70476190Y-65452380D01*
X70571428Y-65595238D01*
X70666666Y-65690476D01*
X70761904Y-65738095D01*
X69285714Y-65452380D02*
X69761904Y-65452380D01*
X69809523Y-65928571D01*
X69761904Y-65880952D01*
X69666666Y-65833333D01*
X69428571Y-65833333D01*
X69333333Y-65880952D01*
X69285714Y-65928571D01*
X69238095Y-66023809D01*
X69238095Y-66261904D01*
X69285714Y-66357142D01*
X69333333Y-66404761D01*
X69428571Y-66452380D01*
X69666666Y-66452380D01*
X69761904Y-66404761D01*
X69809523Y-66357142D01*
%TO.C,D29*%
X110214285Y-66452380D02*
X110214285Y-65452380D01*
X109976190Y-65452380D01*
X109833333Y-65500000D01*
X109738095Y-65595238D01*
X109690476Y-65690476D01*
X109642857Y-65880952D01*
X109642857Y-66023809D01*
X109690476Y-66214285D01*
X109738095Y-66309523D01*
X109833333Y-66404761D01*
X109976190Y-66452380D01*
X110214285Y-66452380D01*
X109261904Y-65547619D02*
X109214285Y-65500000D01*
X109119047Y-65452380D01*
X108880952Y-65452380D01*
X108785714Y-65500000D01*
X108738095Y-65547619D01*
X108690476Y-65642857D01*
X108690476Y-65738095D01*
X108738095Y-65880952D01*
X109309523Y-66452380D01*
X108690476Y-66452380D01*
X108214285Y-66452380D02*
X108023809Y-66452380D01*
X107928571Y-66404761D01*
X107880952Y-66357142D01*
X107785714Y-66214285D01*
X107738095Y-66023809D01*
X107738095Y-65642857D01*
X107785714Y-65547619D01*
X107833333Y-65500000D01*
X107928571Y-65452380D01*
X108119047Y-65452380D01*
X108214285Y-65500000D01*
X108261904Y-65547619D01*
X108309523Y-65642857D01*
X108309523Y-65880952D01*
X108261904Y-65976190D01*
X108214285Y-66023809D01*
X108119047Y-66071428D01*
X107928571Y-66071428D01*
X107833333Y-66023809D01*
X107785714Y-65976190D01*
X107738095Y-65880952D01*
%TO.C,D4*%
X35738095Y-123452380D02*
X35738095Y-122452380D01*
X35500000Y-122452380D01*
X35357142Y-122500000D01*
X35261904Y-122595238D01*
X35214285Y-122690476D01*
X35166666Y-122880952D01*
X35166666Y-123023809D01*
X35214285Y-123214285D01*
X35261904Y-123309523D01*
X35357142Y-123404761D01*
X35500000Y-123452380D01*
X35738095Y-123452380D01*
X34309523Y-122785714D02*
X34309523Y-123452380D01*
X34547619Y-122404761D02*
X34785714Y-123119047D01*
X34166666Y-123119047D01*
%TO.C,D2*%
X38238095Y-85452380D02*
X38238095Y-84452380D01*
X38000000Y-84452380D01*
X37857142Y-84500000D01*
X37761904Y-84595238D01*
X37714285Y-84690476D01*
X37666666Y-84880952D01*
X37666666Y-85023809D01*
X37714285Y-85214285D01*
X37761904Y-85309523D01*
X37857142Y-85404761D01*
X38000000Y-85452380D01*
X38238095Y-85452380D01*
X37285714Y-84547619D02*
X37238095Y-84500000D01*
X37142857Y-84452380D01*
X36904761Y-84452380D01*
X36809523Y-84500000D01*
X36761904Y-84547619D01*
X36714285Y-84642857D01*
X36714285Y-84738095D01*
X36761904Y-84880952D01*
X37333333Y-85452380D01*
X36714285Y-85452380D01*
%TO.C,D37*%
X176714285Y-85452380D02*
X176714285Y-84452380D01*
X176476190Y-84452380D01*
X176333333Y-84500000D01*
X176238095Y-84595238D01*
X176190476Y-84690476D01*
X176142857Y-84880952D01*
X176142857Y-85023809D01*
X176190476Y-85214285D01*
X176238095Y-85309523D01*
X176333333Y-85404761D01*
X176476190Y-85452380D01*
X176714285Y-85452380D01*
X175809523Y-84452380D02*
X175190476Y-84452380D01*
X175523809Y-84833333D01*
X175380952Y-84833333D01*
X175285714Y-84880952D01*
X175238095Y-84928571D01*
X175190476Y-85023809D01*
X175190476Y-85261904D01*
X175238095Y-85357142D01*
X175285714Y-85404761D01*
X175380952Y-85452380D01*
X175666666Y-85452380D01*
X175761904Y-85404761D01*
X175809523Y-85357142D01*
X174857142Y-84452380D02*
X174190476Y-84452380D01*
X174619047Y-85452380D01*
%TO.C,D53*%
X257714285Y-104452380D02*
X257714285Y-103452380D01*
X257476190Y-103452380D01*
X257333333Y-103500000D01*
X257238095Y-103595238D01*
X257190476Y-103690476D01*
X257142857Y-103880952D01*
X257142857Y-104023809D01*
X257190476Y-104214285D01*
X257238095Y-104309523D01*
X257333333Y-104404761D01*
X257476190Y-104452380D01*
X257714285Y-104452380D01*
X256238095Y-103452380D02*
X256714285Y-103452380D01*
X256761904Y-103928571D01*
X256714285Y-103880952D01*
X256619047Y-103833333D01*
X256380952Y-103833333D01*
X256285714Y-103880952D01*
X256238095Y-103928571D01*
X256190476Y-104023809D01*
X256190476Y-104261904D01*
X256238095Y-104357142D01*
X256285714Y-104404761D01*
X256380952Y-104452380D01*
X256619047Y-104452380D01*
X256714285Y-104404761D01*
X256761904Y-104357142D01*
X255857142Y-103452380D02*
X255238095Y-103452380D01*
X255571428Y-103833333D01*
X255428571Y-103833333D01*
X255333333Y-103880952D01*
X255285714Y-103928571D01*
X255238095Y-104023809D01*
X255238095Y-104261904D01*
X255285714Y-104357142D01*
X255333333Y-104404761D01*
X255428571Y-104452380D01*
X255714285Y-104452380D01*
X255809523Y-104404761D01*
X255857142Y-104357142D01*
%TO.C,D50*%
X224714285Y-66452380D02*
X224714285Y-65452380D01*
X224476190Y-65452380D01*
X224333333Y-65500000D01*
X224238095Y-65595238D01*
X224190476Y-65690476D01*
X224142857Y-65880952D01*
X224142857Y-66023809D01*
X224190476Y-66214285D01*
X224238095Y-66309523D01*
X224333333Y-66404761D01*
X224476190Y-66452380D01*
X224714285Y-66452380D01*
X223238095Y-65452380D02*
X223714285Y-65452380D01*
X223761904Y-65928571D01*
X223714285Y-65880952D01*
X223619047Y-65833333D01*
X223380952Y-65833333D01*
X223285714Y-65880952D01*
X223238095Y-65928571D01*
X223190476Y-66023809D01*
X223190476Y-66261904D01*
X223238095Y-66357142D01*
X223285714Y-66404761D01*
X223380952Y-66452380D01*
X223619047Y-66452380D01*
X223714285Y-66404761D01*
X223761904Y-66357142D01*
X222571428Y-65452380D02*
X222476190Y-65452380D01*
X222380952Y-65500000D01*
X222333333Y-65547619D01*
X222285714Y-65642857D01*
X222238095Y-65833333D01*
X222238095Y-66071428D01*
X222285714Y-66261904D01*
X222333333Y-66357142D01*
X222380952Y-66404761D01*
X222476190Y-66452380D01*
X222571428Y-66452380D01*
X222666666Y-66404761D01*
X222714285Y-66357142D01*
X222761904Y-66261904D01*
X222809523Y-66071428D01*
X222809523Y-65833333D01*
X222761904Y-65642857D01*
X222714285Y-65547619D01*
X222666666Y-65500000D01*
X222571428Y-65452380D01*
%TO.C,D22*%
X91214285Y-66452380D02*
X91214285Y-65452380D01*
X90976190Y-65452380D01*
X90833333Y-65500000D01*
X90738095Y-65595238D01*
X90690476Y-65690476D01*
X90642857Y-65880952D01*
X90642857Y-66023809D01*
X90690476Y-66214285D01*
X90738095Y-66309523D01*
X90833333Y-66404761D01*
X90976190Y-66452380D01*
X91214285Y-66452380D01*
X90261904Y-65547619D02*
X90214285Y-65500000D01*
X90119047Y-65452380D01*
X89880952Y-65452380D01*
X89785714Y-65500000D01*
X89738095Y-65547619D01*
X89690476Y-65642857D01*
X89690476Y-65738095D01*
X89738095Y-65880952D01*
X90309523Y-66452380D01*
X89690476Y-66452380D01*
X89309523Y-65547619D02*
X89261904Y-65500000D01*
X89166666Y-65452380D01*
X88928571Y-65452380D01*
X88833333Y-65500000D01*
X88785714Y-65547619D01*
X88738095Y-65642857D01*
X88738095Y-65738095D01*
X88785714Y-65880952D01*
X89357142Y-66452380D01*
X88738095Y-66452380D01*
%TO.C,D62*%
X300714285Y-123452380D02*
X300714285Y-122452380D01*
X300476190Y-122452380D01*
X300333333Y-122500000D01*
X300238095Y-122595238D01*
X300190476Y-122690476D01*
X300142857Y-122880952D01*
X300142857Y-123023809D01*
X300190476Y-123214285D01*
X300238095Y-123309523D01*
X300333333Y-123404761D01*
X300476190Y-123452380D01*
X300714285Y-123452380D01*
X299285714Y-122452380D02*
X299476190Y-122452380D01*
X299571428Y-122500000D01*
X299619047Y-122547619D01*
X299714285Y-122690476D01*
X299761904Y-122880952D01*
X299761904Y-123261904D01*
X299714285Y-123357142D01*
X299666666Y-123404761D01*
X299571428Y-123452380D01*
X299380952Y-123452380D01*
X299285714Y-123404761D01*
X299238095Y-123357142D01*
X299190476Y-123261904D01*
X299190476Y-123023809D01*
X299238095Y-122928571D01*
X299285714Y-122880952D01*
X299380952Y-122833333D01*
X299571428Y-122833333D01*
X299666666Y-122880952D01*
X299714285Y-122928571D01*
X299761904Y-123023809D01*
X298809523Y-122547619D02*
X298761904Y-122500000D01*
X298666666Y-122452380D01*
X298428571Y-122452380D01*
X298333333Y-122500000D01*
X298285714Y-122547619D01*
X298238095Y-122642857D01*
X298238095Y-122738095D01*
X298285714Y-122880952D01*
X298857142Y-123452380D01*
X298238095Y-123452380D01*
%TO.C,D43*%
X186214285Y-66452380D02*
X186214285Y-65452380D01*
X185976190Y-65452380D01*
X185833333Y-65500000D01*
X185738095Y-65595238D01*
X185690476Y-65690476D01*
X185642857Y-65880952D01*
X185642857Y-66023809D01*
X185690476Y-66214285D01*
X185738095Y-66309523D01*
X185833333Y-66404761D01*
X185976190Y-66452380D01*
X186214285Y-66452380D01*
X184785714Y-65785714D02*
X184785714Y-66452380D01*
X185023809Y-65404761D02*
X185261904Y-66119047D01*
X184642857Y-66119047D01*
X184357142Y-65452380D02*
X183738095Y-65452380D01*
X184071428Y-65833333D01*
X183928571Y-65833333D01*
X183833333Y-65880952D01*
X183785714Y-65928571D01*
X183738095Y-66023809D01*
X183738095Y-66261904D01*
X183785714Y-66357142D01*
X183833333Y-66404761D01*
X183928571Y-66452380D01*
X184214285Y-66452380D01*
X184309523Y-66404761D01*
X184357142Y-66357142D01*
%TO.C,D48*%
X248214285Y-123452380D02*
X248214285Y-122452380D01*
X247976190Y-122452380D01*
X247833333Y-122500000D01*
X247738095Y-122595238D01*
X247690476Y-122690476D01*
X247642857Y-122880952D01*
X247642857Y-123023809D01*
X247690476Y-123214285D01*
X247738095Y-123309523D01*
X247833333Y-123404761D01*
X247976190Y-123452380D01*
X248214285Y-123452380D01*
X246785714Y-122785714D02*
X246785714Y-123452380D01*
X247023809Y-122404761D02*
X247261904Y-123119047D01*
X246642857Y-123119047D01*
X246119047Y-122880952D02*
X246214285Y-122833333D01*
X246261904Y-122785714D01*
X246309523Y-122690476D01*
X246309523Y-122642857D01*
X246261904Y-122547619D01*
X246214285Y-122500000D01*
X246119047Y-122452380D01*
X245928571Y-122452380D01*
X245833333Y-122500000D01*
X245785714Y-122547619D01*
X245738095Y-122642857D01*
X245738095Y-122690476D01*
X245785714Y-122785714D01*
X245833333Y-122833333D01*
X245928571Y-122880952D01*
X246119047Y-122880952D01*
X246214285Y-122928571D01*
X246261904Y-122976190D01*
X246309523Y-123071428D01*
X246309523Y-123261904D01*
X246261904Y-123357142D01*
X246214285Y-123404761D01*
X246119047Y-123452380D01*
X245928571Y-123452380D01*
X245833333Y-123404761D01*
X245785714Y-123357142D01*
X245738095Y-123261904D01*
X245738095Y-123071428D01*
X245785714Y-122976190D01*
X245833333Y-122928571D01*
X245928571Y-122880952D01*
%TO.C,D64*%
X291214285Y-66452380D02*
X291214285Y-65452380D01*
X290976190Y-65452380D01*
X290833333Y-65500000D01*
X290738095Y-65595238D01*
X290690476Y-65690476D01*
X290642857Y-65880952D01*
X290642857Y-66023809D01*
X290690476Y-66214285D01*
X290738095Y-66309523D01*
X290833333Y-66404761D01*
X290976190Y-66452380D01*
X291214285Y-66452380D01*
X289785714Y-65452380D02*
X289976190Y-65452380D01*
X290071428Y-65500000D01*
X290119047Y-65547619D01*
X290214285Y-65690476D01*
X290261904Y-65880952D01*
X290261904Y-66261904D01*
X290214285Y-66357142D01*
X290166666Y-66404761D01*
X290071428Y-66452380D01*
X289880952Y-66452380D01*
X289785714Y-66404761D01*
X289738095Y-66357142D01*
X289690476Y-66261904D01*
X289690476Y-66023809D01*
X289738095Y-65928571D01*
X289785714Y-65880952D01*
X289880952Y-65833333D01*
X290071428Y-65833333D01*
X290166666Y-65880952D01*
X290214285Y-65928571D01*
X290261904Y-66023809D01*
X288833333Y-65785714D02*
X288833333Y-66452380D01*
X289071428Y-65404761D02*
X289309523Y-66119047D01*
X288690476Y-66119047D01*
%TO.C,D5*%
X35738095Y-142452380D02*
X35738095Y-141452380D01*
X35500000Y-141452380D01*
X35357142Y-141500000D01*
X35261904Y-141595238D01*
X35214285Y-141690476D01*
X35166666Y-141880952D01*
X35166666Y-142023809D01*
X35214285Y-142214285D01*
X35261904Y-142309523D01*
X35357142Y-142404761D01*
X35500000Y-142452380D01*
X35738095Y-142452380D01*
X34261904Y-141452380D02*
X34738095Y-141452380D01*
X34785714Y-141928571D01*
X34738095Y-141880952D01*
X34642857Y-141833333D01*
X34404761Y-141833333D01*
X34309523Y-141880952D01*
X34261904Y-141928571D01*
X34214285Y-142023809D01*
X34214285Y-142261904D01*
X34261904Y-142357142D01*
X34309523Y-142404761D01*
X34404761Y-142452380D01*
X34642857Y-142452380D01*
X34738095Y-142404761D01*
X34785714Y-142357142D01*
%TO.C,D66*%
X319714285Y-85452380D02*
X319714285Y-84452380D01*
X319476190Y-84452380D01*
X319333333Y-84500000D01*
X319238095Y-84595238D01*
X319190476Y-84690476D01*
X319142857Y-84880952D01*
X319142857Y-85023809D01*
X319190476Y-85214285D01*
X319238095Y-85309523D01*
X319333333Y-85404761D01*
X319476190Y-85452380D01*
X319714285Y-85452380D01*
X318285714Y-84452380D02*
X318476190Y-84452380D01*
X318571428Y-84500000D01*
X318619047Y-84547619D01*
X318714285Y-84690476D01*
X318761904Y-84880952D01*
X318761904Y-85261904D01*
X318714285Y-85357142D01*
X318666666Y-85404761D01*
X318571428Y-85452380D01*
X318380952Y-85452380D01*
X318285714Y-85404761D01*
X318238095Y-85357142D01*
X318190476Y-85261904D01*
X318190476Y-85023809D01*
X318238095Y-84928571D01*
X318285714Y-84880952D01*
X318380952Y-84833333D01*
X318571428Y-84833333D01*
X318666666Y-84880952D01*
X318714285Y-84928571D01*
X318761904Y-85023809D01*
X317333333Y-84452380D02*
X317523809Y-84452380D01*
X317619047Y-84500000D01*
X317666666Y-84547619D01*
X317761904Y-84690476D01*
X317809523Y-84880952D01*
X317809523Y-85261904D01*
X317761904Y-85357142D01*
X317714285Y-85404761D01*
X317619047Y-85452380D01*
X317428571Y-85452380D01*
X317333333Y-85404761D01*
X317285714Y-85357142D01*
X317238095Y-85261904D01*
X317238095Y-85023809D01*
X317285714Y-84928571D01*
X317333333Y-84880952D01*
X317428571Y-84833333D01*
X317619047Y-84833333D01*
X317714285Y-84880952D01*
X317761904Y-84928571D01*
X317809523Y-85023809D01*
%TO.C,D42*%
X224214285Y-142452380D02*
X224214285Y-141452380D01*
X223976190Y-141452380D01*
X223833333Y-141500000D01*
X223738095Y-141595238D01*
X223690476Y-141690476D01*
X223642857Y-141880952D01*
X223642857Y-142023809D01*
X223690476Y-142214285D01*
X223738095Y-142309523D01*
X223833333Y-142404761D01*
X223976190Y-142452380D01*
X224214285Y-142452380D01*
X222785714Y-141785714D02*
X222785714Y-142452380D01*
X223023809Y-141404761D02*
X223261904Y-142119047D01*
X222642857Y-142119047D01*
X222309523Y-141547619D02*
X222261904Y-141500000D01*
X222166666Y-141452380D01*
X221928571Y-141452380D01*
X221833333Y-141500000D01*
X221785714Y-141547619D01*
X221738095Y-141642857D01*
X221738095Y-141738095D01*
X221785714Y-141880952D01*
X222357142Y-142452380D01*
X221738095Y-142452380D01*
%TO.C,D16*%
X81714285Y-85452380D02*
X81714285Y-84452380D01*
X81476190Y-84452380D01*
X81333333Y-84500000D01*
X81238095Y-84595238D01*
X81190476Y-84690476D01*
X81142857Y-84880952D01*
X81142857Y-85023809D01*
X81190476Y-85214285D01*
X81238095Y-85309523D01*
X81333333Y-85404761D01*
X81476190Y-85452380D01*
X81714285Y-85452380D01*
X80190476Y-85452380D02*
X80761904Y-85452380D01*
X80476190Y-85452380D02*
X80476190Y-84452380D01*
X80571428Y-84595238D01*
X80666666Y-84690476D01*
X80761904Y-84738095D01*
X79333333Y-84452380D02*
X79523809Y-84452380D01*
X79619047Y-84500000D01*
X79666666Y-84547619D01*
X79761904Y-84690476D01*
X79809523Y-84880952D01*
X79809523Y-85261904D01*
X79761904Y-85357142D01*
X79714285Y-85404761D01*
X79619047Y-85452380D01*
X79428571Y-85452380D01*
X79333333Y-85404761D01*
X79285714Y-85357142D01*
X79238095Y-85261904D01*
X79238095Y-85023809D01*
X79285714Y-84928571D01*
X79333333Y-84880952D01*
X79428571Y-84833333D01*
X79619047Y-84833333D01*
X79714285Y-84880952D01*
X79761904Y-84928571D01*
X79809523Y-85023809D01*
%TO.C,D46*%
X219714285Y-104452380D02*
X219714285Y-103452380D01*
X219476190Y-103452380D01*
X219333333Y-103500000D01*
X219238095Y-103595238D01*
X219190476Y-103690476D01*
X219142857Y-103880952D01*
X219142857Y-104023809D01*
X219190476Y-104214285D01*
X219238095Y-104309523D01*
X219333333Y-104404761D01*
X219476190Y-104452380D01*
X219714285Y-104452380D01*
X218285714Y-103785714D02*
X218285714Y-104452380D01*
X218523809Y-103404761D02*
X218761904Y-104119047D01*
X218142857Y-104119047D01*
X217333333Y-103452380D02*
X217523809Y-103452380D01*
X217619047Y-103500000D01*
X217666666Y-103547619D01*
X217761904Y-103690476D01*
X217809523Y-103880952D01*
X217809523Y-104261904D01*
X217761904Y-104357142D01*
X217714285Y-104404761D01*
X217619047Y-104452380D01*
X217428571Y-104452380D01*
X217333333Y-104404761D01*
X217285714Y-104357142D01*
X217238095Y-104261904D01*
X217238095Y-104023809D01*
X217285714Y-103928571D01*
X217333333Y-103880952D01*
X217428571Y-103833333D01*
X217619047Y-103833333D01*
X217714285Y-103880952D01*
X217761904Y-103928571D01*
X217809523Y-104023809D01*
%TO.C,D32*%
X157714285Y-85452380D02*
X157714285Y-84452380D01*
X157476190Y-84452380D01*
X157333333Y-84500000D01*
X157238095Y-84595238D01*
X157190476Y-84690476D01*
X157142857Y-84880952D01*
X157142857Y-85023809D01*
X157190476Y-85214285D01*
X157238095Y-85309523D01*
X157333333Y-85404761D01*
X157476190Y-85452380D01*
X157714285Y-85452380D01*
X156809523Y-84452380D02*
X156190476Y-84452380D01*
X156523809Y-84833333D01*
X156380952Y-84833333D01*
X156285714Y-84880952D01*
X156238095Y-84928571D01*
X156190476Y-85023809D01*
X156190476Y-85261904D01*
X156238095Y-85357142D01*
X156285714Y-85404761D01*
X156380952Y-85452380D01*
X156666666Y-85452380D01*
X156761904Y-85404761D01*
X156809523Y-85357142D01*
X155809523Y-84547619D02*
X155761904Y-84500000D01*
X155666666Y-84452380D01*
X155428571Y-84452380D01*
X155333333Y-84500000D01*
X155285714Y-84547619D01*
X155238095Y-84642857D01*
X155238095Y-84738095D01*
X155285714Y-84880952D01*
X155857142Y-85452380D01*
X155238095Y-85452380D01*
%TO.C,D6*%
X59738095Y-142452380D02*
X59738095Y-141452380D01*
X59500000Y-141452380D01*
X59357142Y-141500000D01*
X59261904Y-141595238D01*
X59214285Y-141690476D01*
X59166666Y-141880952D01*
X59166666Y-142023809D01*
X59214285Y-142214285D01*
X59261904Y-142309523D01*
X59357142Y-142404761D01*
X59500000Y-142452380D01*
X59738095Y-142452380D01*
X58309523Y-141452380D02*
X58500000Y-141452380D01*
X58595238Y-141500000D01*
X58642857Y-141547619D01*
X58738095Y-141690476D01*
X58785714Y-141880952D01*
X58785714Y-142261904D01*
X58738095Y-142357142D01*
X58690476Y-142404761D01*
X58595238Y-142452380D01*
X58404761Y-142452380D01*
X58309523Y-142404761D01*
X58261904Y-142357142D01*
X58214285Y-142261904D01*
X58214285Y-142023809D01*
X58261904Y-141928571D01*
X58309523Y-141880952D01*
X58404761Y-141833333D01*
X58595238Y-141833333D01*
X58690476Y-141880952D01*
X58738095Y-141928571D01*
X58785714Y-142023809D01*
%TO.C,D40*%
X210214285Y-123452380D02*
X210214285Y-122452380D01*
X209976190Y-122452380D01*
X209833333Y-122500000D01*
X209738095Y-122595238D01*
X209690476Y-122690476D01*
X209642857Y-122880952D01*
X209642857Y-123023809D01*
X209690476Y-123214285D01*
X209738095Y-123309523D01*
X209833333Y-123404761D01*
X209976190Y-123452380D01*
X210214285Y-123452380D01*
X208785714Y-122785714D02*
X208785714Y-123452380D01*
X209023809Y-122404761D02*
X209261904Y-123119047D01*
X208642857Y-123119047D01*
X208071428Y-122452380D02*
X207976190Y-122452380D01*
X207880952Y-122500000D01*
X207833333Y-122547619D01*
X207785714Y-122642857D01*
X207738095Y-122833333D01*
X207738095Y-123071428D01*
X207785714Y-123261904D01*
X207833333Y-123357142D01*
X207880952Y-123404761D01*
X207976190Y-123452380D01*
X208071428Y-123452380D01*
X208166666Y-123404761D01*
X208214285Y-123357142D01*
X208261904Y-123261904D01*
X208309523Y-123071428D01*
X208309523Y-122833333D01*
X208261904Y-122642857D01*
X208214285Y-122547619D01*
X208166666Y-122500000D01*
X208071428Y-122452380D01*
D11*
%TO.C,R5*%
X115977064Y-135265000D02*
X115522936Y-135265000D01*
X115977064Y-136735000D02*
X115522936Y-136735000D01*
%TO.C,D57*%
X242735000Y-63500000D02*
X242735000Y-62840000D01*
X241325000Y-62840000D02*
X242735000Y-62840000D01*
X242735000Y-65170000D02*
X242735000Y-64500000D01*
X242735000Y-65160000D02*
X240000000Y-65160000D01*
%TO.C,D59*%
X271235000Y-82000000D02*
X271235000Y-81340000D01*
X271235000Y-83670000D02*
X271235000Y-83000000D01*
X271235000Y-83660000D02*
X268500000Y-83660000D01*
X269825000Y-81340000D02*
X271235000Y-81340000D01*
%TO.C,D65*%
X317825000Y-62840000D02*
X319235000Y-62840000D01*
X319235000Y-63500000D02*
X319235000Y-62840000D01*
X319235000Y-65160000D02*
X316500000Y-65160000D01*
X319235000Y-65170000D02*
X319235000Y-64500000D01*
%TO.C,D61*%
X296325000Y-91340000D02*
X297735000Y-91340000D01*
X297735000Y-92000000D02*
X297735000Y-91340000D01*
X297735000Y-93660000D02*
X295000000Y-93660000D01*
X297735000Y-93670000D02*
X297735000Y-93000000D01*
%TO.C,D60*%
X276235000Y-101500000D02*
X276235000Y-100840000D01*
X276235000Y-103160000D02*
X273500000Y-103160000D01*
X276235000Y-103170000D02*
X276235000Y-102500000D01*
X274825000Y-100840000D02*
X276235000Y-100840000D01*
%TO.C,D33*%
X162235000Y-103170000D02*
X162235000Y-102500000D01*
X162235000Y-101500000D02*
X162235000Y-100840000D01*
X162235000Y-103160000D02*
X159500000Y-103160000D01*
X160825000Y-100840000D02*
X162235000Y-100840000D01*
%TO.C,D38*%
X195235000Y-84170000D02*
X195235000Y-83500000D01*
X195235000Y-84160000D02*
X192500000Y-84160000D01*
X195235000Y-82500000D02*
X195235000Y-81840000D01*
X193825000Y-81840000D02*
X195235000Y-81840000D01*
%TO.C,D55*%
X262065000Y-139650000D02*
X262065000Y-138990000D01*
X262065000Y-141310000D02*
X259330000Y-141310000D01*
X260655000Y-138990000D02*
X262065000Y-138990000D01*
X262065000Y-141320000D02*
X262065000Y-140650000D01*
%TO.C,D36*%
X166735000Y-63500000D02*
X166735000Y-62840000D01*
X165325000Y-62840000D02*
X166735000Y-62840000D01*
X166735000Y-65170000D02*
X166735000Y-64500000D01*
X166735000Y-65160000D02*
X164000000Y-65160000D01*
%TO.C,D13*%
X154735000Y-141660000D02*
X152000000Y-141660000D01*
X154735000Y-141670000D02*
X154735000Y-141000000D01*
X154735000Y-140000000D02*
X154735000Y-139340000D01*
X153325000Y-139340000D02*
X154735000Y-139340000D01*
%TO.C,D17*%
X85735000Y-103170000D02*
X85735000Y-102500000D01*
X84325000Y-100840000D02*
X85735000Y-100840000D01*
X85735000Y-101500000D02*
X85735000Y-100840000D01*
X85735000Y-103160000D02*
X83000000Y-103160000D01*
%TO.C,D51*%
X231825000Y-81840000D02*
X233235000Y-81840000D01*
X233235000Y-84170000D02*
X233235000Y-83500000D01*
X233235000Y-82500000D02*
X233235000Y-81840000D01*
X233235000Y-84160000D02*
X230500000Y-84160000D01*
%TO.C,D28*%
X171235000Y-122160000D02*
X168500000Y-122160000D01*
X171235000Y-120500000D02*
X171235000Y-119840000D01*
X169825000Y-119840000D02*
X171235000Y-119840000D01*
X171235000Y-122170000D02*
X171235000Y-121500000D01*
%TO.C,D67*%
X319235000Y-103170000D02*
X319235000Y-102500000D01*
X317825000Y-100840000D02*
X319235000Y-100840000D01*
X319235000Y-103160000D02*
X316500000Y-103160000D01*
X319235000Y-101500000D02*
X319235000Y-100840000D01*
%TO.C,D54*%
X273735000Y-122170000D02*
X273735000Y-121500000D01*
X273735000Y-122160000D02*
X271000000Y-122160000D01*
X273735000Y-120500000D02*
X273735000Y-119840000D01*
X272325000Y-119840000D02*
X273735000Y-119840000D01*
%TO.C,D56*%
X281235000Y-141170000D02*
X281235000Y-140500000D01*
X281235000Y-141160000D02*
X278500000Y-141160000D01*
X279825000Y-138840000D02*
X281235000Y-138840000D01*
X281235000Y-139500000D02*
X281235000Y-138840000D01*
%TO.C,D39*%
X200235000Y-103170000D02*
X200235000Y-102500000D01*
X198825000Y-100840000D02*
X200235000Y-100840000D01*
X200235000Y-101500000D02*
X200235000Y-100840000D01*
X200235000Y-103160000D02*
X197500000Y-103160000D01*
%TO.C,D63*%
X300235000Y-141160000D02*
X297500000Y-141160000D01*
X300235000Y-139500000D02*
X300235000Y-138840000D01*
X298825000Y-138840000D02*
X300235000Y-138840000D01*
X300235000Y-141170000D02*
X300235000Y-140500000D01*
%TO.C,D68*%
X319235000Y-120500000D02*
X319235000Y-119840000D01*
X319235000Y-122160000D02*
X316500000Y-122160000D01*
X317825000Y-119840000D02*
X319235000Y-119840000D01*
X319235000Y-122170000D02*
X319235000Y-121500000D01*
%TO.C,D31*%
X147735000Y-63500000D02*
X147735000Y-62840000D01*
X147735000Y-65170000D02*
X147735000Y-64500000D01*
X147735000Y-65160000D02*
X145000000Y-65160000D01*
X146325000Y-62840000D02*
X147735000Y-62840000D01*
%TO.C,D9*%
X62235000Y-84170000D02*
X62235000Y-83500000D01*
X62235000Y-84160000D02*
X59500000Y-84160000D01*
X62235000Y-82500000D02*
X62235000Y-81840000D01*
X60825000Y-81840000D02*
X62235000Y-81840000D01*
%TO.C,D35*%
X190735000Y-122170000D02*
X190735000Y-121500000D01*
X190735000Y-122160000D02*
X188000000Y-122160000D01*
X189325000Y-119840000D02*
X190735000Y-119840000D01*
X190735000Y-120500000D02*
X190735000Y-119840000D01*
%TO.C,D49*%
X241825000Y-138840000D02*
X243235000Y-138840000D01*
X243235000Y-141160000D02*
X240500000Y-141160000D01*
X243235000Y-139500000D02*
X243235000Y-138840000D01*
X243235000Y-141170000D02*
X243235000Y-140500000D01*
%TO.C,D7*%
X55825000Y-119840000D02*
X57235000Y-119840000D01*
X57235000Y-120500000D02*
X57235000Y-119840000D01*
X57235000Y-122170000D02*
X57235000Y-121500000D01*
X57235000Y-122160000D02*
X54500000Y-122160000D01*
%TO.C,D52*%
X252735000Y-84160000D02*
X250000000Y-84160000D01*
X252735000Y-84170000D02*
X252735000Y-83500000D01*
X252735000Y-82500000D02*
X252735000Y-81840000D01*
X251325000Y-81840000D02*
X252735000Y-81840000D01*
%TO.C,D34*%
X181235000Y-103160000D02*
X178500000Y-103160000D01*
X181235000Y-101500000D02*
X181235000Y-100840000D01*
X181235000Y-103170000D02*
X181235000Y-102500000D01*
X179825000Y-100840000D02*
X181235000Y-100840000D01*
%TO.C,D41*%
X227325000Y-119840000D02*
X228735000Y-119840000D01*
X228735000Y-122170000D02*
X228735000Y-121500000D01*
X228735000Y-120500000D02*
X228735000Y-119840000D01*
X228735000Y-122160000D02*
X226000000Y-122160000D01*
%TO.C,D24*%
X117825000Y-81840000D02*
X119235000Y-81840000D01*
X119235000Y-84170000D02*
X119235000Y-83500000D01*
X119235000Y-84160000D02*
X116500000Y-84160000D01*
X119235000Y-82500000D02*
X119235000Y-81840000D01*
%TO.C,D69*%
X317825000Y-138840000D02*
X319235000Y-138840000D01*
X319235000Y-141170000D02*
X319235000Y-140500000D01*
X319235000Y-141160000D02*
X316500000Y-141160000D01*
X319235000Y-139500000D02*
X319235000Y-138840000D01*
%TO.C,D26*%
X142735000Y-103170000D02*
X142735000Y-102500000D01*
X141325000Y-100840000D02*
X142735000Y-100840000D01*
X142735000Y-103160000D02*
X140000000Y-103160000D01*
X142735000Y-101500000D02*
X142735000Y-100840000D01*
%TO.C,D1*%
X33735000Y-65170000D02*
X33735000Y-64500000D01*
X33735000Y-65160000D02*
X31000000Y-65160000D01*
X32325000Y-62840000D02*
X33735000Y-62840000D01*
X33735000Y-63500000D02*
X33735000Y-62840000D01*
%TO.C,D21*%
X123735000Y-103160000D02*
X121000000Y-103160000D01*
X122325000Y-100840000D02*
X123735000Y-100840000D01*
X123735000Y-103170000D02*
X123735000Y-102500000D01*
X123735000Y-101500000D02*
X123735000Y-100840000D01*
%TO.C,J2*%
X110805000Y-45825000D02*
X110805000Y-44925000D01*
X110805000Y-39495000D02*
X119995000Y-39495000D01*
X110805000Y-42225000D02*
X110805000Y-39495000D01*
X119995000Y-45825000D02*
X119995000Y-44925000D01*
X110925000Y-48905000D02*
X119875000Y-48905000D01*
X119995000Y-42225000D02*
X119995000Y-39495000D01*
%TO.C,D3*%
X42235000Y-101500000D02*
X42235000Y-100840000D01*
X40825000Y-100840000D02*
X42235000Y-100840000D01*
X42235000Y-103160000D02*
X39500000Y-103160000D01*
X42235000Y-103170000D02*
X42235000Y-102500000D01*
%TO.C,D47*%
X236825000Y-100840000D02*
X238235000Y-100840000D01*
X238235000Y-101500000D02*
X238235000Y-100840000D01*
X238235000Y-103160000D02*
X235500000Y-103160000D01*
X238235000Y-103170000D02*
X238235000Y-102500000D01*
%TO.C,D25*%
X138235000Y-84170000D02*
X138235000Y-83500000D01*
X138235000Y-82500000D02*
X138235000Y-81840000D01*
X136825000Y-81840000D02*
X138235000Y-81840000D01*
X138235000Y-84160000D02*
X135500000Y-84160000D01*
%TO.C,D14*%
X95565000Y-122520000D02*
X95565000Y-121850000D01*
X94155000Y-120190000D02*
X95565000Y-120190000D01*
X95565000Y-122510000D02*
X92830000Y-122510000D01*
X95565000Y-120850000D02*
X95565000Y-120190000D01*
%TO.C,D23*%
X100235000Y-84160000D02*
X97500000Y-84160000D01*
X100235000Y-82500000D02*
X100235000Y-81840000D01*
X100235000Y-84170000D02*
X100235000Y-83500000D01*
X98825000Y-81840000D02*
X100235000Y-81840000D01*
%TO.C,D8*%
X52235000Y-65160000D02*
X49500000Y-65160000D01*
X52235000Y-63500000D02*
X52235000Y-62840000D01*
X50825000Y-62840000D02*
X52235000Y-62840000D01*
X52235000Y-65170000D02*
X52235000Y-64500000D01*
%TO.C,D45*%
X214235000Y-82500000D02*
X214235000Y-81840000D01*
X214235000Y-84170000D02*
X214235000Y-83500000D01*
X214235000Y-84160000D02*
X211500000Y-84160000D01*
X212825000Y-81840000D02*
X214235000Y-81840000D01*
%TO.C,D44*%
X204735000Y-63500000D02*
X204735000Y-62840000D01*
X204735000Y-65170000D02*
X204735000Y-64500000D01*
X204735000Y-65160000D02*
X202000000Y-65160000D01*
X203325000Y-62840000D02*
X204735000Y-62840000D01*
%TO.C,R6*%
X31365000Y-101172936D02*
X31365000Y-101627064D01*
X32835000Y-101172936D02*
X32835000Y-101627064D01*
%TO.C,D30*%
X128735000Y-65160000D02*
X126000000Y-65160000D01*
X127325000Y-62840000D02*
X128735000Y-62840000D01*
X128735000Y-65170000D02*
X128735000Y-64500000D01*
X128735000Y-63500000D02*
X128735000Y-62840000D01*
%TO.C,D12*%
X81825000Y-138840000D02*
X83235000Y-138840000D01*
X83235000Y-139500000D02*
X83235000Y-138840000D01*
X83235000Y-141170000D02*
X83235000Y-140500000D01*
X83235000Y-141160000D02*
X80500000Y-141160000D01*
%TO.C,D11*%
X76235000Y-120500000D02*
X76235000Y-119840000D01*
X76235000Y-122170000D02*
X76235000Y-121500000D01*
X74825000Y-119840000D02*
X76235000Y-119840000D01*
X76235000Y-122160000D02*
X73500000Y-122160000D01*
%TO.C,D58*%
X262235000Y-63500000D02*
X262235000Y-62840000D01*
X262235000Y-65160000D02*
X259500000Y-65160000D01*
X260825000Y-62840000D02*
X262235000Y-62840000D01*
X262235000Y-65170000D02*
X262235000Y-64500000D01*
%TO.C,D10*%
X65325000Y-100840000D02*
X66735000Y-100840000D01*
X66735000Y-101500000D02*
X66735000Y-100840000D01*
X66735000Y-103170000D02*
X66735000Y-102500000D01*
X66735000Y-103160000D02*
X64000000Y-103160000D01*
%TO.C,D18*%
X104735000Y-103160000D02*
X102000000Y-103160000D01*
X104735000Y-101500000D02*
X104735000Y-100840000D01*
X103325000Y-100840000D02*
X104735000Y-100840000D01*
X104735000Y-103170000D02*
X104735000Y-102500000D01*
%TO.C,D20*%
X133785000Y-120500000D02*
X133785000Y-119840000D01*
X133785000Y-122170000D02*
X133785000Y-121500000D01*
X132375000Y-119840000D02*
X133785000Y-119840000D01*
X133785000Y-122160000D02*
X131050000Y-122160000D01*
%TO.C,D27*%
X151325000Y-119840000D02*
X152735000Y-119840000D01*
X152735000Y-122160000D02*
X150000000Y-122160000D01*
X152735000Y-120500000D02*
X152735000Y-119840000D01*
X152735000Y-122170000D02*
X152735000Y-121500000D01*
%TO.C,D19*%
X114235000Y-122660000D02*
X111500000Y-122660000D01*
X114235000Y-122670000D02*
X114235000Y-122000000D01*
X112825000Y-120340000D02*
X114235000Y-120340000D01*
X114235000Y-121000000D02*
X114235000Y-120340000D01*
%TO.C,D15*%
X71235000Y-65160000D02*
X68500000Y-65160000D01*
X71235000Y-65170000D02*
X71235000Y-64500000D01*
X71235000Y-63500000D02*
X71235000Y-62840000D01*
X69825000Y-62840000D02*
X71235000Y-62840000D01*
%TO.C,D29*%
X109735000Y-65160000D02*
X107000000Y-65160000D01*
X108325000Y-62840000D02*
X109735000Y-62840000D01*
X109735000Y-63500000D02*
X109735000Y-62840000D01*
X109735000Y-65170000D02*
X109735000Y-64500000D01*
%TO.C,D4*%
X35735000Y-122170000D02*
X35735000Y-121500000D01*
X35735000Y-122160000D02*
X33000000Y-122160000D01*
X35735000Y-120500000D02*
X35735000Y-119840000D01*
X34325000Y-119840000D02*
X35735000Y-119840000D01*
%TO.C,D2*%
X38235000Y-82500000D02*
X38235000Y-81840000D01*
X36825000Y-81840000D02*
X38235000Y-81840000D01*
X38235000Y-84170000D02*
X38235000Y-83500000D01*
X38235000Y-84160000D02*
X35500000Y-84160000D01*
%TO.C,D37*%
X176235000Y-84170000D02*
X176235000Y-83500000D01*
X174825000Y-81840000D02*
X176235000Y-81840000D01*
X176235000Y-84160000D02*
X173500000Y-84160000D01*
X176235000Y-82500000D02*
X176235000Y-81840000D01*
%TO.C,D53*%
X257235000Y-103160000D02*
X254500000Y-103160000D01*
X257235000Y-103170000D02*
X257235000Y-102500000D01*
X257235000Y-101500000D02*
X257235000Y-100840000D01*
X255825000Y-100840000D02*
X257235000Y-100840000D01*
%TO.C,D50*%
X224235000Y-65170000D02*
X224235000Y-64500000D01*
X224235000Y-65160000D02*
X221500000Y-65160000D01*
X222825000Y-62840000D02*
X224235000Y-62840000D01*
X224235000Y-63500000D02*
X224235000Y-62840000D01*
%TO.C,D22*%
X90735000Y-65170000D02*
X90735000Y-64500000D01*
X90735000Y-63500000D02*
X90735000Y-62840000D01*
X89325000Y-62840000D02*
X90735000Y-62840000D01*
X90735000Y-65160000D02*
X88000000Y-65160000D01*
%TO.C,D62*%
X300235000Y-120500000D02*
X300235000Y-119840000D01*
X298825000Y-119840000D02*
X300235000Y-119840000D01*
X300235000Y-122160000D02*
X297500000Y-122160000D01*
X300235000Y-122170000D02*
X300235000Y-121500000D01*
%TO.C,D43*%
X185735000Y-63500000D02*
X185735000Y-62840000D01*
X184325000Y-62840000D02*
X185735000Y-62840000D01*
X185735000Y-65170000D02*
X185735000Y-64500000D01*
X185735000Y-65160000D02*
X183000000Y-65160000D01*
%TO.C,D48*%
X247735000Y-122170000D02*
X247735000Y-121500000D01*
X246325000Y-119840000D02*
X247735000Y-119840000D01*
X247735000Y-120500000D02*
X247735000Y-119840000D01*
X247735000Y-122160000D02*
X245000000Y-122160000D01*
%TO.C,D64*%
X290735000Y-63500000D02*
X290735000Y-62840000D01*
X290735000Y-65160000D02*
X288000000Y-65160000D01*
X290735000Y-65170000D02*
X290735000Y-64500000D01*
X289325000Y-62840000D02*
X290735000Y-62840000D01*
%TO.C,D5*%
X35735000Y-139500000D02*
X35735000Y-138840000D01*
X35735000Y-141160000D02*
X33000000Y-141160000D01*
X34325000Y-138840000D02*
X35735000Y-138840000D01*
X35735000Y-141170000D02*
X35735000Y-140500000D01*
%TO.C,D66*%
X319235000Y-82500000D02*
X319235000Y-81840000D01*
X319235000Y-84170000D02*
X319235000Y-83500000D01*
X319235000Y-84160000D02*
X316500000Y-84160000D01*
X317825000Y-81840000D02*
X319235000Y-81840000D01*
%TO.C,D42*%
X223735000Y-141160000D02*
X221000000Y-141160000D01*
X223735000Y-139500000D02*
X223735000Y-138840000D01*
X222325000Y-138840000D02*
X223735000Y-138840000D01*
X223735000Y-141170000D02*
X223735000Y-140500000D01*
%TO.C,D16*%
X81235000Y-84170000D02*
X81235000Y-83500000D01*
X81235000Y-84160000D02*
X78500000Y-84160000D01*
X79825000Y-81840000D02*
X81235000Y-81840000D01*
X81235000Y-82500000D02*
X81235000Y-81840000D01*
%TO.C,D46*%
X217825000Y-100840000D02*
X219235000Y-100840000D01*
X219235000Y-103160000D02*
X216500000Y-103160000D01*
X219235000Y-103170000D02*
X219235000Y-102500000D01*
X219235000Y-101500000D02*
X219235000Y-100840000D01*
%TO.C,D32*%
X157235000Y-84160000D02*
X154500000Y-84160000D01*
X157235000Y-82500000D02*
X157235000Y-81840000D01*
X157235000Y-84170000D02*
X157235000Y-83500000D01*
X155825000Y-81840000D02*
X157235000Y-81840000D01*
%TO.C,D6*%
X58325000Y-138840000D02*
X59735000Y-138840000D01*
X59735000Y-141170000D02*
X59735000Y-140500000D01*
X59735000Y-141160000D02*
X57000000Y-141160000D01*
X59735000Y-139500000D02*
X59735000Y-138840000D01*
%TO.C,D40*%
X209735000Y-122170000D02*
X209735000Y-121500000D01*
X209735000Y-120500000D02*
X209735000Y-119840000D01*
X208325000Y-119840000D02*
X209735000Y-119840000D01*
X209735000Y-122160000D02*
X207000000Y-122160000D01*
%TD*%
M02*
